JetBrains Mono-Extra Bold.ufo
<glyph name="exclam" format="2">
	<advance width="600"/>
	<unicode hex="0021"/>
	<outline>
		<contour>
			<point x="239" y="245" type="line"/>
			<point x="351" y="245" type="line"/>
			<point x="427" y="580" type="line"/>
			<point x="451" y="730" type="line"/>
			<point x="293" y="730" type="line"/>
			<point x="269" y="580" type="line"/>
		</contour>
		<contour>
			<point x="240" y="-5" type="curve" smooth="yes"/>
			<point x="269" y="-5" type="line" smooth="yes"/>
			<point x="315" y="-5"/>
			<point x="349" y="22"/>
			<point x="356" y="65" type="curve" smooth="yes"/>
			<point x="363" y="107"/>
			<point x="337" y="135"/>
			<point x="292" y="135" type="curve" smooth="yes"/>
			<point x="262" y="135" type="line" smooth="yes"/>
			<point x="217" y="135"/>
			<point x="183" y="107"/>
			<point x="176" y="65" type="curve" smooth="yes"/>
			<point x="170" y="23"/>
			<point x="195" y="-5"/>
		</contour>
	</outline>
</glyph>
<glyph name="quotedbl" format="2">
	<advance width="600"/>
	<unicode hex="0022"/>
	<outline>
		<contour>
			<point x="380" y="430" type="line"/>
			<point x="501" y="430" type="line"/>
			<point x="536" y="570" type="line"/>
			<point x="562" y="730" type="line"/>
			<point x="414" y="730" type="line"/>
			<point x="388" y="570" type="line"/>
		</contour>
		<contour>
			<point x="148" y="430" type="line"/>
			<point x="269" y="430" type="line"/>
			<point x="304" y="570" type="line"/>
			<point x="330" y="730" type="line"/>
			<point x="182" y="730" type="line"/>
			<point x="156" y="570" type="line"/>
		</contour>
	</outline>
</glyph>
<glyph name="numbersign" format="2">
	<advance width="600"/>
	<unicode hex="0023"/>
	<outline>
		<contour>
			<point x="26" y="0" type="line"/>
			<point x="131" y="0" type="line"/>
			<point x="187" y="170" type="line"/>
			<point x="312" y="170" type="line"/>
			<point x="256" y="0" type="line"/>
			<point x="361" y="0" type="line"/>
			<point x="417" y="170" type="line"/>
			<point x="533" y="170" type="line"/>
			<point x="549" y="270" type="line"/>
			<point x="450" y="270" type="line"/>
			<point x="513" y="460" type="line"/>
			<point x="609" y="460" type="line"/>
			<point x="625" y="560" type="line"/>
			<point x="546" y="560" type="line"/>
			<point x="602" y="730" type="line"/>
			<point x="497" y="730" type="line"/>
			<point x="441" y="560" type="line"/>
			<point x="316" y="560" type="line"/>
			<point x="372" y="730" type="line"/>
			<point x="267" y="730" type="line"/>
			<point x="211" y="560" type="line"/>
			<point x="95" y="560" type="line"/>
			<point x="79" y="460" type="line"/>
			<point x="178" y="460" type="line"/>
			<point x="115" y="270" type="line"/>
			<point x="19" y="270" type="line"/>
			<point x="3" y="170" type="line"/>
			<point x="82" y="170" type="line"/>
		</contour>
		<contour>
			<point x="220" y="270" type="line"/>
			<point x="283" y="460" type="line"/>
			<point x="408" y="460" type="line"/>
			<point x="345" y="270" type="line"/>
		</contour>
	</outline>
</glyph>
<glyph name="dollar" format="2">
	<advance width="600"/>
	<unicode hex="0024"/>
	<outline>
		<contour>
			<point x="254" y="-10" type="curve" smooth="yes"/>
			<point x="410" y="-10"/>
			<point x="520" y="72"/>
			<point x="542" y="206" type="curve" smooth="yes"/>
			<point x="560" y="322"/>
			<point x="506" y="397"/>
			<point x="380" y="427" type="curve" smooth="yes"/>
			<point x="304" y="445" type="line" smooth="yes"/>
			<point x="262" y="455"/>
			<point x="240" y="489"/>
			<point x="248" y="535" type="curve" smooth="yes"/>
			<point x="255" y="581"/>
			<point x="294" y="610"/>
			<point x="349" y="610" type="curve" smooth="yes"/>
			<point x="409" y="610"/>
			<point x="439" y="582"/>
			<point x="432" y="535" type="curve"/>
			<point x="582" y="535" type="line"/>
			<point x="602" y="660"/>
			<point x="519" y="740"/>
			<point x="371" y="740" type="curve" smooth="yes"/>
			<point x="224" y="740"/>
			<point x="117" y="658"/>
			<point x="97" y="529" type="curve" smooth="yes"/>
			<point x="79" y="419"/>
			<point x="141" y="335"/>
			<point x="258" y="307" type="curve" smooth="yes"/>
			<point x="329" y="290" type="line" smooth="yes"/>
			<point x="373" y="279"/>
			<point x="398" y="244"/>
			<point x="391" y="199" type="curve" smooth="yes"/>
			<point x="383" y="150"/>
			<point x="340" y="120"/>
			<point x="278" y="120" type="curve" smooth="yes"/>
			<point x="213" y="120"/>
			<point x="177" y="151"/>
			<point x="185" y="200" type="curve"/>
			<point x="35" y="200" type="line"/>
			<point x="14" y="72"/>
			<point x="100" y="-10"/>
		</contour>
		<contour>
			<point x="194" y="-140" type="line"/>
			<point x="259" y="-140" type="line"/>
			<point x="336" y="350" type="line"/>
			<point x="271" y="350" type="line"/>
		</contour>
		<contour>
			<point x="273" y="360" type="line"/>
			<point x="338" y="360" type="line"/>
			<point x="416" y="850" type="line"/>
			<point x="351" y="850" type="line"/>
		</contour>
	</outline>
</glyph>
<glyph name="percent" format="2">
	<advance width="600"/>
	<unicode hex="0025"/>
	<outline>
		<contour>
			<point x="-59" y="0" type="line"/>
			<point x="43" y="0" type="line"/>
			<point x="686" y="730" type="line"/>
			<point x="585" y="730" type="line"/>
		</contour>
		<contour>
			<point x="395" y="-5" type="curve" smooth="yes"/>
			<point x="482" y="-5"/>
			<point x="554" y="49"/>
			<point x="567" y="130" type="curve" smooth="yes"/>
			<point x="577" y="195" type="line" smooth="yes"/>
			<point x="590" y="276"/>
			<point x="535" y="330"/>
			<point x="448" y="330" type="curve" smooth="yes"/>
			<point x="361" y="330"/>
			<point x="290" y="276"/>
			<point x="277" y="195" type="curve" smooth="yes"/>
			<point x="267" y="130" type="line" smooth="yes"/>
			<point x="254" y="49"/>
			<point x="308" y="-5"/>
		</contour>
		<contour>
			<point x="409" y="79" type="curve" smooth="yes"/>
			<point x="376" y="79"/>
			<point x="360" y="94"/>
			<point x="366" y="130" type="curve" smooth="yes"/>
			<point x="376" y="195" type="line" smooth="yes"/>
			<point x="382" y="231"/>
			<point x="403" y="247"/>
			<point x="435" y="247" type="curve" smooth="yes"/>
			<point x="467" y="247"/>
			<point x="484" y="231"/>
			<point x="478" y="195" type="curve" smooth="yes"/>
			<point x="468" y="130" type="line" smooth="yes"/>
			<point x="462" y="94"/>
			<point x="441" y="79"/>
		</contour>
		<contour>
			<point x="179" y="400" type="curve" smooth="yes"/>
			<point x="264" y="400"/>
			<point x="337" y="451"/>
			<point x="351" y="535" type="curve" smooth="yes"/>
			<point x="361" y="600" type="line" smooth="yes"/>
			<point x="374" y="684"/>
			<point x="317" y="735"/>
			<point x="232" y="735" type="curve" smooth="yes"/>
			<point x="148" y="735"/>
			<point x="74" y="684"/>
			<point x="61" y="600" type="curve" smooth="yes"/>
			<point x="51" y="535" type="line" smooth="yes"/>
			<point x="37" y="451"/>
			<point x="95" y="400"/>
		</contour>
		<contour>
			<point x="193" y="483" type="curve" smooth="yes"/>
			<point x="160" y="483"/>
			<point x="144" y="499"/>
			<point x="150" y="535" type="curve" smooth="yes"/>
			<point x="160" y="600" type="line" smooth="yes"/>
			<point x="166" y="636"/>
			<point x="187" y="652"/>
			<point x="219" y="652" type="curve" smooth="yes"/>
			<point x="252" y="652"/>
			<point x="268" y="636"/>
			<point x="262" y="600" type="curve" smooth="yes"/>
			<point x="252" y="535" type="line" smooth="yes"/>
			<point x="246" y="499"/>
			<point x="225" y="483"/>
		</contour>
	</outline>
</glyph>
<glyph name="ampersand" format="2">
	<advance width="600"/>
	<unicode hex="0026"/>
	<outline>
		<contour>
			<point x="180" y="387" type="curve" smooth="yes"/>
			<point x="393" y="0" type="line"/>
			<point x="536" y="0" type="line"/>
			<point x="301" y="436" type="line" smooth="yes"/>
			<point x="277" y="480"/>
			<point x="263" y="518"/>
			<point x="268" y="550" type="curve" smooth="yes"/>
			<point x="275" y="592"/>
			<point x="307" y="620"/>
			<point x="349" y="620" type="curve" smooth="yes"/>
			<point x="391" y="620"/>
			<point x="415" y="592"/>
			<point x="408" y="550" type="curve"/>
			<point x="543" y="550" type="line"/>
			<point x="561" y="664"/>
			<point x="491" y="740"/>
			<point x="368" y="740" type="curve" smooth="yes"/>
			<point x="248" y="740"/>
			<point x="157" y="668"/>
			<point x="140" y="565" type="curve" smooth="yes"/>
			<point x="131" y="506"/>
			<point x="148" y="446"/>
		</contour>
		<contour>
			<point x="189" y="-10" type="curve" smooth="yes"/>
			<point x="291" y="-10"/>
			<point x="377" y="39"/>
			<point x="438" y="132" type="curve" smooth="yes"/>
			<point x="587" y="360" type="line"/>
			<point x="447" y="360" type="line"/>
			<point x="328" y="174" type="line" smooth="yes"/>
			<point x="301" y="133"/>
			<point x="263" y="110"/>
			<point x="222" y="110" type="curve" smooth="yes"/>
			<point x="177" y="110"/>
			<point x="152" y="140"/>
			<point x="161" y="195" type="curve" smooth="yes"/>
			<point x="172" y="265" type="line" smooth="yes"/>
			<point x="181" y="320"/>
			<point x="210" y="350"/>
			<point x="256" y="350" type="curve" smooth="yes"/>
			<point x="270" y="350" type="line"/>
			<point x="285" y="445" type="line"/>
			<point x="230" y="445" type="line" smooth="yes"/>
			<point x="124" y="445"/>
			<point x="50" y="377"/>
			<point x="32" y="265" type="curve" smooth="yes"/>
			<point x="21" y="195" type="line" smooth="yes"/>
			<point x="0" y="66"/>
			<point x="61" y="-10"/>
		</contour>
	</outline>
</glyph>
<glyph name="quotesingle" format="2">
	<advance width="600"/>
	<unicode hex="0027"/>
	<outline>
		<contour>
			<point x="264" y="430" type="line"/>
			<point x="385" y="430" type="line"/>
			<point x="420" y="570" type="line"/>
			<point x="446" y="730" type="line"/>
			<point x="298" y="730" type="line"/>
			<point x="272" y="570" type="line"/>
		</contour>
	</outline>
</glyph>
<glyph name="parenleft" format="2">
	<advance width="600"/>
	<unicode hex="0028"/>
	<outline>
		<contour>
			<point x="420" y="-125" type="curve"/>
			<point x="444" y="27" type="line"/>
			<point x="336" y="54"/>
			<point x="282" y="144"/>
			<point x="301" y="264" type="curve" smooth="yes"/>
			<point x="331" y="455" type="line" smooth="yes"/>
			<point x="351" y="578"/>
			<point x="432" y="667"/>
			<point x="550" y="695" type="curve"/>
			<point x="573" y="845" type="line"/>
			<point x="357" y="789"/>
			<point x="212" y="645"/>
			<point x="181" y="455" type="curve" smooth="yes"/>
			<point x="151" y="264" type="line" smooth="yes"/>
			<point x="121" y="71"/>
			<point x="217" y="-68"/>
		</contour>
	</outline>
</glyph>
<glyph name="parenright" format="2">
	<advance width="600"/>
	<unicode hex="0029"/>
	<outline>
		<contour>
			<point x="75" y="27" type="curve"/>
			<point x="51" y="-125" type="line"/>
			<point x="272" y="-68"/>
			<point x="412" y="71"/>
			<point x="443" y="264" type="curve" smooth="yes"/>
			<point x="473" y="455" type="line" smooth="yes"/>
			<point x="503" y="645"/>
			<point x="403" y="789"/>
			<point x="205" y="845" type="curve"/>
			<point x="181" y="695" type="line"/>
			<point x="290" y="667"/>
			<point x="343" y="578"/>
			<point x="323" y="455" type="curve" smooth="yes"/>
			<point x="293" y="264" type="line" smooth="yes"/>
			<point x="274" y="144"/>
			<point x="192" y="54"/>
		</contour>
	</outline>
</glyph>
<glyph name="asterisk" format="2">
	<advance width="600"/>
	<unicode hex="002A"/>
	<outline>
		<contour>
			<point x="42" y="367" type="line"/>
			<point x="90" y="348" type="line" smooth="yes"/>
			<point x="139" y="329"/>
			<point x="219" y="326"/>
			<point x="265" y="326" type="curve"/>
			<point x="266" y="323" type="line"/>
			<point x="225" y="299"/>
			<point x="149" y="252"/>
			<point x="110" y="205" type="curve" smooth="yes"/>
			<point x="72" y="160" type="line"/>
			<point x="168" y="81" type="line"/>
			<point x="207" y="126" type="line" smooth="yes"/>
			<point x="248" y="173"/>
			<point x="284" y="257"/>
			<point x="301" y="299" type="curve"/>
			<point x="307" y="299" type="line"/>
			<point x="312" y="257"/>
			<point x="324" y="174"/>
			<point x="350" y="127" type="curve" smooth="yes"/>
			<point x="375" y="82" type="line"/>
			<point x="489" y="155" type="line"/>
			<point x="465" y="201" type="line" smooth="yes"/>
			<point x="440" y="248"/>
			<point x="382" y="297"/>
			<point x="350" y="323" type="curve"/>
			<point x="352" y="326" type="line"/>
			<point x="397" y="325"/>
			<point x="478" y="327"/>
			<point x="532" y="346" type="curve" smooth="yes"/>
			<point x="587" y="365" type="line"/>
			<point x="562" y="491" type="line"/>
			<point x="507" y="472" type="line" smooth="yes"/>
			<point x="451" y="453"/>
			<point x="380" y="402"/>
			<point x="341" y="372" type="curve"/>
			<point x="338" y="375" type="line"/>
			<point x="360" y="416"/>
			<point x="401" y="497"/>
			<point x="410" y="555" type="curve" smooth="yes"/>
			<point x="419" y="610" type="line"/>
			<point x="289" y="610" type="line"/>
			<point x="280" y="555" type="line" smooth="yes"/>
			<point x="271" y="497"/>
			<point x="285" y="416"/>
			<point x="294" y="375" type="curve"/>
			<point x="289" y="371" type="line"/>
			<point x="259" y="400"/>
			<point x="204" y="451"/>
			<point x="154" y="470" type="curve" smooth="yes"/>
			<point x="105" y="489" type="line"/>
		</contour>
	</outline>
</glyph>
<glyph name="plus" format="2">
	<advance width="600"/>
	<unicode hex="002B"/>
	<outline>
		<contour>
			<point x="193" y="90" type="line"/>
			<point x="343" y="90" type="line"/>
			<point x="370" y="260" type="line"/>
			<point x="540" y="260" type="line"/>
			<point x="562" y="400" type="line"/>
			<point x="392" y="400" type="line"/>
			<point x="419" y="570" type="line"/>
			<point x="269" y="570" type="line"/>
			<point x="242" y="400" type="line"/>
			<point x="72" y="400" type="line"/>
			<point x="50" y="260" type="line"/>
			<point x="220" y="260" type="line"/>
		</contour>
	</outline>
</glyph>
<glyph name="comma" format="2">
	<advance width="600"/>
	<unicode hex="002C"/>
	<outline>
		<contour>
			<point x="91" y="-160" type="line"/>
			<point x="221" y="-160" type="line"/>
			<point x="400" y="151" type="line"/>
			<point x="220" y="151" type="line"/>
		</contour>
	</outline>
</glyph>
<glyph name="hyphen" format="2">
	<advance width="600"/>
	<unicode hex="002D"/>
	<outline>
		<contour>
			<point x="75" y="260" type="line"/>
			<point x="515" y="260" type="line"/>
			<point x="537" y="400" type="line"/>
			<point x="97" y="400" type="line"/>
		</contour>
	</outline>
</glyph>
<glyph name="period" format="2">
	<advance width="600"/>
	<unicode hex="002E"/>
	<outline>
		<contour>
			<point x="239" y="-10" type="curve" smooth="yes"/>
			<point x="269" y="-10" type="line" smooth="yes"/>
			<point x="324" y="-10"/>
			<point x="371" y="30"/>
			<point x="379" y="85" type="curve" smooth="yes"/>
			<point x="388" y="140"/>
			<point x="354" y="180"/>
			<point x="300" y="180" type="curve" smooth="yes"/>
			<point x="270" y="180" type="line" smooth="yes"/>
			<point x="215" y="180"/>
			<point x="168" y="140"/>
			<point x="159" y="85" type="curve" smooth="yes"/>
			<point x="151" y="30"/>
			<point x="185" y="-10"/>
		</contour>
	</outline>
</glyph>
<glyph name="slash" format="2">
	<advance width="600"/>
	<unicode hex="002F"/>
	<outline>
		<contour>
			<point x="-11" y="-110" type="line"/>
			<point x="148" y="-110" type="line"/>
			<point x="637" y="830" type="line"/>
			<point x="478" y="830" type="line"/>
		</contour>
	</outline>
</glyph>
<glyph name="zero" format="2">
	<advance width="600"/>
	<unicode hex="0030"/>
	<outline>
		<contour>
			<point x="254" y="-10" type="curve" smooth="yes"/>
			<point x="402" y="-10"/>
			<point x="508" y="78"/>
			<point x="529" y="210" type="curve" smooth="yes"/>
			<point x="578" y="520" type="line" smooth="yes"/>
			<point x="599" y="652"/>
			<point x="521" y="740"/>
			<point x="373" y="740" type="curve" smooth="yes"/>
			<point x="226" y="740"/>
			<point x="119" y="652"/>
			<point x="98" y="520" type="curve" smooth="yes"/>
			<point x="49" y="210" type="line" smooth="yes"/>
			<point x="28" y="78"/>
			<point x="107" y="-10"/>
		</contour>
		<contour>
			<point x="275" y="120" type="curve" smooth="yes"/>
			<point x="213" y="120"/>
			<point x="180" y="154"/>
			<point x="189" y="210" type="curve" smooth="yes"/>
			<point x="238" y="520" type="line" smooth="yes"/>
			<point x="247" y="576"/>
			<point x="290" y="610"/>
			<point x="353" y="610" type="curve" smooth="yes"/>
			<point x="415" y="610"/>
			<point x="447" y="576"/>
			<point x="438" y="520" type="curve" smooth="yes"/>
			<point x="389" y="210" type="line" smooth="yes"/>
			<point x="380" y="154"/>
			<point x="337" y="120"/>
		</contour>
		<contour>
			<point x="304" y="305" type="curve" smooth="yes"/>
			<point x="334" y="305"/>
			<point x="358" y="327"/>
			<point x="363" y="360" type="curve" smooth="yes"/>
			<point x="365" y="375" type="line" smooth="yes"/>
			<point x="371" y="408"/>
			<point x="354" y="430"/>
			<point x="324" y="430" type="curve" smooth="yes"/>
			<point x="294" y="430"/>
			<point x="271" y="408"/>
			<point x="265" y="375" type="curve" smooth="yes"/>
			<point x="263" y="360" type="line" smooth="yes"/>
			<point x="258" y="327"/>
			<point x="274" y="305"/>
		</contour>
	</outline>
</glyph>
<glyph name="one" format="2">
	<advance width="600"/>
	<unicode hex="0031"/>
	<outline>
		<contour>
			<point x="36" y="0" type="line"/>
			<point x="516" y="0" type="line"/>
			<point x="537" y="130" type="line"/>
			<point x="391" y="130" type="line"/>
			<point x="486" y="730" type="line"/>
			<point x="321" y="730" type="line"/>
			<point x="131" y="610" type="line"/>
			<point x="106" y="455" type="line"/>
			<point x="314" y="593" type="line"/>
			<point x="241" y="130" type="line"/>
			<point x="57" y="130" type="line"/>
		</contour>
	</outline>
</glyph>
<glyph name="two" format="2">
	<advance width="600"/>
	<unicode hex="0032"/>
	<outline>
		<contour>
			<point x="26" y="0" type="line"/>
			<point x="498" y="0" type="line"/>
			<point x="519" y="135" type="line"/>
			<point x="235" y="135" type="line"/>
			<point x="385" y="255" type="line" smooth="yes"/>
			<point x="502" y="349"/>
			<point x="559" y="434"/>
			<point x="574" y="529" type="curve" smooth="yes"/>
			<point x="594" y="656"/>
			<point x="514" y="740"/>
			<point x="372" y="740" type="curve" smooth="yes"/>
			<point x="220" y="740"/>
			<point x="109" y="648"/>
			<point x="86" y="505" type="curve"/>
			<point x="236" y="505" type="line"/>
			<point x="246" y="568"/>
			<point x="288" y="605"/>
			<point x="348" y="605" type="curve" smooth="yes"/>
			<point x="403" y="605"/>
			<point x="430" y="571"/>
			<point x="421" y="513" type="curve" smooth="yes"/>
			<point x="413" y="460"/>
			<point x="379" y="418"/>
			<point x="316" y="365" type="curve" smooth="yes"/>
			<point x="48" y="141" type="line"/>
		</contour>
	</outline>
</glyph>
<glyph name="three" format="2">
	<advance width="600"/>
	<unicode hex="0033"/>
	<outline>
		<contour>
			<point x="250" y="-10" type="curve" smooth="yes"/>
			<point x="400" y="-10"/>
			<point x="509" y="71"/>
			<point x="528" y="200" type="curve" smooth="yes"/>
			<point x="537" y="261" type="line" smooth="yes"/>
			<point x="558" y="391"/>
			<point x="477" y="473"/>
			<point x="327" y="473" type="curve"/>
			<point x="317" y="412" type="line"/>
			<point x="561" y="601" type="line"/>
			<point x="582" y="730" type="line"/>
			<point x="159" y="730" type="line"/>
			<point x="139" y="605" type="line"/>
			<point x="409" y="605" type="line"/>
			<point x="241" y="475" type="line"/>
			<point x="221" y="346" type="line"/>
			<point x="307" y="346" type="line" smooth="yes"/>
			<point x="367" y="346"/>
			<point x="396" y="315"/>
			<point x="387" y="260" type="curve" smooth="yes"/>
			<point x="378" y="200" type="line" smooth="yes"/>
			<point x="369" y="145"/>
			<point x="331" y="115"/>
			<point x="270" y="115" type="curve" smooth="yes"/>
			<point x="210" y="115"/>
			<point x="181" y="146"/>
			<point x="190" y="200" type="curve"/>
			<point x="40" y="200" type="line"/>
			<point x="19" y="71"/>
			<point x="101" y="-10"/>
		</contour>
	</outline>
</glyph>
<glyph name="four" format="2">
	<advance width="600"/>
	<unicode hex="0034"/>
	<outline>
		<contour>
			<point x="331" y="0" type="line"/>
			<point x="481" y="0" type="line"/>
			<point x="548" y="420" type="line"/>
			<point x="398" y="420" type="line"/>
			<point x="373" y="264" type="line"/>
			<point x="193" y="264" type="line"/>
			<point x="199" y="301" type="line"/>
			<point x="571" y="730" type="line"/>
			<point x="401" y="730" type="line"/>
			<point x="65" y="343" type="line"/>
			<point x="32" y="134" type="line"/>
			<point x="352" y="134" type="line"/>
		</contour>
	</outline>
</glyph>
<glyph name="five" format="2">
	<advance width="600"/>
	<unicode hex="0035"/>
	<outline>
		<contour>
			<point x="253" y="-10" type="curve" smooth="yes"/>
			<point x="405" y="-10"/>
			<point x="507" y="71"/>
			<point x="528" y="205" type="curve" smooth="yes"/>
			<point x="540" y="276" type="line" smooth="yes"/>
			<point x="560" y="404"/>
			<point x="503" y="479"/>
			<point x="384" y="479" type="curve" smooth="yes"/>
			<point x="302" y="479"/>
			<point x="246" y="441"/>
			<point x="236" y="380" type="curve"/>
			<point x="272" y="405" type="line"/>
			<point x="241" y="405" type="line"/>
			<point x="273" y="595" type="line"/>
			<point x="563" y="595" type="line"/>
			<point x="585" y="730" type="line"/>
			<point x="154" y="730" type="line"/>
			<point x="85" y="330" type="line"/>
			<point x="230" y="330" type="line"/>
			<point x="249" y="350"/>
			<point x="276" y="360"/>
			<point x="312" y="360" type="curve" smooth="yes"/>
			<point x="372" y="360"/>
			<point x="398" y="330"/>
			<point x="390" y="276" type="curve" smooth="yes"/>
			<point x="378" y="205" type="line" smooth="yes"/>
			<point x="370" y="151"/>
			<point x="333" y="120"/>
			<point x="274" y="120" type="curve" smooth="yes"/>
			<point x="219" y="120"/>
			<point x="191" y="146"/>
			<point x="196" y="190" type="curve"/>
			<point x="46" y="190" type="line"/>
			<point x="30" y="67"/>
			<point x="108" y="-10"/>
		</contour>
	</outline>
</glyph>
<glyph name="six" format="2">
	<advance width="600"/>
	<unicode hex="0036"/>
	<outline>
		<contour>
			<point x="254" y="-10" type="curve" smooth="yes"/>
			<point x="407" y="-10"/>
			<point x="524" y="84"/>
			<point x="547" y="226" type="curve" smooth="yes"/>
			<point x="568" y="358"/>
			<point x="505" y="446"/>
			<point x="391" y="446" type="curve" smooth="yes"/>
			<point x="334" y="446"/>
			<point x="282" y="423"/>
			<point x="246" y="380" type="curve"/>
			<point x="240" y="384" type="line"/>
			<point x="517" y="730" type="line"/>
			<point x="350" y="730" type="line"/>
			<point x="143" y="462" type="line" smooth="yes"/>
			<point x="90" y="394"/>
			<point x="50" y="308"/>
			<point x="39" y="242" type="curve" smooth="yes"/>
			<point x="15" y="91"/>
			<point x="101" y="-10"/>
		</contour>
		<contour>
			<point x="274" y="115" type="curve" smooth="yes"/>
			<point x="209" y="115"/>
			<point x="172" y="159"/>
			<point x="182" y="224" type="curve" smooth="yes"/>
			<point x="193" y="291"/>
			<point x="244" y="335"/>
			<point x="309" y="335" type="curve" smooth="yes"/>
			<point x="374" y="335"/>
			<point x="411" y="291"/>
			<point x="400" y="224" type="curve" smooth="yes"/>
			<point x="390" y="159"/>
			<point x="340" y="115"/>
		</contour>
	</outline>
</glyph>
<glyph name="seven" format="2">
	<advance width="600"/>
	<unicode hex="0037"/>
	<outline>
		<contour>
			<point x="85" y="0" type="line"/>
			<point x="250" y="0" type="line"/>
			<point x="599" y="590" type="line"/>
			<point x="622" y="730" type="line"/>
			<point x="117" y="730" type="line"/>
			<point x="78" y="485" type="line"/>
			<point x="228" y="485" type="line"/>
			<point x="244" y="590" type="line"/>
			<point x="442" y="590" type="line"/>
		</contour>
	</outline>
</glyph>
<glyph name="eight" format="2">
	<advance width="600"/>
	<unicode hex="0038"/>
	<outline>
		<contour>
			<point x="254" y="-10" type="curve" smooth="yes"/>
			<point x="407" y="-10"/>
			<point x="523" y="74"/>
			<point x="543" y="201" type="curve" smooth="yes"/>
			<point x="558" y="299"/>
			<point x="503" y="388"/>
			<point x="413" y="389" type="curve"/>
			<point x="411" y="380" type="line"/>
			<point x="493" y="380"/>
			<point x="568" y="454"/>
			<point x="582" y="540" type="curve" smooth="yes"/>
			<point x="601" y="660"/>
			<point x="517" y="740"/>
			<point x="373" y="740" type="curve" smooth="yes"/>
			<point x="229" y="740"/>
			<point x="121" y="660"/>
			<point x="102" y="540" type="curve" smooth="yes"/>
			<point x="88" y="454"/>
			<point x="140" y="380"/>
			<point x="221" y="380" type="curve"/>
			<point x="223" y="389" type="line"/>
			<point x="133" y="389"/>
			<point x="48" y="297"/>
			<point x="33" y="201" type="curve" smooth="yes"/>
			<point x="13" y="74"/>
			<point x="101" y="-10"/>
		</contour>
		<contour>
			<point x="273" y="110" type="curve" smooth="yes"/>
			<point x="210" y="110"/>
			<point x="175" y="152"/>
			<point x="185" y="217" type="curve" smooth="yes"/>
			<point x="196" y="282"/>
			<point x="244" y="324"/>
			<point x="307" y="324" type="curve" smooth="yes"/>
			<point x="373" y="324"/>
			<point x="407" y="282"/>
			<point x="396" y="217" type="curve" smooth="yes"/>
			<point x="386" y="152"/>
			<point x="339" y="110"/>
		</contour>
		<contour>
			<point x="325" y="434" type="curve" smooth="yes"/>
			<point x="263" y="434"/>
			<point x="231" y="473"/>
			<point x="241" y="534" type="curve" smooth="yes"/>
			<point x="250" y="593"/>
			<point x="295" y="630"/>
			<point x="356" y="630" type="curve" smooth="yes"/>
			<point x="416" y="630"/>
			<point x="449" y="593"/>
			<point x="440" y="534" type="curve" smooth="yes"/>
			<point x="430" y="473"/>
			<point x="385" y="434"/>
		</contour>
	</outline>
</glyph>
<glyph name="nine" format="2">
	<advance width="600"/>
	<unicode hex="0039"/>
	<outline>
		<contour>
			<point x="111" y="0" type="line"/>
			<point x="278" y="0" type="line"/>
			<point x="485" y="268" type="line" smooth="yes"/>
			<point x="537" y="336"/>
			<point x="578" y="422"/>
			<point x="588" y="488" type="curve" smooth="yes"/>
			<point x="612" y="639"/>
			<point x="526" y="740"/>
			<point x="373" y="740" type="curve" smooth="yes"/>
			<point x="220" y="740"/>
			<point x="103" y="646"/>
			<point x="81" y="504" type="curve" smooth="yes"/>
			<point x="60" y="372"/>
			<point x="123" y="284"/>
			<point x="237" y="284" type="curve" smooth="yes"/>
			<point x="293" y="284"/>
			<point x="346" y="307"/>
			<point x="381" y="350" type="curve"/>
			<point x="388" y="346" type="line"/>
		</contour>
		<contour>
			<point x="319" y="395" type="curve" smooth="yes"/>
			<point x="253" y="395"/>
			<point x="217" y="439"/>
			<point x="227" y="506" type="curve" smooth="yes"/>
			<point x="238" y="571"/>
			<point x="288" y="615"/>
			<point x="353" y="615" type="curve" smooth="yes"/>
			<point x="419" y="615"/>
			<point x="456" y="571"/>
			<point x="445" y="506" type="curve" smooth="yes"/>
			<point x="435" y="439"/>
			<point x="384" y="395"/>
		</contour>
	</outline>
</glyph>
<glyph name="colon" format="2">
	<advance width="600"/>
	<unicode hex="003A"/>
	<outline>
		<contour>
			<point x="306" y="380" type="curve" smooth="yes"/>
			<point x="326" y="380" type="line" smooth="yes"/>
			<point x="378" y="380"/>
			<point x="422" y="418"/>
			<point x="430" y="470" type="curve" smooth="yes"/>
			<point x="439" y="522"/>
			<point x="407" y="560"/>
			<point x="355" y="560" type="curve" smooth="yes"/>
			<point x="335" y="560" type="line" smooth="yes"/>
			<point x="283" y="560"/>
			<point x="239" y="522"/>
			<point x="230" y="470" type="curve" smooth="yes"/>
			<point x="222" y="418"/>
			<point x="254" y="380"/>
		</contour>
		<contour>
			<point x="244" y="-10" type="curve" smooth="yes"/>
			<point x="264" y="-10" type="line" smooth="yes"/>
			<point x="316" y="-10"/>
			<point x="360" y="28"/>
			<point x="369" y="80" type="curve" smooth="yes"/>
			<point x="377" y="132"/>
			<point x="345" y="170"/>
			<point x="293" y="170" type="curve" smooth="yes"/>
			<point x="273" y="170" type="line" smooth="yes"/>
			<point x="221" y="170"/>
			<point x="177" y="132"/>
			<point x="169" y="80" type="curve" smooth="yes"/>
			<point x="160" y="28"/>
			<point x="192" y="-10"/>
		</contour>
	</outline>
</glyph>
<glyph name="semicolon" format="2">
	<advance width="600"/>
	<unicode hex="003B"/>
	<outline>
		<contour>
			<point x="76" y="-160" type="line"/>
			<point x="206" y="-160" type="line"/>
			<point x="385" y="151" type="line"/>
			<point x="205" y="151" type="line"/>
		</contour>
		<contour>
			<point x="306" y="380" type="curve" smooth="yes"/>
			<point x="326" y="380" type="line" smooth="yes"/>
			<point x="378" y="380"/>
			<point x="422" y="418"/>
			<point x="430" y="470" type="curve" smooth="yes"/>
			<point x="439" y="522"/>
			<point x="407" y="560"/>
			<point x="355" y="560" type="curve" smooth="yes"/>
			<point x="335" y="560" type="line" smooth="yes"/>
			<point x="283" y="560"/>
			<point x="239" y="522"/>
			<point x="230" y="470" type="curve" smooth="yes"/>
			<point x="222" y="418"/>
			<point x="254" y="380"/>
		</contour>
	</outline>
</glyph>
<glyph name="less" format="2">
	<advance width="600"/>
	<unicode hex="003C"/>
	<outline>
		<contour>
			<point x="494" y="49" type="line"/>
			<point x="515" y="184" type="line"/>
			<point x="258" y="305" type="line" smooth="yes"/>
			<point x="224" y="321"/>
			<point x="185" y="327"/>
			<point x="185" y="327" type="curve"/>
			<point x="185" y="327"/>
			<point x="226" y="334"/>
			<point x="265" y="350" type="curve" smooth="yes"/>
			<point x="561" y="471" type="line"/>
			<point x="582" y="609" type="line"/>
			<point x="89" y="400" type="line"/>
			<point x="67" y="257" type="line"/>
		</contour>
	</outline>
</glyph>
<glyph name="equal" format="2">
	<advance width="600"/>
	<unicode hex="003D"/>
	<outline>
		<contour>
			<point x="97" y="385" type="line"/>
			<point x="537" y="385" type="line"/>
			<point x="559" y="525" type="line"/>
			<point x="119" y="525" type="line"/>
		</contour>
		<contour>
			<point x="57" y="135" type="line"/>
			<point x="497" y="135" type="line"/>
			<point x="520" y="275" type="line"/>
			<point x="80" y="275" type="line"/>
		</contour>
	</outline>
</glyph>
<glyph name="greater" format="2">
	<advance width="600"/>
	<unicode hex="003E"/>
	<outline>
		<contour>
			<point x="34" y="49" type="line"/>
			<point x="527" y="258" type="line"/>
			<point x="550" y="401" type="line"/>
			<point x="122" y="609" type="line"/>
			<point x="101" y="474" type="line"/>
			<point x="358" y="353" type="line" smooth="yes"/>
			<point x="392" y="337"/>
			<point x="431" y="331"/>
			<point x="431" y="331" type="curve"/>
			<point x="431" y="331"/>
			<point x="390" y="324"/>
			<point x="351" y="308" type="curve" smooth="yes"/>
			<point x="56" y="187" type="line"/>
		</contour>
	</outline>
</glyph>
<glyph name="question" format="2">
	<advance width="600"/>
	<unicode hex="003F"/>
	<outline>
		<contour>
			<point x="173" y="225" type="line"/>
			<point x="298" y="225" type="line"/>
			<point x="310" y="305" type="line"/>
			<point x="436" y="305"/>
			<point x="533" y="389"/>
			<point x="553" y="515" type="curve" smooth="yes"/>
			<point x="573" y="646"/>
			<point x="489" y="730"/>
			<point x="337" y="730" type="curve" smooth="yes"/>
			<point x="182" y="730" type="line"/>
			<point x="159" y="590" type="line"/>
			<point x="324" y="590" type="line" smooth="yes"/>
			<point x="380" y="590"/>
			<point x="410" y="561"/>
			<point x="403" y="515" type="curve" smooth="yes"/>
			<point x="395" y="470"/>
			<point x="355" y="440"/>
			<point x="302" y="440" type="curve" smooth="yes"/>
			<point x="202" y="440" type="line"/>
		</contour>
		<contour>
			<point x="184" y="-5" type="curve" smooth="yes"/>
			<point x="213" y="-5" type="line" smooth="yes"/>
			<point x="259" y="-5"/>
			<point x="293" y="22"/>
			<point x="300" y="65" type="curve" smooth="yes"/>
			<point x="307" y="107"/>
			<point x="281" y="135"/>
			<point x="236" y="135" type="curve" smooth="yes"/>
			<point x="206" y="135" type="line" smooth="yes"/>
			<point x="161" y="135"/>
			<point x="127" y="107"/>
			<point x="120" y="65" type="curve" smooth="yes"/>
			<point x="114" y="23"/>
			<point x="139" y="-5"/>
		</contour>
	</outline>
</glyph>
<glyph name="at" format="2">
	<advance width="600"/>
	<unicode hex="0040"/>
	<outline>
		<contour>
			<point x="253" y="-179" type="curve" smooth="yes"/>
			<point x="323" y="-179" type="line"/>
			<point x="340" y="-69" type="line"/>
			<point x="270" y="-69" type="line" smooth="yes"/>
			<point x="154" y="-69"/>
			<point x="100" y="-5"/>
			<point x="119" y="111" type="curve" smooth="yes"/>
			<point x="172" y="450" type="line" smooth="yes"/>
			<point x="191" y="569"/>
			<point x="264" y="635"/>
			<point x="372" y="635" type="curve" smooth="yes"/>
			<point x="463" y="635"/>
			<point x="507" y="572"/>
			<point x="495" y="500" type="curve" smooth="yes"/>
			<point x="494" y="490" type="line"/>
			<point x="502" y="420" type="line"/>
			<point x="468" y="420" type="line"/>
			<point x="479" y="400" type="line"/>
			<point x="488" y="457"/>
			<point x="450" y="495"/>
			<point x="384" y="495" type="curve" smooth="yes"/>
			<point x="302" y="495"/>
			<point x="245" y="434"/>
			<point x="228" y="330" type="curve" smooth="yes"/>
			<point x="211" y="220" type="line" smooth="yes"/>
			<point x="194" y="116"/>
			<point x="233" y="55"/>
			<point x="315" y="55" type="curve" smooth="yes"/>
			<point x="381" y="55"/>
			<point x="431" y="93"/>
			<point x="440" y="151" type="curve"/>
			<point x="422" y="120" type="line"/>
			<point x="454" y="120" type="line"/>
			<point x="435" y="65" type="line"/>
			<point x="546" y="65" type="line"/>
			<point x="615" y="500" type="line" smooth="yes"/>
			<point x="637" y="638"/>
			<point x="554" y="740"/>
			<point x="388" y="740" type="curve" smooth="yes"/>
			<point x="208" y="740"/>
			<point x="81" y="630"/>
			<point x="52" y="450" type="curve" smooth="yes"/>
			<point x="-1" y="111" type="line" smooth="yes"/>
			<point x="-30" y="-69"/>
			<point x="67" y="-179"/>
		</contour>
		<contour>
			<point x="378" y="140" type="curve" smooth="yes"/>
			<point x="339" y="140"/>
			<point x="322" y="162"/>
			<point x="331" y="220" type="curve" smooth="yes"/>
			<point x="348" y="330" type="line" smooth="yes"/>
			<point x="356" y="381"/>
			<point x="382" y="410"/>
			<point x="421" y="410" type="curve" smooth="yes"/>
			<point x="459" y="410"/>
			<point x="476" y="381"/>
			<point x="468" y="330" type="curve" smooth="yes"/>
			<point x="451" y="220" type="line" smooth="yes"/>
			<point x="441" y="161"/>
			<point x="420" y="140"/>
		</contour>
	</outline>
</glyph>
<glyph name="A" format="2">
	<advance width="600"/>
	<unicode hex="0041"/>
	<outline>
		<contour>
			<point x="-19" y="0" type="line"/>
			<point x="138" y="0" type="line"/>
			<point x="199" y="165" type="line"/>
			<point x="373" y="165" type="line"/>
			<point x="382" y="0" type="line"/>
			<point x="531" y="0" type="line"/>
			<point x="466" y="730" type="line"/>
			<point x="276" y="730" type="line"/>
		</contour>
		<contour>
			<point x="243" y="285" type="line"/>
			<point x="308" y="462" type="line" smooth="yes"/>
			<point x="333" y="531"/>
			<point x="353" y="595"/>
			<point x="353" y="595" type="curve"/>
			<point x="353" y="595"/>
			<point x="356" y="531"/>
			<point x="359" y="461" type="curve" smooth="yes"/>
			<point x="366" y="285" type="line"/>
		</contour>
	</outline>
</glyph>
<glyph name="B" format="2">
	<advance width="600"/>
	<unicode hex="0042"/>
	<outline>
		<contour>
			<point x="22" y="0" type="line"/>
			<point x="266" y="0" type="line" smooth="yes"/>
			<point x="419" y="0"/>
			<point x="529" y="83"/>
			<point x="549" y="211" type="curve" smooth="yes"/>
			<point x="567" y="323"/>
			<point x="495" y="397"/>
			<point x="369" y="395" type="curve"/>
			<point x="367" y="385" type="line"/>
			<point x="485" y="385"/>
			<point x="574" y="448"/>
			<point x="589" y="543" type="curve" smooth="yes"/>
			<point x="607" y="657"/>
			<point x="524" y="730"/>
			<point x="376" y="730" type="curve" smooth="yes"/>
			<point x="138" y="730" type="line"/>
		</contour>
		<contour>
			<point x="279" y="121" type="curve" smooth="yes"/>
			<point x="186" y="121" type="line"/>
			<point x="217" y="318" type="line"/>
			<point x="310" y="318" type="line" smooth="yes"/>
			<point x="376" y="318"/>
			<point x="409" y="280"/>
			<point x="400" y="219" type="curve" smooth="yes"/>
			<point x="390" y="158"/>
			<point x="344" y="121"/>
		</contour>
		<contour>
			<point x="327" y="436" type="curve" smooth="yes"/>
			<point x="236" y="436" type="line"/>
			<point x="263" y="609" type="line"/>
			<point x="354" y="609" type="line" smooth="yes"/>
			<point x="413" y="609"/>
			<point x="443" y="577"/>
			<point x="435" y="523" type="curve" smooth="yes"/>
			<point x="426" y="469"/>
			<point x="385" y="436"/>
		</contour>
	</outline>
</glyph>
<glyph name="D" format="2">
	<advance width="600"/>
	<unicode hex="0044"/>
	<outline>
		<contour>
			<point x="19" y="0" type="line"/>
			<point x="256" y="0" type="line" smooth="yes"/>
			<point x="407" y="0"/>
			<point x="523" y="94"/>
			<point x="545" y="235" type="curve" smooth="yes"/>
			<point x="587" y="496" type="line" smooth="yes"/>
			<point x="609" y="637"/>
			<point x="523" y="730"/>
			<point x="372" y="730" type="curve" smooth="yes"/>
			<point x="135" y="730" type="line"/>
		</contour>
		<contour>
			<point x="278" y="140" type="curve" smooth="yes"/>
			<point x="191" y="140" type="line"/>
			<point x="262" y="590" type="line"/>
			<point x="349" y="590" type="line" smooth="yes"/>
			<point x="410" y="590"/>
			<point x="445" y="552"/>
			<point x="437" y="496" type="curve" smooth="yes"/>
			<point x="395" y="235" type="line" smooth="yes"/>
			<point x="386" y="178"/>
			<point x="339" y="140"/>
		</contour>
	</outline>
</glyph>
<glyph name="E" format="2">
	<advance width="600"/>
	<unicode hex="0045"/>
	<outline>
		<contour>
			<point x="36" y="0" type="line"/>
			<point x="486" y="0" type="line"/>
			<point x="506" y="128" type="line"/>
			<point x="203" y="128" type="line"/>
			<point x="232" y="310" type="line"/>
			<point x="500" y="310" type="line"/>
			<point x="520" y="438" type="line"/>
			<point x="252" y="438" type="line"/>
			<point x="278" y="602" type="line"/>
			<point x="581" y="602" type="line"/>
			<point x="602" y="730" type="line"/>
			<point x="152" y="730" type="line"/>
		</contour>
	</outline>
</glyph>
<glyph name="F" format="2">
	<advance width="600"/>
	<unicode hex="0046"/>
	<outline>
		<contour>
			<point x="26" y="0" type="line"/>
			<point x="176" y="0" type="line"/>
			<point x="222" y="288" type="line"/>
			<point x="516" y="288" type="line"/>
			<point x="538" y="428" type="line"/>
			<point x="242" y="428" type="line"/>
			<point x="267" y="590" type="line"/>
			<point x="589" y="590" type="line"/>
			<point x="612" y="730" type="line"/>
			<point x="142" y="730" type="line"/>
		</contour>
	</outline>
</glyph>
<glyph name="H" format="2">
	<advance width="600"/>
	<unicode hex="0048"/>
	<outline>
		<contour>
			<point x="22" y="0" type="line"/>
			<point x="172" y="0" type="line"/>
			<point x="221" y="310" type="line"/>
			<point x="389" y="310" type="line"/>
			<point x="340" y="0" type="line"/>
			<point x="490" y="0" type="line"/>
			<point x="606" y="730" type="line"/>
			<point x="456" y="730" type="line"/>
			<point x="411" y="450" type="line"/>
			<point x="243" y="450" type="line"/>
			<point x="288" y="730" type="line"/>
			<point x="138" y="730" type="line"/>
		</contour>
	</outline>
</glyph>
<glyph name="I" format="2">
	<advance width="600"/>
	<unicode hex="0049"/>
	<outline>
		<contour>
			<point x="31" y="0" type="line"/>
			<point x="481" y="0" type="line"/>
			<point x="502" y="130" type="line"/>
			<point x="352" y="130" type="line"/>
			<point x="426" y="600" type="line"/>
			<point x="576" y="600" type="line"/>
			<point x="597" y="730" type="line"/>
			<point x="147" y="730" type="line"/>
			<point x="126" y="600" type="line"/>
			<point x="276" y="600" type="line"/>
			<point x="202" y="130" type="line"/>
			<point x="52" y="130" type="line"/>
		</contour>
	</outline>
</glyph>
<glyph name="J" format="2">
	<advance width="600"/>
	<unicode hex="004A"/>
	<outline>
		<contour>
			<point x="225" y="-11" type="curve" smooth="yes"/>
			<point x="379" y="-11"/>
			<point x="489" y="77"/>
			<point x="511" y="218" type="curve" smooth="yes"/>
			<point x="592" y="730" type="line"/>
			<point x="277" y="730" type="line"/>
			<point x="255" y="590" type="line"/>
			<point x="420" y="590" type="line"/>
			<point x="361" y="218" type="line" smooth="yes"/>
			<point x="351" y="158"/>
			<point x="307" y="119"/>
			<point x="246" y="119" type="curve" smooth="yes"/>
			<point x="184" y="119"/>
			<point x="152" y="158"/>
			<point x="162" y="220" type="curve"/>
			<point x="12" y="220" type="line"/>
			<point x="-11" y="80"/>
			<point x="73" y="-11"/>
		</contour>
	</outline>
</glyph>
<glyph name="K" format="2">
	<advance width="600"/>
	<unicode hex="004B"/>
	<outline>
		<contour>
			<point x="21" y="0" type="line"/>
			<point x="171" y="0" type="line"/>
			<point x="220" y="311" type="line"/>
			<point x="294" y="311" type="line"/>
			<point x="368" y="0" type="line"/>
			<point x="531" y="0" type="line"/>
			<point x="432" y="375" type="line"/>
			<point x="641" y="730" type="line"/>
			<point x="479" y="730" type="line"/>
			<point x="312" y="449" type="line"/>
			<point x="242" y="449" type="line"/>
			<point x="287" y="730" type="line"/>
			<point x="137" y="730" type="line"/>
		</contour>
	</outline>
</glyph>
<glyph name="L" format="2">
	<advance width="600"/>
	<unicode hex="004C"/>
	<outline>
		<contour>
			<point x="51" y="0" type="line"/>
			<point x="496" y="0" type="line"/>
			<point x="518" y="140" type="line"/>
			<point x="223" y="140" type="line"/>
			<point x="317" y="730" type="line"/>
			<point x="167" y="730" type="line"/>
		</contour>
	</outline>
</glyph>
<glyph name="M" format="2">
	<advance width="600"/>
	<unicode hex="004D"/>
	<outline>
		<contour>
			<point x="-2" y="0" type="line"/>
			<point x="135" y="0" type="line"/>
			<point x="179" y="280" type="line" smooth="yes"/>
			<point x="200" y="410"/>
			<point x="209" y="650"/>
			<point x="209" y="650" type="curve"/>
			<point x="241" y="300" type="line"/>
			<point x="368" y="300" type="line"/>
			<point x="506" y="650" type="line"/>
			<point x="506" y="650"/>
			<point x="440" y="400"/>
			<point x="421" y="280" type="curve" smooth="yes"/>
			<point x="377" y="0" type="line"/>
			<point x="514" y="0" type="line"/>
			<point x="630" y="730" type="line"/>
			<point x="461" y="730" type="line"/>
			<point x="357" y="490" type="line" smooth="yes"/>
			<point x="329" y="424"/>
			<point x="318" y="384"/>
			<point x="318" y="384" type="curve"/>
			<point x="318" y="384"/>
			<point x="320" y="424"/>
			<point x="312" y="490" type="curve" smooth="yes"/>
			<point x="283" y="730" type="line"/>
			<point x="114" y="730" type="line"/>
		</contour>
	</outline>
</glyph>
<glyph name="N" format="2">
	<advance width="600"/>
	<unicode hex="004E"/>
	<outline>
		<contour>
			<point x="16" y="0" type="line"/>
			<point x="148" y="0" type="line"/>
			<point x="199" y="320" type="line" smooth="yes"/>
			<point x="214" y="415"/>
			<point x="224" y="565"/>
			<point x="223" y="565" type="curve"/>
			<point x="321" y="0" type="line"/>
			<point x="496" y="0" type="line"/>
			<point x="612" y="730" type="line"/>
			<point x="480" y="730" type="line"/>
			<point x="432" y="430" type="line" smooth="yes"/>
			<point x="417" y="335"/>
			<point x="406" y="165"/>
			<point x="406" y="165" type="curve"/>
			<point x="307" y="730" type="line"/>
			<point x="132" y="730" type="line"/>
		</contour>
	</outline>
</glyph>
<glyph name="O" format="2">
	<advance width="600"/>
	<unicode hex="004F"/>
	<outline>
		<contour>
			<point x="254" y="-10" type="curve" smooth="yes"/>
			<point x="405" y="-10"/>
			<point x="507" y="71"/>
			<point x="529" y="210" type="curve" smooth="yes"/>
			<point x="578" y="520" type="line" smooth="yes"/>
			<point x="599" y="652"/>
			<point x="521" y="740"/>
			<point x="373" y="740" type="curve" smooth="yes"/>
			<point x="223" y="740"/>
			<point x="120" y="658"/>
			<point x="98" y="520" type="curve" smooth="yes"/>
			<point x="49" y="210" type="line" smooth="yes"/>
			<point x="28" y="78"/>
			<point x="107" y="-10"/>
		</contour>
		<contour>
			<point x="275" y="120" type="curve" smooth="yes"/>
			<point x="215" y="120"/>
			<point x="190" y="152"/>
			<point x="199" y="210" type="curve" smooth="yes"/>
			<point x="248" y="520" type="line" smooth="yes"/>
			<point x="257" y="578"/>
			<point x="294" y="610"/>
			<point x="353" y="610" type="curve" smooth="yes"/>
			<point x="414" y="610"/>
			<point x="438" y="578"/>
			<point x="428" y="520" type="curve" smooth="yes"/>
			<point x="379" y="210" type="line" smooth="yes"/>
			<point x="370" y="152"/>
			<point x="333" y="120"/>
		</contour>
	</outline>
</glyph>
<glyph name="P" format="2">
	<advance width="600"/>
	<unicode hex="0050"/>
	<outline>
		<contour>
			<point x="22" y="0" type="line"/>
			<point x="172" y="0" type="line"/>
			<point x="214" y="266" type="line"/>
			<point x="313" y="266" type="line" smooth="yes"/>
			<point x="466" y="266"/>
			<point x="583" y="359"/>
			<point x="605" y="498" type="curve" smooth="yes"/>
			<point x="627" y="638"/>
			<point x="540" y="730"/>
			<point x="387" y="730" type="curve" smooth="yes"/>
			<point x="138" y="730" type="line"/>
		</contour>
		<contour>
			<point x="335" y="401" type="curve" smooth="yes"/>
			<point x="236" y="401" type="line"/>
			<point x="266" y="595" type="line"/>
			<point x="365" y="595" type="line" smooth="yes"/>
			<point x="429" y="595"/>
			<point x="464" y="557"/>
			<point x="455" y="498" type="curve" smooth="yes"/>
			<point x="446" y="439"/>
			<point x="399" y="401"/>
		</contour>
	</outline>
</glyph>
<glyph name="Q" format="2">
	<advance width="600"/>
	<unicode hex="0051"/>
	<outline>
		<contour>
			<point x="327" y="-180" type="line"/>
			<point x="483" y="-180" type="line"/>
			<point x="392" y="20" type="line"/>
			<point x="466" y="55"/>
			<point x="516" y="123"/>
			<point x="529" y="210" type="curve" smooth="yes"/>
			<point x="578" y="520" type="line" smooth="yes"/>
			<point x="599" y="652"/>
			<point x="517" y="740"/>
			<point x="373" y="740" type="curve" smooth="yes"/>
			<point x="228" y="740"/>
			<point x="119" y="653"/>
			<point x="98" y="520" type="curve" smooth="yes"/>
			<point x="49" y="210" type="line" smooth="yes"/>
			<point x="29" y="79"/>
			<point x="110" y="-10"/>
			<point x="254" y="-10" type="curve" smooth="yes"/>
			<point x="262" y="-10"/>
			<point x="274" y="-9"/>
			<point x="274" y="-9" type="curve"/>
			<point x="245" y="4" type="line"/>
		</contour>
		<contour>
			<point x="275" y="121" type="curve" smooth="yes"/>
			<point x="213" y="121"/>
			<point x="190" y="153"/>
			<point x="199" y="210" type="curve" smooth="yes"/>
			<point x="248" y="520" type="line" smooth="yes"/>
			<point x="257" y="578"/>
			<point x="295" y="610"/>
			<point x="353" y="610" type="curve" smooth="yes"/>
			<point x="411" y="610"/>
			<point x="438" y="578"/>
			<point x="428" y="520" type="curve" smooth="yes"/>
			<point x="379" y="210" type="line" smooth="yes"/>
			<point x="370" y="153"/>
			<point x="337" y="121"/>
		</contour>
	</outline>
</glyph>
<glyph name="R" format="2">
	<advance width="600"/>
	<unicode hex="0052"/>
	<outline>
		<contour>
			<point x="21" y="0" type="line"/>
			<point x="170" y="0" type="line"/>
			<point x="214" y="276" type="line"/>
			<point x="284" y="276" type="line"/>
			<point x="358" y="0" type="line"/>
			<point x="521" y="0" type="line"/>
			<point x="431" y="300" type="line"/>
			<point x="514" y="333"/>
			<point x="576" y="413"/>
			<point x="591" y="508" type="curve" smooth="yes"/>
			<point x="613" y="644"/>
			<point x="527" y="730"/>
			<point x="372" y="730" type="curve" smooth="yes"/>
			<point x="137" y="730" type="line"/>
		</contour>
		<contour>
			<point x="320" y="406" type="curve" smooth="yes"/>
			<point x="234" y="406" type="line"/>
			<point x="265" y="600" type="line"/>
			<point x="351" y="600" type="line" smooth="yes"/>
			<point x="417" y="600"/>
			<point x="450" y="563"/>
			<point x="440" y="501" type="curve" smooth="yes"/>
			<point x="431" y="441"/>
			<point x="386" y="406"/>
		</contour>
	</outline>
</glyph>
<glyph name="T" format="2">
	<advance width="600"/>
	<unicode hex="0054"/>
	<outline>
		<contour>
			<point x="181" y="0" type="line"/>
			<point x="331" y="0" type="line"/>
			<point x="424" y="590" type="line"/>
			<point x="609" y="590" type="line"/>
			<point x="632" y="730" type="line"/>
			<point x="112" y="730" type="line"/>
			<point x="89" y="590" type="line"/>
			<point x="274" y="590" type="line"/>
		</contour>
	</outline>
</glyph>
<glyph name="U" format="2">
	<advance width="600"/>
	<unicode hex="0055"/>
	<outline>
		<contour>
			<point x="254" y="-10" type="curve" smooth="yes"/>
			<point x="402" y="-10"/>
			<point x="508" y="76"/>
			<point x="530" y="214" type="curve" smooth="yes"/>
			<point x="612" y="730" type="line"/>
			<point x="462" y="730" type="line"/>
			<point x="380" y="215" type="line" smooth="yes"/>
			<point x="370" y="154"/>
			<point x="331" y="120"/>
			<point x="275" y="120" type="curve" smooth="yes"/>
			<point x="218" y="120"/>
			<point x="190" y="154"/>
			<point x="200" y="215" type="curve" smooth="yes"/>
			<point x="282" y="730" type="line"/>
			<point x="132" y="730" type="line"/>
			<point x="50" y="214" type="line" smooth="yes"/>
			<point x="28" y="75"/>
			<point x="106" y="-10"/>
		</contour>
	</outline>
</glyph>
<glyph name="V" format="2">
	<advance width="600"/>
	<unicode hex="0056"/>
	<outline>
		<contour>
			<point x="162" y="0" type="line"/>
			<point x="352" y="0" type="line"/>
			<point x="647" y="730" type="line"/>
			<point x="492" y="730" type="line"/>
			<point x="321" y="270" type="line" smooth="yes"/>
			<point x="304" y="225"/>
			<point x="280" y="145"/>
			<point x="280" y="145" type="curve"/>
			<point x="280" y="145"/>
			<point x="279" y="225"/>
			<point x="276" y="269" type="curve" smooth="yes"/>
			<point x="248" y="730" type="line"/>
			<point x="97" y="730" type="line"/>
		</contour>
	</outline>
</glyph>
<glyph name="W" format="2">
	<advance width="600"/>
	<unicode hex="0057"/>
	<outline>
		<contour>
			<point x="34" y="0" type="line"/>
			<point x="191" y="0" type="line"/>
			<point x="322" y="485" type="line" smooth="yes"/>
			<point x="334" y="532"/>
			<point x="357" y="645"/>
			<point x="357" y="645" type="curve"/>
			<point x="357" y="645"/>
			<point x="348" y="532"/>
			<point x="345" y="485" type="curve" smooth="yes"/>
			<point x="317" y="0" type="line"/>
			<point x="473" y="0" type="line"/>
			<point x="662" y="730" type="line"/>
			<point x="538" y="730" type="line"/>
			<point x="426" y="242" type="line" smooth="yes"/>
			<point x="417" y="202"/>
			<point x="397" y="95"/>
			<point x="397" y="95" type="curve"/>
			<point x="397" y="95"/>
			<point x="402" y="202"/>
			<point x="404" y="242" type="curve" smooth="yes"/>
			<point x="430" y="730" type="line"/>
			<point x="314" y="730" type="line"/>
			<point x="182" y="242" type="line" smooth="yes"/>
			<point x="172" y="202"/>
			<point x="145" y="95"/>
			<point x="145" y="95" type="curve"/>
			<point x="145" y="95"/>
			<point x="159" y="202"/>
			<point x="162" y="242" type="curve" smooth="yes"/>
			<point x="203" y="730" type="line"/>
			<point x="82" y="730" type="line"/>
		</contour>
	</outline>
</glyph>
<glyph name="X" format="2">
	<advance width="600"/>
	<unicode hex="0058"/>
	<outline>
		<contour>
			<point x="-24" y="0" type="line"/>
			<point x="140" y="0" type="line"/>
			<point x="257" y="180" type="line" smooth="yes"/>
			<point x="282" y="220"/>
			<point x="296" y="250"/>
			<point x="296" y="250" type="curve"/>
			<point x="296" y="250"/>
			<point x="302" y="220"/>
			<point x="315" y="180" type="curve" smooth="yes"/>
			<point x="374" y="0" type="line"/>
			<point x="536" y="0" type="line"/>
			<point x="399" y="375" type="line"/>
			<point x="639" y="730" type="line"/>
			<point x="475" y="730" type="line"/>
			<point x="371" y="570" type="line" smooth="yes"/>
			<point x="346" y="530"/>
			<point x="335" y="504"/>
			<point x="335" y="504" type="curve"/>
			<point x="335" y="504"/>
			<point x="330" y="530"/>
			<point x="317" y="570" type="curve" smooth="yes"/>
			<point x="267" y="730" type="line"/>
			<point x="105" y="730" type="line"/>
			<point x="232" y="379" type="line"/>
		</contour>
	</outline>
</glyph>
<glyph name="Y" format="2">
	<advance width="600"/>
	<unicode hex="0059"/>
	<outline>
		<contour>
			<point x="181" y="0" type="line"/>
			<point x="331" y="0" type="line"/>
			<point x="372" y="260" type="line"/>
			<point x="657" y="730" type="line"/>
			<point x="499" y="730" type="line"/>
			<point x="375" y="510" type="line" smooth="yes"/>
			<point x="341" y="450"/>
			<point x="318" y="380"/>
			<point x="318" y="380" type="curve"/>
			<point x="318" y="380"/>
			<point x="314" y="450"/>
			<point x="299" y="510" type="curve" smooth="yes"/>
			<point x="242" y="730" type="line"/>
			<point x="87" y="730" type="line"/>
			<point x="222" y="260" type="line"/>
		</contour>
	</outline>
</glyph>
<glyph name="Z" format="2">
	<advance width="600"/>
	<unicode hex="005A"/>
	<outline>
		<contour>
			<point x="31" y="0" type="line"/>
			<point x="481" y="0" type="line"/>
			<point x="503" y="140" type="line"/>
			<point x="221" y="140" type="line"/>
			<point x="563" y="590" type="line"/>
			<point x="586" y="730" type="line"/>
			<point x="155" y="730" type="line"/>
			<point x="132" y="590" type="line"/>
			<point x="394" y="590" type="line"/>
			<point x="53" y="140" type="line"/>
		</contour>
	</outline>
</glyph>
<glyph name="bracketleft" format="2">
	<advance width="600"/>
	<unicode hex="005B"/>
	<outline>
		<contour>
			<point x="109" y="-110" type="line"/>
			<point x="414" y="-110" type="line"/>
			<point x="436" y="30" type="line"/>
			<point x="281" y="30" type="line"/>
			<point x="385" y="690" type="line"/>
			<point x="540" y="690" type="line"/>
			<point x="562" y="830" type="line"/>
			<point x="257" y="830" type="line"/>
		</contour>
	</outline>
</glyph>
<glyph name="backslash" format="2">
	<advance width="600"/>
	<unicode hex="005C"/>
	<outline>
		<contour>
			<point x="336" y="-110" type="line"/>
			<point x="486" y="-110" type="line"/>
			<point x="288" y="830" type="line"/>
			<point x="138" y="830" type="line"/>
		</contour>
	</outline>
</glyph>
<glyph name="bracketright" format="2">
	<advance width="600"/>
	<unicode hex="005D"/>
	<guideline x="-88" y="845" angle="0"/>
	<outline>
		<contour>
			<point x="64" y="-110" type="line"/>
			<point x="369" y="-110" type="line"/>
			<point x="517" y="830" type="line"/>
			<point x="212" y="830" type="line"/>
			<point x="190" y="690" type="line"/>
			<point x="345" y="690" type="line"/>
			<point x="241" y="30" type="line"/>
			<point x="86" y="30" type="line"/>
		</contour>
	</outline>
</glyph>
<glyph name="asciicircum" format="2">
	<advance width="600"/>
	<unicode hex="005E"/>
	<outline>
		<contour>
			<point x="70" y="340" type="line"/>
			<point x="217" y="340" type="line"/>
			<point x="330" y="550" type="line" smooth="yes"/>
			<point x="352" y="591"/>
			<point x="360" y="622"/>
			<point x="360" y="622" type="curve"/>
			<point x="360" y="622"/>
			<point x="361" y="591"/>
			<point x="370" y="550" type="curve" smooth="yes"/>
			<point x="414" y="340" type="line"/>
			<point x="550" y="340" type="line"/>
			<point x="446" y="730" type="line"/>
			<point x="300" y="730" type="line"/>
		</contour>
	</outline>
</glyph>
<glyph name="a" format="2">
	<advance width="600"/>
	<unicode hex="0061"/>
	<outline>
		<contour>
			<point x="187" y="-10" type="curve" smooth="yes"/>
			<point x="279" y="-10"/>
			<point x="335" y="45"/>
			<point x="350" y="140" type="curve"/>
			<point x="314" y="125" type="line"/>
			<point x="349" y="125" type="line"/>
			<point x="337" y="50"/>
			<point x="374" y="0"/>
			<point x="442" y="0" type="curve" smooth="yes"/>
			<point x="546" y="0" type="line"/>
			<point x="564" y="114" type="line"/>
			<point x="520" y="114" type="line" smooth="yes"/>
			<point x="506" y="114"/>
			<point x="493" y="126"/>
			<point x="495" y="140" type="curve" smooth="yes"/>
			<point x="559" y="550" type="line"/>
			<point x="415" y="550" type="line"/>
			<point x="398" y="445" type="line"/>
			<point x="364" y="445" type="line"/>
			<point x="393" y="410" type="line"/>
			<point x="408" y="505"/>
			<point x="369" y="560"/>
			<point x="277" y="560" type="curve" smooth="yes"/>
			<point x="166" y="560"/>
			<point x="91" y="476"/>
			<point x="69" y="345" type="curve" smooth="yes"/>
			<point x="46" y="205" type="line" smooth="yes"/>
			<point x="24" y="74"/>
			<point x="77" y="-10"/>
		</contour>
		<contour>
			<point x="262" y="118" type="curve" smooth="yes"/>
			<point x="209" y="118"/>
			<point x="186" y="149"/>
			<point x="196" y="210" type="curve" smooth="yes"/>
			<point x="217" y="340" type="line" smooth="yes"/>
			<point x="227" y="401"/>
			<point x="258" y="432"/>
			<point x="311" y="432" type="curve" smooth="yes"/>
			<point x="358" y="432"/>
			<point x="386" y="394"/>
			<point x="377" y="340" type="curve" smooth="yes"/>
			<point x="356" y="210" type="line" smooth="yes"/>
			<point x="346" y="150"/>
			<point x="314" y="118"/>
		</contour>
	</outline>
</glyph>
<glyph name="b" format="2">
	<advance width="600"/>
	<unicode hex="0062"/>
	<outline>
		<contour>
			<point x="312" y="-10" type="curve" smooth="yes"/>
			<point x="423" y="-10"/>
			<point x="508" y="73"/>
			<point x="528" y="205" type="curve" smooth="yes"/>
			<point x="551" y="345" type="line" smooth="yes"/>
			<point x="571" y="476"/>
			<point x="512" y="560"/>
			<point x="402" y="560" type="curve" smooth="yes"/>
			<point x="311" y="560"/>
			<point x="247" y="505"/>
			<point x="232" y="410" type="curve"/>
			<point x="272" y="445" type="line"/>
			<point x="237" y="445" type="line"/>
			<point x="264" y="580" type="line"/>
			<point x="288" y="730" type="line"/>
			<point x="138" y="730" type="line"/>
			<point x="22" y="0" type="line"/>
			<point x="167" y="0" type="line"/>
			<point x="184" y="105" type="line"/>
			<point x="218" y="105" type="line"/>
			<point x="189" y="140" type="line"/>
			<point x="174" y="45"/>
			<point x="220" y="-10"/>
		</contour>
		<contour>
			<point x="278" y="120" type="curve" smooth="yes"/>
			<point x="223" y="120"/>
			<point x="196" y="152"/>
			<point x="205" y="210" type="curve" smooth="yes"/>
			<point x="226" y="340" type="line" smooth="yes"/>
			<point x="235" y="397"/>
			<point x="272" y="430"/>
			<point x="327" y="430" type="curve" smooth="yes"/>
			<point x="383" y="430"/>
			<point x="409" y="397"/>
			<point x="400" y="340" type="curve" smooth="yes"/>
			<point x="379" y="210" type="line" smooth="yes"/>
			<point x="370" y="152"/>
			<point x="334" y="120"/>
		</contour>
	</outline>
</glyph>
<glyph name="c" format="2">
	<advance width="600"/>
	<unicode hex="0063"/>
	<outline>
		<contour>
			<point x="257" y="-10" type="curve" smooth="yes"/>
			<point x="402" y="-10"/>
			<point x="508" y="68"/>
			<point x="533" y="195" type="curve"/>
			<point x="383" y="195" type="line"/>
			<point x="371" y="147"/>
			<point x="333" y="120"/>
			<point x="278" y="120" type="curve" smooth="yes"/>
			<point x="218" y="120"/>
			<point x="190" y="152"/>
			<point x="199" y="210" type="curve" smooth="yes"/>
			<point x="220" y="340" type="line" smooth="yes"/>
			<point x="229" y="398"/>
			<point x="267" y="430"/>
			<point x="327" y="430" type="curve" smooth="yes"/>
			<point x="381" y="430"/>
			<point x="412" y="402"/>
			<point x="408" y="355" type="curve"/>
			<point x="558" y="355" type="line"/>
			<point x="573" y="482"/>
			<point x="493" y="560"/>
			<point x="348" y="560" type="curve" smooth="yes"/>
			<point x="201" y="560"/>
			<point x="91" y="473"/>
			<point x="70" y="340" type="curve" smooth="yes"/>
			<point x="49" y="210" type="line" smooth="yes"/>
			<point x="28" y="77"/>
			<point x="110" y="-10"/>
		</contour>
	</outline>
</glyph>
<glyph name="e" format="2">
	<advance width="600"/>
	<unicode hex="0065"/>
	<outline>
		<contour>
			<point x="255" y="-10" type="curve" smooth="yes"/>
			<point x="374" y="-10"/>
			<point x="476" y="54"/>
			<point x="515" y="150" type="curve"/>
			<point x="368" y="150" type="line"/>
			<point x="355" y="122"/>
			<point x="323" y="105"/>
			<point x="276" y="105" type="curve" smooth="yes"/>
			<point x="208" y="105"/>
			<point x="181" y="141"/>
			<point x="192" y="210" type="curve" smooth="yes"/>
			<point x="197" y="240" type="line"/>
			<point x="534" y="240" type="line"/>
			<point x="550" y="340" type="line" smooth="yes"/>
			<point x="571" y="472"/>
			<point x="492" y="560"/>
			<point x="346" y="560" type="curve" smooth="yes"/>
			<point x="199" y="560"/>
			<point x="91" y="472"/>
			<point x="70" y="340" type="curve" smooth="yes"/>
			<point x="49" y="210" type="line" smooth="yes"/>
			<point x="28" y="78"/>
			<point x="108" y="-10"/>
		</contour>
		<contour>
			<point x="407" y="340" type="curve" smooth="yes"/>
			<point x="403" y="315" type="line"/>
			<point x="414" y="325" type="line"/>
			<point x="210" y="325" type="line"/>
			<point x="213" y="340" type="line" smooth="yes"/>
			<point x="224" y="408"/>
			<point x="262" y="445"/>
			<point x="327" y="445" type="curve" smooth="yes"/>
			<point x="393" y="445"/>
			<point x="418" y="408"/>
		</contour>
	</outline>
</glyph>
<glyph name="f" format="2">
	<advance width="600"/>
	<unicode hex="0066"/>
	<outline>
		<contour>
			<point x="-73" y="-180" type="line"/>
			<point x="48" y="-180" type="line" smooth="yes"/>
			<point x="186" y="-180"/>
			<point x="286" y="-96"/>
			<point x="307" y="40" type="curve" smooth="yes"/>
			<point x="364" y="395" type="line"/>
			<point x="564" y="395" type="line"/>
			<point x="585" y="530" type="line"/>
			<point x="385" y="530" type="line"/>
			<point x="390" y="560" type="line" smooth="yes"/>
			<point x="394" y="584"/>
			<point x="410" y="600"/>
			<point x="436" y="600" type="curve" smooth="yes"/>
			<point x="596" y="600" type="line"/>
			<point x="617" y="730" type="line"/>
			<point x="452" y="730" type="line" smooth="yes"/>
			<point x="339" y="730"/>
			<point x="256" y="665"/>
			<point x="240" y="565" type="curve" smooth="yes"/>
			<point x="235" y="530" type="line"/>
			<point x="90" y="530" type="line"/>
			<point x="69" y="395" type="line"/>
			<point x="214" y="395" type="line"/>
			<point x="158" y="45" type="line" smooth="yes"/>
			<point x="150" y="-9"/>
			<point x="114" y="-40"/>
			<point x="60" y="-40" type="curve" smooth="yes"/>
			<point x="-50" y="-40" type="line"/>
		</contour>
	</outline>
</glyph>
<glyph name="g" format="2">
	<advance width="600"/>
	<unicode hex="0067"/>
	<outline>
		<contour>
			<point x="72" y="-180" type="line"/>
			<point x="232" y="-180" type="line" smooth="yes"/>
			<point x="373" y="-180"/>
			<point x="473" y="-106"/>
			<point x="492" y="14" type="curve" smooth="yes"/>
			<point x="577" y="550" type="line"/>
			<point x="427" y="550" type="line"/>
			<point x="415" y="445" type="line"/>
			<point x="380" y="445" type="line"/>
			<point x="410" y="410" type="line"/>
			<point x="425" y="505"/>
			<point x="379" y="560"/>
			<point x="288" y="560" type="curve" smooth="yes"/>
			<point x="177" y="560"/>
			<point x="91" y="476"/>
			<point x="71" y="345" type="curve" smooth="yes"/>
			<point x="55" y="245" type="line" smooth="yes"/>
			<point x="34" y="113"/>
			<point x="93" y="30"/>
			<point x="204" y="30" type="curve" smooth="yes"/>
			<point x="295" y="30"/>
			<point x="358" y="85"/>
			<point x="374" y="180" type="curve"/>
			<point x="333" y="145" type="line"/>
			<point x="368" y="145" type="line"/>
			<point x="349" y="40" type="line"/>
			<point x="346" y="19" type="line" smooth="yes"/>
			<point x="338" y="-31"/>
			<point x="302" y="-60"/>
			<point x="246" y="-60" type="curve" smooth="yes"/>
			<point x="91" y="-60" type="line"/>
		</contour>
		<contour>
			<point x="278" y="160" type="curve" smooth="yes"/>
			<point x="222" y="160"/>
			<point x="196" y="192"/>
			<point x="206" y="250" type="curve" smooth="yes"/>
			<point x="220" y="340" type="line" smooth="yes"/>
			<point x="229" y="397"/>
			<point x="265" y="430"/>
			<point x="321" y="430" type="curve" smooth="yes"/>
			<point x="376" y="430"/>
			<point x="403" y="397"/>
			<point x="394" y="340" type="curve" smooth="yes"/>
			<point x="380" y="250" type="line" smooth="yes"/>
			<point x="370" y="192"/>
			<point x="333" y="160"/>
		</contour>
	</outline>
</glyph>
<glyph name="h" format="2">
	<advance width="600"/>
	<unicode hex="0068"/>
	<outline>
		<contour>
			<point x="22" y="0" type="line"/>
			<point x="172" y="0" type="line"/>
			<point x="226" y="340" type="line" smooth="yes"/>
			<point x="235" y="397"/>
			<point x="271" y="430"/>
			<point x="324" y="430" type="curve" smooth="yes"/>
			<point x="378" y="430"/>
			<point x="405" y="397"/>
			<point x="396" y="340" type="curve" smooth="yes"/>
			<point x="342" y="0" type="line"/>
			<point x="492" y="0" type="line"/>
			<point x="548" y="355" type="line" smooth="yes"/>
			<point x="568" y="479"/>
			<point x="511" y="560"/>
			<point x="403" y="560" type="curve" smooth="yes"/>
			<point x="312" y="560"/>
			<point x="247" y="503"/>
			<point x="232" y="410" type="curve"/>
			<point x="282" y="445" type="line"/>
			<point x="237" y="445" type="line"/>
			<point x="259" y="550" type="line"/>
			<point x="288" y="730" type="line"/>
			<point x="138" y="730" type="line"/>
		</contour>
	</outline>
</glyph>
<glyph name="i" format="2">
	<advance width="600"/>
	<unicode hex="0069"/>
	<outline>
		<contour>
			<point x="26" y="0" type="line"/>
			<point x="516" y="0" type="line"/>
			<point x="538" y="136" type="line"/>
			<point x="378" y="136" type="line"/>
			<point x="443" y="550" type="line"/>
			<point x="138" y="550" type="line"/>
			<point x="117" y="415" type="line"/>
			<point x="282" y="415" type="line"/>
			<point x="238" y="136" type="line"/>
			<point x="48" y="136" type="line"/>
		</contour>
		<contour>
			<point x="370" y="625" type="curve" smooth="yes"/>
			<point x="389" y="625" type="line" smooth="yes"/>
			<point x="435" y="625"/>
			<point x="469" y="652"/>
			<point x="476" y="695" type="curve" smooth="yes"/>
			<point x="483" y="737"/>
			<point x="457" y="765"/>
			<point x="412" y="765" type="curve" smooth="yes"/>
			<point x="392" y="765" type="line" smooth="yes"/>
			<point x="347" y="765"/>
			<point x="313" y="737"/>
			<point x="306" y="695" type="curve" smooth="yes"/>
			<point x="299" y="653"/>
			<point x="325" y="625"/>
		</contour>
	</outline>
</glyph>
<glyph name="j" format="2">
	<advance width="600"/>
	<unicode hex="006A"/>
	<outline>
		<contour>
			<point x="7" y="-180" type="line"/>
			<point x="178" y="-180" type="line" smooth="yes"/>
			<point x="316" y="-180"/>
			<point x="416" y="-96"/>
			<point x="437" y="40" type="curve" smooth="yes"/>
			<point x="518" y="550" type="line"/>
			<point x="153" y="550" type="line"/>
			<point x="131" y="410" type="line"/>
			<point x="346" y="410" type="line"/>
			<point x="288" y="45" type="line" smooth="yes"/>
			<point x="280" y="-9"/>
			<point x="244" y="-40"/>
			<point x="190" y="-40" type="curve" smooth="yes"/>
			<point x="30" y="-40" type="line"/>
		</contour>
		<contour>
			<point x="445" y="625" type="curve" smooth="yes"/>
			<point x="464" y="625" type="line" smooth="yes"/>
			<point x="510" y="625"/>
			<point x="544" y="652"/>
			<point x="551" y="695" type="curve" smooth="yes"/>
			<point x="558" y="737"/>
			<point x="532" y="765"/>
			<point x="487" y="765" type="curve" smooth="yes"/>
			<point x="467" y="765" type="line" smooth="yes"/>
			<point x="422" y="765"/>
			<point x="388" y="737"/>
			<point x="381" y="695" type="curve" smooth="yes"/>
			<point x="374" y="653"/>
			<point x="400" y="625"/>
		</contour>
	</outline>
</glyph>
<glyph name="k" format="2">
	<advance width="600"/>
	<unicode hex="006B"/>
	<outline>
		<contour>
			<point x="25" y="0" type="line"/>
			<point x="175" y="0" type="line"/>
			<point x="209" y="216" type="line"/>
			<point x="285" y="216" type="line"/>
			<point x="366" y="0" type="line"/>
			<point x="532" y="0" type="line"/>
			<point x="421" y="277" type="line"/>
			<point x="618" y="550" type="line"/>
			<point x="450" y="550" type="line"/>
			<point x="302" y="342" type="line"/>
			<point x="229" y="342" type="line"/>
			<point x="291" y="730" type="line"/>
			<point x="141" y="730" type="line"/>
		</contour>
	</outline>
</glyph>
<glyph name="l" format="2">
	<advance width="600"/>
	<unicode hex="006C"/>
	<outline>
		<contour>
			<point x="346" y="0" type="curve" smooth="yes"/>
			<point x="521" y="0" type="line"/>
			<point x="542" y="135" type="line"/>
			<point x="382" y="135" type="line" smooth="yes"/>
			<point x="346" y="135"/>
			<point x="326" y="159"/>
			<point x="332" y="195" type="curve" smooth="yes"/>
			<point x="417" y="730" type="line"/>
			<point x="97" y="730" type="line"/>
			<point x="75" y="595" type="line"/>
			<point x="245" y="595" type="line"/>
			<point x="182" y="195" type="line" smooth="yes"/>
			<point x="163" y="78"/>
			<point x="229" y="0"/>
		</contour>
	</outline>
</glyph>
<glyph name="m" format="2">
	<advance width="600"/>
	<unicode hex="006D"/>
	<outline>
		<contour>
			<point x="-2" y="0" type="line"/>
			<point x="127" y="0" type="line"/>
			<point x="191" y="403" type="line" smooth="yes"/>
			<point x="196" y="438"/>
			<point x="209" y="458"/>
			<point x="236" y="458" type="curve" smooth="yes"/>
			<point x="263" y="458"/>
			<point x="275" y="439"/>
			<point x="269" y="403" type="curve" smooth="yes"/>
			<point x="205" y="0" type="line"/>
			<point x="308" y="0" type="line"/>
			<point x="372" y="403" type="line" smooth="yes"/>
			<point x="377" y="438"/>
			<point x="392" y="458"/>
			<point x="419" y="458" type="curve" smooth="yes"/>
			<point x="446" y="458"/>
			<point x="456" y="439"/>
			<point x="450" y="403" type="curve" smooth="yes"/>
			<point x="386" y="0" type="line"/>
			<point x="515" y="0" type="line"/>
			<point x="582" y="420" type="line" smooth="yes"/>
			<point x="595" y="506"/>
			<point x="558" y="560"/>
			<point x="492" y="560" type="curve" smooth="yes"/>
			<point x="433" y="560"/>
			<point x="389" y="519"/>
			<point x="379" y="456" type="curve"/>
			<point x="390" y="470" type="line"/>
			<point x="362" y="470" type="line"/>
			<point x="373" y="425" type="line"/>
			<point x="386" y="506"/>
			<point x="361" y="560"/>
			<point x="304" y="560" type="curve" smooth="yes"/>
			<point x="249" y="560"/>
			<point x="203" y="519"/>
			<point x="193" y="456" type="curve"/>
			<point x="214" y="470" type="line"/>
			<point x="190" y="470" type="line"/>
			<point x="203" y="550" type="line"/>
			<point x="85" y="550" type="line"/>
		</contour>
	</outline>
</glyph>
<glyph name="n" format="2">
	<advance width="600"/>
	<unicode hex="006E"/>
	<outline>
		<contour>
			<point x="22" y="0" type="line"/>
			<point x="172" y="0" type="line"/>
			<point x="226" y="340" type="line" smooth="yes"/>
			<point x="235" y="397"/>
			<point x="271" y="430"/>
			<point x="324" y="430" type="curve" smooth="yes"/>
			<point x="378" y="430"/>
			<point x="405" y="397"/>
			<point x="396" y="340" type="curve" smooth="yes"/>
			<point x="342" y="0" type="line"/>
			<point x="492" y="0" type="line"/>
			<point x="548" y="355" type="line" smooth="yes"/>
			<point x="567" y="477"/>
			<point x="509" y="560"/>
			<point x="403" y="560" type="curve" smooth="yes"/>
			<point x="312" y="560"/>
			<point x="247" y="503"/>
			<point x="232" y="410" type="curve"/>
			<point x="282" y="445" type="line"/>
			<point x="237" y="445" type="line"/>
			<point x="254" y="550" type="line"/>
			<point x="109" y="550" type="line"/>
		</contour>
	</outline>
</glyph>
<glyph name="o" format="2">
	<advance width="600"/>
	<unicode hex="006F"/>
	<outline>
		<contour>
			<point x="254" y="-10" type="curve" smooth="yes"/>
			<point x="401" y="-10"/>
			<point x="508" y="78"/>
			<point x="529" y="210" type="curve" smooth="yes"/>
			<point x="550" y="340" type="line" smooth="yes"/>
			<point x="571" y="472"/>
			<point x="492" y="560"/>
			<point x="345" y="560" type="curve" smooth="yes"/>
			<point x="198" y="560"/>
			<point x="91" y="472"/>
			<point x="70" y="340" type="curve" smooth="yes"/>
			<point x="49" y="210" type="line" smooth="yes"/>
			<point x="28" y="78"/>
			<point x="107" y="-10"/>
		</contour>
		<contour>
			<point x="275" y="120" type="curve" smooth="yes"/>
			<point x="217" y="120"/>
			<point x="190" y="152"/>
			<point x="199" y="210" type="curve" smooth="yes"/>
			<point x="220" y="340" type="line" smooth="yes"/>
			<point x="229" y="398"/>
			<point x="266" y="430"/>
			<point x="324" y="430" type="curve" smooth="yes"/>
			<point x="382" y="430"/>
			<point x="409" y="398"/>
			<point x="400" y="340" type="curve" smooth="yes"/>
			<point x="379" y="210" type="line" smooth="yes"/>
			<point x="370" y="152"/>
			<point x="333" y="120"/>
		</contour>
	</outline>
</glyph>
<glyph name="p" format="2">
	<advance width="600"/>
	<unicode hex="0070"/>
	<outline>
		<contour>
			<point x="-7" y="-180" type="line"/>
			<point x="143" y="-180" type="line"/>
			<point x="167" y="-30" type="line"/>
			<point x="184" y="105" type="line"/>
			<point x="218" y="105" type="line"/>
			<point x="189" y="140" type="line"/>
			<point x="174" y="45"/>
			<point x="220" y="-10"/>
			<point x="312" y="-10" type="curve" smooth="yes"/>
			<point x="422" y="-10"/>
			<point x="508" y="74"/>
			<point x="528" y="205" type="curve" smooth="yes"/>
			<point x="551" y="345" type="line" smooth="yes"/>
			<point x="571" y="476"/>
			<point x="513" y="560"/>
			<point x="402" y="560" type="curve" smooth="yes"/>
			<point x="311" y="560"/>
			<point x="247" y="505"/>
			<point x="232" y="410" type="curve"/>
			<point x="272" y="445" type="line"/>
			<point x="237" y="445" type="line"/>
			<point x="254" y="550" type="line"/>
			<point x="109" y="550" type="line"/>
		</contour>
		<contour>
			<point x="278" y="120" type="curve" smooth="yes"/>
			<point x="223" y="120"/>
			<point x="196" y="153"/>
			<point x="205" y="210" type="curve" smooth="yes"/>
			<point x="226" y="340" type="line" smooth="yes"/>
			<point x="235" y="397"/>
			<point x="272" y="430"/>
			<point x="327" y="430" type="curve" smooth="yes"/>
			<point x="383" y="430"/>
			<point x="409" y="398"/>
			<point x="400" y="340" type="curve" smooth="yes"/>
			<point x="379" y="210" type="line" smooth="yes"/>
			<point x="370" y="152"/>
			<point x="334" y="120"/>
		</contour>
	</outline>
</glyph>
<glyph name="r" format="2">
	<advance width="600"/>
	<unicode hex="0072"/>
	<outline>
		<contour>
			<point x="38" y="0" type="line"/>
			<point x="188" y="0" type="line"/>
			<point x="242" y="340" type="line" smooth="yes"/>
			<point x="251" y="400"/>
			<point x="288" y="435"/>
			<point x="344" y="435" type="curve" smooth="yes"/>
			<point x="400" y="435"/>
			<point x="429" y="400"/>
			<point x="420" y="340" type="curve" smooth="yes"/>
			<point x="414" y="305" type="line"/>
			<point x="574" y="305" type="line"/>
			<point x="581" y="350" type="line" smooth="yes"/>
			<point x="603" y="483"/>
			<point x="544" y="560"/>
			<point x="422" y="560" type="curve" smooth="yes"/>
			<point x="318" y="560"/>
			<point x="252" y="499"/>
			<point x="233" y="381" type="curve"/>
			<point x="286" y="445" type="line"/>
			<point x="248" y="445" type="line"/>
			<point x="265" y="550" type="line"/>
			<point x="125" y="550" type="line"/>
		</contour>
	</outline>
</glyph>
<glyph name="s" format="2">
	<advance width="600"/>
	<unicode hex="0073"/>
	<outline>
		<contour>
			<point x="231" y="-10" type="curve" smooth="yes"/>
			<point x="275" y="-10" type="line" smooth="yes"/>
			<point x="425" y="-10"/>
			<point x="514" y="52"/>
			<point x="532" y="164" type="curve" smooth="yes"/>
			<point x="548" y="267"/>
			<point x="489" y="314"/>
			<point x="354" y="332" type="curve" smooth="yes"/>
			<point x="286" y="341" type="line" smooth="yes"/>
			<point x="241" y="347"/>
			<point x="224" y="362"/>
			<point x="229" y="393" type="curve" smooth="yes"/>
			<point x="234" y="426"/>
			<point x="258" y="443"/>
			<point x="308" y="443" type="curve" smooth="yes"/>
			<point x="346" y="443" type="line" smooth="yes"/>
			<point x="389" y="443"/>
			<point x="414" y="425"/>
			<point x="410" y="398" type="curve"/>
			<point x="560" y="398" type="line"/>
			<point x="576" y="496"/>
			<point x="499" y="560"/>
			<point x="365" y="560" type="curve" smooth="yes"/>
			<point x="327" y="560" type="line" smooth="yes"/>
			<point x="186" y="560"/>
			<point x="101" y="499"/>
			<point x="84" y="392" type="curve" smooth="yes"/>
			<point x="68" y="290"/>
			<point x="121" y="246"/>
			<point x="255" y="229" type="curve" smooth="yes"/>
			<point x="318" y="221" type="line" smooth="yes"/>
			<point x="370" y="214"/>
			<point x="392" y="197"/>
			<point x="387" y="164" type="curve" smooth="yes"/>
			<point x="381" y="128"/>
			<point x="349" y="107"/>
			<point x="294" y="107" type="curve" smooth="yes"/>
			<point x="250" y="107" type="line" smooth="yes"/>
			<point x="204" y="107"/>
			<point x="176" y="128"/>
			<point x="181" y="160" type="curve"/>
			<point x="31" y="160" type="line"/>
			<point x="15" y="58"/>
			<point x="95" y="-10"/>
		</contour>
	</outline>
</glyph>
<glyph name="t" format="2">
	<advance width="600"/>
	<unicode hex="0074"/>
	<outline>
		<contour>
			<point x="316" y="0" type="curve" smooth="yes"/>
			<point x="481" y="0" type="line"/>
			<point x="502" y="135" type="line"/>
			<point x="352" y="135" type="line" smooth="yes"/>
			<point x="323" y="135"/>
			<point x="310" y="151"/>
			<point x="315" y="180" type="curve" smooth="yes"/>
			<point x="352" y="415" type="line"/>
			<point x="557" y="415" type="line"/>
			<point x="578" y="550" type="line"/>
			<point x="373" y="550" type="line"/>
			<point x="397" y="700" type="line"/>
			<point x="247" y="700" type="line"/>
			<point x="223" y="550" type="line"/>
			<point x="78" y="550" type="line"/>
			<point x="57" y="415" type="line"/>
			<point x="202" y="415" type="line"/>
			<point x="165" y="180" type="line" smooth="yes"/>
			<point x="147" y="68"/>
			<point x="204" y="0"/>
		</contour>
	</outline>
</glyph>
<glyph name="u" format="2">
	<advance width="600"/>
	<unicode hex="0075"/>
	<outline>
		<contour>
			<point x="254" y="-10" type="curve" smooth="yes"/>
			<point x="400" y="-10"/>
			<point x="504" y="74"/>
			<point x="526" y="214" type="curve" smooth="yes"/>
			<point x="579" y="550" type="line"/>
			<point x="429" y="550" type="line"/>
			<point x="376" y="215" type="line" smooth="yes"/>
			<point x="366" y="153"/>
			<point x="330" y="120"/>
			<point x="275" y="120" type="curve" smooth="yes"/>
			<point x="219" y="120"/>
			<point x="194" y="153"/>
			<point x="204" y="215" type="curve" smooth="yes"/>
			<point x="257" y="550" type="line"/>
			<point x="107" y="550" type="line"/>
			<point x="54" y="214" type="line" smooth="yes"/>
			<point x="32" y="75"/>
			<point x="106" y="-10"/>
		</contour>
	</outline>
</glyph>
<glyph name="v" format="2">
	<advance width="600"/>
	<unicode hex="0076"/>
	<outline>
		<contour>
			<point x="163" y="0" type="line"/>
			<point x="351" y="0" type="line"/>
			<point x="616" y="550" type="line"/>
			<point x="460" y="550" type="line"/>
			<point x="320" y="240" type="line" smooth="yes"/>
			<point x="298" y="190"/>
			<point x="276" y="127"/>
			<point x="276" y="127" type="curve"/>
			<point x="276" y="127"/>
			<point x="272" y="190"/>
			<point x="265" y="241" type="curve" smooth="yes"/>
			<point x="222" y="550" type="line"/>
			<point x="70" y="550" type="line"/>
		</contour>
	</outline>
</glyph>
<glyph name="w" format="2">
	<advance width="600"/>
	<unicode hex="0077"/>
	<outline>
		<contour>
			<point x="46" y="0" type="line"/>
			<point x="197" y="0" type="line"/>
			<point x="288" y="310" type="line" smooth="yes"/>
			<point x="303" y="361"/>
			<point x="328" y="447"/>
			<point x="328" y="447" type="curve"/>
			<point x="328" y="447"/>
			<point x="324" y="361"/>
			<point x="323" y="310" type="curve" smooth="yes"/>
			<point x="315" y="0" type="line"/>
			<point x="465" y="0" type="line"/>
			<point x="633" y="550" type="line"/>
			<point x="514" y="550" type="line"/>
			<point x="425" y="250" type="line" smooth="yes"/>
			<point x="407" y="191"/>
			<point x="386" y="99"/>
			<point x="386" y="99" type="curve"/>
			<point x="386" y="99"/>
			<point x="390" y="189"/>
			<point x="391" y="250" type="curve" smooth="yes"/>
			<point x="394" y="550" type="line"/>
			<point x="291" y="550" type="line"/>
			<point x="197" y="250" type="line" smooth="yes"/>
			<point x="177" y="189"/>
			<point x="154" y="100"/>
			<point x="154" y="100" type="curve"/>
			<point x="154" y="100"/>
			<point x="162" y="190"/>
			<point x="164" y="250" type="curve" smooth="yes"/>
			<point x="171" y="550" type="line"/>
			<point x="53" y="550" type="line"/>
		</contour>
	</outline>
</glyph>
<glyph name="x" format="2">
	<advance width="600"/>
	<unicode hex="0078"/>
	<outline>
		<contour>
			<point x="-18" y="0" type="line"/>
			<point x="153" y="0" type="line"/>
			<point x="255" y="130" type="line" smooth="yes"/>
			<point x="273" y="154"/>
			<point x="288" y="185"/>
			<point x="288" y="185" type="curve"/>
			<point x="288" y="185"/>
			<point x="296" y="154"/>
			<point x="308" y="130" type="curve" smooth="yes"/>
			<point x="368" y="0" type="line"/>
			<point x="530" y="0" type="line"/>
			<point x="386" y="285" type="line"/>
			<point x="604" y="550" type="line"/>
			<point x="433" y="550" type="line"/>
			<point x="348" y="440" type="line" smooth="yes"/>
			<point x="329" y="416"/>
			<point x="314" y="385"/>
			<point x="314" y="385" type="curve"/>
			<point x="314" y="385"/>
			<point x="307" y="416"/>
			<point x="296" y="440" type="curve" smooth="yes"/>
			<point x="244" y="550" type="line"/>
			<point x="82" y="550" type="line"/>
			<point x="217" y="285" type="line"/>
		</contour>
	</outline>
</glyph>
<glyph name="y" format="2">
	<advance width="600"/>
	<unicode hex="0079"/>
	<outline>
		<contour>
			<point x="72" y="-180" type="line"/>
			<point x="232" y="-180" type="line" smooth="yes"/>
			<point x="373" y="-180"/>
			<point x="473" y="-106"/>
			<point x="492" y="14" type="curve" smooth="yes"/>
			<point x="577" y="550" type="line"/>
			<point x="427" y="550" type="line"/>
			<point x="380" y="250" type="line" smooth="yes"/>
			<point x="370" y="192"/>
			<point x="333" y="160"/>
			<point x="278" y="160" type="curve" smooth="yes"/>
			<point x="222" y="160"/>
			<point x="196" y="192"/>
			<point x="206" y="250" type="curve" smooth="yes"/>
			<point x="253" y="550" type="line"/>
			<point x="103" y="550" type="line"/>
			<point x="55" y="245" type="line" smooth="yes"/>
			<point x="34" y="113"/>
			<point x="93" y="30"/>
			<point x="204" y="30" type="curve" smooth="yes"/>
			<point x="295" y="30"/>
			<point x="358" y="85"/>
			<point x="374" y="180" type="curve"/>
			<point x="333" y="145" type="line"/>
			<point x="368" y="145" type="line"/>
			<point x="349" y="40" type="line"/>
			<point x="349" y="36"/>
			<point x="347" y="23"/>
			<point x="346" y="19" type="curve" smooth="yes"/>
			<point x="338" y="-31"/>
			<point x="302" y="-60"/>
			<point x="246" y="-60" type="curve" smooth="yes"/>
			<point x="91" y="-60" type="line"/>
		</contour>
	</outline>
</glyph>
<glyph name="z" format="2">
	<advance width="600"/>
	<unicode hex="007A"/>
	<outline>
		<contour>
			<point x="26" y="0" type="line"/>
			<point x="486" y="0" type="line"/>
			<point x="507" y="130" type="line"/>
			<point x="229" y="130" type="line"/>
			<point x="542" y="420" type="line"/>
			<point x="562" y="550" type="line"/>
			<point x="123" y="550" type="line"/>
			<point x="103" y="420" type="line"/>
			<point x="360" y="420" type="line"/>
			<point x="47" y="130" type="line"/>
		</contour>
	</outline>
</glyph>
<glyph name="braceleft" format="2">
	<advance width="600"/>
	<unicode hex="007B"/>
	<outline>
		<contour>
			<point x="378" y="-111" type="curve" smooth="yes"/>
			<point x="463" y="-111" type="line"/>
			<point x="486" y="29" type="line"/>
			<point x="431" y="29" type="line" smooth="yes"/>
			<point x="395" y="29"/>
			<point x="372" y="53"/>
			<point x="380" y="89" type="curve" smooth="yes"/>
			<point x="414" y="239" type="line" smooth="yes"/>
			<point x="431" y="314"/>
			<point x="377" y="364"/>
			<point x="279" y="364" type="curve"/>
			<point x="278" y="357" type="line"/>
			<point x="375" y="357"/>
			<point x="445" y="406"/>
			<point x="452" y="479" type="curve" smooth="yes"/>
			<point x="466" y="630" type="line" smooth="yes"/>
			<point x="470" y="673"/>
			<point x="497" y="690"/>
			<point x="535" y="690" type="curve" smooth="yes"/>
			<point x="590" y="690" type="line"/>
			<point x="612" y="830" type="line"/>
			<point x="527" y="830" type="line" smooth="yes"/>
			<point x="417" y="830"/>
			<point x="329" y="760"/>
			<point x="319" y="650" type="curve" smooth="yes"/>
			<point x="305" y="499" type="line" smooth="yes"/>
			<point x="301" y="457"/>
			<point x="266" y="429"/>
			<point x="224" y="429" type="curve" smooth="yes"/>
			<point x="99" y="429" type="line"/>
			<point x="77" y="289" type="line"/>
			<point x="202" y="289" type="line" smooth="yes"/>
			<point x="244" y="289"/>
			<point x="270" y="261"/>
			<point x="261" y="219" type="curve" smooth="yes"/>
			<point x="228" y="74" type="line" smooth="yes"/>
			<point x="202" y="-38"/>
			<point x="269" y="-111"/>
		</contour>
	</outline>
</glyph>
<glyph name="bar" format="2">
	<advance width="600"/>
	<unicode hex="007C"/>
	<outline>
		<contour>
			<point x="164" y="-110" type="line"/>
			<point x="314" y="-110" type="line"/>
			<point x="462" y="830" type="line"/>
			<point x="312" y="830" type="line"/>
		</contour>
	</outline>
</glyph>
<glyph name="braceright" format="2">
	<advance width="600"/>
	<unicode hex="007D"/>
	<guideline x="-88" y="-130" angle="0"/>
	<outline>
		<contour>
			<point x="13" y="-111" type="line"/>
			<point x="98" y="-111" type="line" smooth="yes"/>
			<point x="207" y="-111"/>
			<point x="298" y="-38"/>
			<point x="308" y="74" type="curve" smooth="yes"/>
			<point x="321" y="219" type="line" smooth="yes"/>
			<point x="324" y="261"/>
			<point x="360" y="289"/>
			<point x="402" y="289" type="curve" smooth="yes"/>
			<point x="527" y="289" type="line"/>
			<point x="549" y="429" type="line"/>
			<point x="424" y="429" type="line" smooth="yes"/>
			<point x="382" y="429"/>
			<point x="356" y="457"/>
			<point x="365" y="499" type="curve" smooth="yes"/>
			<point x="399" y="650" type="line" smooth="yes"/>
			<point x="424" y="760"/>
			<point x="357" y="830"/>
			<point x="247" y="830" type="curve" smooth="yes"/>
			<point x="162" y="830" type="line"/>
			<point x="140" y="690" type="line"/>
			<point x="195" y="690" type="line" smooth="yes"/>
			<point x="233" y="690"/>
			<point x="255" y="673"/>
			<point x="246" y="630" type="curve" smooth="yes"/>
			<point x="212" y="479" type="line" smooth="yes"/>
			<point x="195" y="406"/>
			<point x="250" y="357"/>
			<point x="348" y="357" type="curve"/>
			<point x="349" y="364" type="line"/>
			<point x="251" y="364"/>
			<point x="181" y="314"/>
			<point x="174" y="239" type="curve" smooth="yes"/>
			<point x="160" y="89" type="line" smooth="yes"/>
			<point x="157" y="53"/>
			<point x="127" y="29"/>
			<point x="91" y="29" type="curve" smooth="yes"/>
			<point x="36" y="29" type="line"/>
		</contour>
	</outline>
</glyph>
<glyph name="asciitilde" format="2">
	<advance width="600"/>
	<unicode hex="007E"/>
	<outline>
		<contour>
			<point x="409" y="225" type="curve" smooth="yes"/>
			<point x="499" y="225"/>
			<point x="560" y="277"/>
			<point x="574" y="365" type="curve" smooth="yes"/>
			<point x="587" y="450" type="line"/>
			<point x="467" y="450" type="line"/>
			<point x="455" y="375" type="line" smooth="yes"/>
			<point x="452" y="353"/>
			<point x="439" y="340"/>
			<point x="418" y="340" type="curve" smooth="yes"/>
			<point x="350" y="340"/>
			<point x="360" y="480"/>
			<point x="215" y="480" type="curve" smooth="yes"/>
			<point x="125" y="480"/>
			<point x="64" y="429"/>
			<point x="50" y="340" type="curve" smooth="yes"/>
			<point x="36" y="255" type="line"/>
			<point x="156" y="255" type="line"/>
			<point x="168" y="330" type="line" smooth="yes"/>
			<point x="172" y="352"/>
			<point x="185" y="365"/>
			<point x="206" y="365" type="curve" smooth="yes"/>
			<point x="274" y="365"/>
			<point x="264" y="225"/>
		</contour>
	</outline>
</glyph>
<glyph name="exclamdown" format="2">
	<advance width="600"/>
	<unicode hex="00A1"/>
	<outline>
		<contour>
			<point x="148" y="-180" type="line"/>
			<point x="306" y="-180" type="line"/>
			<point x="332" y="-20" type="line"/>
			<point x="360" y="305" type="line"/>
			<point x="248" y="305" type="line"/>
			<point x="174" y="-20" type="line"/>
		</contour>
		<contour>
			<point x="307" y="415" type="curve" smooth="yes"/>
			<point x="337" y="415" type="line" smooth="yes"/>
			<point x="382" y="415"/>
			<point x="416" y="443"/>
			<point x="423" y="485" type="curve" smooth="yes"/>
			<point x="429" y="527"/>
			<point x="404" y="555"/>
			<point x="359" y="555" type="curve" smooth="yes"/>
			<point x="330" y="555" type="line" smooth="yes"/>
			<point x="284" y="555"/>
			<point x="250" y="528"/>
			<point x="243" y="486" type="curve" smooth="yes"/>
			<point x="236" y="443"/>
			<point x="262" y="415"/>
		</contour>
	</outline>
</glyph>
<glyph name="sterling" format="2">
	<advance width="600"/>
	<unicode hex="00A3"/>
	<outline>
		<contour>
			<point x="56" y="160" type="curve"/>
			<point x="31" y="0" type="line"/>
			<point x="491" y="0" type="line"/>
			<point x="513" y="140" type="line"/>
			<point x="156" y="140" type="line"/>
			<point x="156" y="140"/>
			<point x="297" y="164"/>
			<point x="316" y="283" type="curve" smooth="yes"/>
			<point x="338" y="422"/>
			<point x="230" y="449"/>
			<point x="243" y="532" type="curve" smooth="yes"/>
			<point x="251" y="582"/>
			<point x="290" y="610"/>
			<point x="349" y="610" type="curve" smooth="yes"/>
			<point x="401" y="610"/>
			<point x="435" y="578"/>
			<point x="433" y="530" type="curve"/>
			<point x="583" y="530" type="line"/>
			<point x="594" y="657"/>
			<point x="512" y="740"/>
			<point x="373" y="740" type="curve" smooth="yes"/>
			<point x="220" y="740"/>
			<point x="115" y="666"/>
			<point x="96" y="545" type="curve" smooth="yes"/>
			<point x="76" y="418"/>
			<point x="200" y="383"/>
			<point x="183" y="274" type="curve" smooth="yes"/>
			<point x="172" y="206"/>
			<point x="56" y="160"/>
		</contour>
		<contour>
			<point x="66" y="285" type="line"/>
			<point x="436" y="285" type="line"/>
			<point x="455" y="405" type="line"/>
			<point x="85" y="405" type="line"/>
		</contour>
	</outline>
</glyph>
<glyph name="currency" format="2">
	<advance width="600"/>
	<unicode hex="00A4"/>
	<outline>
		<contour>
			<point x="279" y="153" type="curve" smooth="yes"/>
			<point x="394" y="153"/>
			<point x="495" y="240"/>
			<point x="513" y="355" type="curve" smooth="yes"/>
			<point x="531" y="470"/>
			<point x="458" y="557"/>
			<point x="343" y="557" type="curve" smooth="yes"/>
			<point x="227" y="557"/>
			<point x="126" y="470"/>
			<point x="108" y="355" type="curve" smooth="yes"/>
			<point x="90" y="240"/>
			<point x="163" y="153"/>
		</contour>
		<contour>
			<point x="76" y="95" type="line"/>
			<point x="179" y="184" type="line"/>
			<point x="126" y="247" type="line"/>
			<point x="23" y="158" type="line"/>
		</contour>
		<contour>
			<point x="465" y="95" type="line"/>
			<point x="538" y="158" type="line"/>
			<point x="463" y="247" type="line"/>
			<point x="390" y="184" type="line"/>
		</contour>
		<contour>
			<point x="291" y="226" type="curve" smooth="yes"/>
			<point x="214" y="226"/>
			<point x="170" y="278"/>
			<point x="182" y="355" type="curve" smooth="yes"/>
			<point x="194" y="432"/>
			<point x="255" y="484"/>
			<point x="332" y="484" type="curve" smooth="yes"/>
			<point x="409" y="484"/>
			<point x="451" y="432"/>
			<point x="439" y="355" type="curve" smooth="yes"/>
			<point x="427" y="278"/>
			<point x="368" y="226"/>
		</contour>
		<contour>
			<point x="161" y="465" type="line"/>
			<point x="234" y="528" type="line"/>
			<point x="159" y="617" type="line"/>
			<point x="86" y="554" type="line"/>
		</contour>
		<contour>
			<point x="497" y="459" type="line"/>
			<point x="600" y="548" type="line"/>
			<point x="547" y="611" type="line"/>
			<point x="444" y="522" type="line"/>
		</contour>
	</outline>
</glyph>
<glyph name="yen" format="2">
	<advance width="600"/>
	<unicode hex="00A5"/>
	<outline>
		<contour>
			<point x="57" y="260" type="line"/>
			<point x="537" y="260" type="line"/>
			<point x="554" y="365" type="line"/>
			<point x="74" y="365" type="line"/>
		</contour>
		<contour>
			<point x="32" y="100" type="line"/>
			<point x="512" y="100" type="line"/>
			<point x="528" y="205" type="line"/>
			<point x="48" y="205" type="line"/>
		</contour>
		<component base="Y"/>
	</outline>
</glyph>
<glyph name="brokenbar" format="2">
	<advance width="600"/>
	<unicode hex="00A6"/>
	<outline>
		<contour>
			<point x="252" y="450" type="line"/>
			<point x="402" y="450" type="line"/>
			<point x="462" y="830" type="line"/>
			<point x="312" y="830" type="line"/>
		</contour>
		<contour>
			<point x="164" y="-110" type="line"/>
			<point x="314" y="-110" type="line"/>
			<point x="374" y="270" type="line"/>
			<point x="224" y="270" type="line"/>
		</contour>
	</outline>
</glyph>
<glyph name="section" format="2">
	<advance width="600"/>
	<unicode hex="00A7"/>
	<outline>
		<contour>
			<point x="215" y="-155" type="curve" smooth="yes"/>
			<point x="245" y="-155" type="line" smooth="yes"/>
			<point x="398" y="-155"/>
			<point x="497" y="-88"/>
			<point x="514" y="19" type="curve" smooth="yes"/>
			<point x="536" y="155"/>
			<point x="397" y="175"/>
			<point x="397" y="175" type="curve"/>
			<point x="398" y="182" type="line"/>
			<point x="490" y="189"/>
			<point x="549" y="237"/>
			<point x="561" y="314" type="curve" smooth="yes"/>
			<point x="574" y="395"/>
			<point x="518" y="460"/>
			<point x="404" y="485" type="curve" smooth="yes"/>
			<point x="304" y="507" type="line" smooth="yes"/>
			<point x="259" y="517"/>
			<point x="241" y="539"/>
			<point x="246" y="570" type="curve" smooth="yes"/>
			<point x="252" y="605"/>
			<point x="283" y="628"/>
			<point x="339" y="628" type="curve" smooth="yes"/>
			<point x="369" y="628" type="line" smooth="yes"/>
			<point x="416" y="628"/>
			<point x="443" y="609"/>
			<point x="445" y="588" type="curve"/>
			<point x="595" y="588" type="line"/>
			<point x="598" y="685"/>
			<point x="523" y="740"/>
			<point x="387" y="740" type="curve" smooth="yes"/>
			<point x="357" y="740" type="line" smooth="yes"/>
			<point x="213" y="740"/>
			<point x="118" y="673"/>
			<point x="101" y="566" type="curve" smooth="yes"/>
			<point x="81" y="441"/>
			<point x="217" y="410"/>
			<point x="217" y="410" type="curve"/>
			<point x="216" y="403" type="line"/>
			<point x="124" y="395"/>
			<point x="66" y="349"/>
			<point x="54" y="271" type="curve" smooth="yes"/>
			<point x="41" y="191"/>
			<point x="100" y="132"/>
			<point x="210" y="108" type="curve" smooth="yes"/>
			<point x="300" y="88" type="line" smooth="yes"/>
			<point x="354" y="76"/>
			<point x="375" y="55"/>
			<point x="370" y="23" type="curve" smooth="yes"/>
			<point x="363" y="-16"/>
			<point x="323" y="-43"/>
			<point x="263" y="-43" type="curve" smooth="yes"/>
			<point x="233" y="-43" type="line" smooth="yes"/>
			<point x="188" y="-43"/>
			<point x="155" y="-25"/>
			<point x="151" y="2" type="curve"/>
			<point x="1" y="2" type="line"/>
			<point x="-2" y="-98"/>
			<point x="75" y="-155"/>
		</contour>
		<contour>
			<point x="303" y="207" type="curve" smooth="yes"/>
			<point x="250" y="218" type="line" smooth="yes"/>
			<point x="215" y="225"/>
			<point x="196" y="259"/>
			<point x="203" y="304" type="curve" smooth="yes"/>
			<point x="213" y="365"/>
			<point x="252" y="398"/>
			<point x="302" y="387" type="curve" smooth="yes"/>
			<point x="355" y="375" type="line" smooth="yes"/>
			<point x="396" y="366"/>
			<point x="418" y="331"/>
			<point x="412" y="288" type="curve" smooth="yes"/>
			<point x="402" y="228"/>
			<point x="359" y="195"/>
		</contour>
	</outline>
</glyph>
<glyph name="dieresis" format="2">
	<advance width="600"/>
	<unicode hex="00A8"/>
	<outline>
		<contour>
			<point x="474" y="640" type="curve" smooth="yes"/>
			<point x="522" y="640"/>
			<point x="559" y="670"/>
			<point x="566" y="715" type="curve" smooth="yes"/>
			<point x="573" y="760"/>
			<point x="546" y="790"/>
			<point x="498" y="790" type="curve" smooth="yes"/>
			<point x="450" y="790"/>
			<point x="413" y="760"/>
			<point x="406" y="715" type="curve" smooth="yes"/>
			<point x="399" y="670"/>
			<point x="426" y="640"/>
		</contour>
		<contour>
			<point x="240" y="640" type="curve" smooth="yes"/>
			<point x="288" y="640"/>
			<point x="325" y="670"/>
			<point x="332" y="715" type="curve" smooth="yes"/>
			<point x="339" y="760"/>
			<point x="312" y="790"/>
			<point x="264" y="790" type="curve" smooth="yes"/>
			<point x="216" y="790"/>
			<point x="179" y="760"/>
			<point x="172" y="715" type="curve" smooth="yes"/>
			<point x="165" y="670"/>
			<point x="192" y="640"/>
		</contour>
	</outline>
</glyph>
<glyph name="copyright" format="2">
	<advance width="600"/>
	<unicode hex="00A9"/>
	<outline>
		<contour>
			<point x="273" y="110" type="curve" smooth="yes"/>
			<point x="426" y="110"/>
			<point x="544" y="206"/>
			<point x="566" y="350" type="curve" smooth="yes"/>
			<point x="590" y="500" type="line" smooth="yes"/>
			<point x="613" y="644"/>
			<point x="526" y="740"/>
			<point x="373" y="740" type="curve" smooth="yes"/>
			<point x="220" y="740"/>
			<point x="103" y="644"/>
			<point x="80" y="500" type="curve" smooth="yes"/>
			<point x="56" y="350" type="line" smooth="yes"/>
			<point x="34" y="206"/>
			<point x="120" y="110"/>
		</contour>
		<contour>
			<point x="281" y="160" type="curve" smooth="yes"/>
			<point x="162" y="160"/>
			<point x="93" y="236"/>
			<point x="111" y="350" type="curve" smooth="yes"/>
			<point x="135" y="500" type="line" smooth="yes"/>
			<point x="153" y="614"/>
			<point x="246" y="690"/>
			<point x="365" y="690" type="curve" smooth="yes"/>
			<point x="485" y="690"/>
			<point x="553" y="614"/>
			<point x="535" y="500" type="curve" smooth="yes"/>
			<point x="511" y="350" type="line" smooth="yes"/>
			<point x="493" y="236"/>
			<point x="401" y="160"/>
		</contour>
		<contour>
			<point x="300" y="245" type="curve" smooth="yes"/>
			<point x="380" y="245"/>
			<point x="442" y="295"/>
			<point x="454" y="370" type="curve"/>
			<point x="369" y="370" type="line"/>
			<point x="364" y="340"/>
			<point x="341" y="320"/>
			<point x="312" y="320" type="curve" smooth="yes"/>
			<point x="282" y="320"/>
			<point x="265" y="340"/>
			<point x="270" y="370" type="curve" smooth="yes"/>
			<point x="287" y="480" type="line" smooth="yes"/>
			<point x="292" y="510"/>
			<point x="315" y="530"/>
			<point x="345" y="530" type="curve" smooth="yes"/>
			<point x="374" y="530"/>
			<point x="391" y="510"/>
			<point x="386" y="480" type="curve"/>
			<point x="471" y="480" type="line"/>
			<point x="483" y="555"/>
			<point x="437" y="605"/>
			<point x="357" y="605" type="curve" smooth="yes"/>
			<point x="276" y="605"/>
			<point x="214" y="555"/>
			<point x="202" y="480" type="curve" smooth="yes"/>
			<point x="185" y="370" type="line" smooth="yes"/>
			<point x="173" y="295"/>
			<point x="219" y="245"/>
		</contour>
	</outline>
</glyph>
<glyph name="ordfeminine" format="2">
	<advance width="600"/>
	<unicode hex="00AA"/>
	<outline>
		<contour>
			<point x="381" y="455" type="line"/>
			<point x="458" y="455" type="line"/>
			<point x="489" y="650" type="line" smooth="yes"/>
			<point x="498" y="704"/>
			<point x="453" y="740"/>
			<point x="378" y="740" type="curve" smooth="yes"/>
			<point x="313" y="740"/>
			<point x="258" y="706"/>
			<point x="240" y="655" type="curve"/>
			<point x="320" y="655" type="line"/>
			<point x="324" y="670"/>
			<point x="344" y="680"/>
			<point x="369" y="680" type="curve" smooth="yes"/>
			<point x="396" y="680"/>
			<point x="412" y="668"/>
			<point x="409" y="650" type="curve" smooth="yes"/>
			<point x="387" y="510" type="line"/>
			<point x="390" y="510" type="line"/>
		</contour>
		<contour>
			<point x="291" y="450" type="curve" smooth="yes"/>
			<point x="330" y="450"/>
			<point x="366" y="472"/>
			<point x="387" y="510" type="curve"/>
			<point x="398" y="510" type="line"/>
			<point x="405" y="555" type="line"/>
			<point x="394" y="555" type="line"/>
			<point x="389" y="525"/>
			<point x="360" y="505"/>
			<point x="323" y="505" type="curve" smooth="yes"/>
			<point x="299" y="505"/>
			<point x="283" y="520"/>
			<point x="287" y="540" type="curve" smooth="yes"/>
			<point x="290" y="562"/>
			<point x="306" y="575"/>
			<point x="327" y="575" type="curve" smooth="yes"/>
			<point x="408" y="575" type="line"/>
			<point x="416" y="625" type="line"/>
			<point x="335" y="625" type="line" smooth="yes"/>
			<point x="266" y="625"/>
			<point x="214" y="590"/>
			<point x="206" y="538" type="curve" smooth="yes"/>
			<point x="198" y="485"/>
			<point x="232" y="450"/>
		</contour>
	</outline>
</glyph>
<glyph name="guillemotleft" format="2">
	<advance width="600"/>
	<unicode hex="00AB"/>
	<outline>
		<contour>
			<point x="398" y="40" type="line"/>
			<point x="547" y="40" type="line"/>
			<point x="413" y="278" type="line"/>
			<point x="623" y="520" type="line"/>
			<point x="468" y="520" type="line"/>
			<point x="265" y="280" type="line"/>
		</contour>
		<contour>
			<point x="148" y="40" type="line"/>
			<point x="297" y="40" type="line"/>
			<point x="163" y="278" type="line"/>
			<point x="373" y="520" type="line"/>
			<point x="218" y="520" type="line"/>
			<point x="15" y="280" type="line"/>
		</contour>
	</outline>
</glyph>
<glyph name="logicalnot" format="2">
	<advance width="600"/>
	<unicode hex="00AC"/>
	<outline>
		<contour>
			<point x="364" y="175" type="line"/>
			<point x="514" y="175" type="line"/>
			<point x="557" y="450" type="line"/>
			<point x="97" y="450" type="line"/>
			<point x="75" y="310" type="line"/>
			<point x="385" y="310" type="line"/>
		</contour>
	</outline>
</glyph>
<glyph name="registered" format="2">
	<advance width="600"/>
	<unicode hex="00AE"/>
	<outline>
		<contour>
			<point x="273" y="110" type="curve" smooth="yes"/>
			<point x="426" y="110"/>
			<point x="544" y="206"/>
			<point x="566" y="350" type="curve" smooth="yes"/>
			<point x="590" y="500" type="line" smooth="yes"/>
			<point x="613" y="644"/>
			<point x="526" y="740"/>
			<point x="373" y="740" type="curve" smooth="yes"/>
			<point x="220" y="740"/>
			<point x="103" y="644"/>
			<point x="80" y="500" type="curve" smooth="yes"/>
			<point x="56" y="350" type="line" smooth="yes"/>
			<point x="34" y="206"/>
			<point x="120" y="110"/>
		</contour>
		<contour>
			<point x="349" y="250" type="line"/>
			<point x="433" y="250" type="line"/>
			<point x="393" y="408" type="line"/>
			<point x="312" y="408" type="line"/>
		</contour>
		<contour>
			<point x="281" y="160" type="curve" smooth="yes"/>
			<point x="162" y="160"/>
			<point x="93" y="236"/>
			<point x="111" y="350" type="curve"/>
			<point x="135" y="500" type="line" smooth="yes"/>
			<point x="153" y="614"/>
			<point x="246" y="690"/>
			<point x="365" y="690" type="curve" smooth="yes"/>
			<point x="485" y="690"/>
			<point x="553" y="614"/>
			<point x="535" y="500" type="curve" smooth="yes"/>
			<point x="511" y="350" type="line" smooth="yes"/>
			<point x="493" y="236"/>
			<point x="401" y="160"/>
		</contour>
		<contour>
			<point x="176" y="250" type="line"/>
			<point x="256" y="250" type="line"/>
			<point x="277" y="385" type="line"/>
			<point x="321" y="385" type="line" smooth="yes"/>
			<point x="397" y="385"/>
			<point x="454" y="424"/>
			<point x="465" y="490" type="curve" smooth="yes"/>
			<point x="475" y="556"/>
			<point x="431" y="600"/>
			<point x="355" y="600" type="curve" smooth="yes"/>
			<point x="231" y="600" type="line"/>
		</contour>
		<contour>
			<point x="331" y="450" type="curve" smooth="yes"/>
			<point x="287" y="450" type="line"/>
			<point x="302" y="540" type="line"/>
			<point x="346" y="540" type="line" smooth="yes"/>
			<point x="374" y="540"/>
			<point x="389" y="522"/>
			<point x="384" y="495" type="curve" smooth="yes"/>
			<point x="380" y="468"/>
			<point x="359" y="450"/>
		</contour>
	</outline>
</glyph>
<glyph name="macron" format="2">
	<advance width="600"/>
	<unicode hex="00AF"/>
	<outline>
		<contour>
			<point x="210" y="655" type="line"/>
			<point x="510" y="655" type="line"/>
			<point x="528" y="770" type="line"/>
			<point x="228" y="770" type="line"/>
		</contour>
	</outline>
</glyph>
<glyph name="degree" format="2">
	<advance width="600"/>
	<unicode hex="00B0"/>
	<outline>
		<contour>
			<point x="327" y="450" type="curve" smooth="yes"/>
			<point x="417" y="450"/>
			<point x="486" y="508"/>
			<point x="500" y="595" type="curve" smooth="yes"/>
			<point x="514" y="682"/>
			<point x="463" y="740"/>
			<point x="373" y="740" type="curve" smooth="yes"/>
			<point x="283" y="740"/>
			<point x="214" y="682"/>
			<point x="200" y="595" type="curve" smooth="yes"/>
			<point x="186" y="508"/>
			<point x="237" y="450"/>
		</contour>
		<contour>
			<point x="338" y="515" type="curve" smooth="yes"/>
			<point x="293" y="515"/>
			<point x="268" y="547"/>
			<point x="275" y="595" type="curve" smooth="yes"/>
			<point x="283" y="643"/>
			<point x="318" y="675"/>
			<point x="363" y="675" type="curve" smooth="yes"/>
			<point x="408" y="675"/>
			<point x="433" y="643"/>
			<point x="425" y="595" type="curve" smooth="yes"/>
			<point x="418" y="547"/>
			<point x="383" y="515"/>
		</contour>
	</outline>
</glyph>
<glyph name="plusminus" format="2">
	<advance width="600"/>
	<unicode hex="00B1"/>
	<outline>
		<contour>
			<point x="21" y="0" type="line"/>
			<point x="491" y="0" type="line"/>
			<point x="509" y="111" type="line"/>
			<point x="354" y="111" type="line"/>
			<point x="377" y="260" type="line"/>
			<point x="547" y="260" type="line"/>
			<point x="569" y="400" type="line"/>
			<point x="399" y="400" type="line"/>
			<point x="426" y="570" type="line"/>
			<point x="276" y="570" type="line"/>
			<point x="249" y="400" type="line"/>
			<point x="79" y="400" type="line"/>
			<point x="57" y="260" type="line"/>
			<point x="227" y="260" type="line"/>
			<point x="204" y="111" type="line"/>
			<point x="39" y="111" type="line"/>
		</contour>
	</outline>
</glyph>
<glyph name="uni00B2" format="2">
	<advance width="600"/>
	<unicode hex="00B2"/>
	<outline>
		<contour>
			<point x="173" y="405" type="line"/>
			<point x="488" y="405" type="line"/>
			<point x="501" y="488" type="line"/>
			<point x="297" y="488" type="line"/>
			<point x="418" y="556" type="line" smooth="yes"/>
			<point x="476" y="589"/>
			<point x="520" y="644"/>
			<point x="528" y="695" type="curve" smooth="yes"/>
			<point x="542" y="783"/>
			<point x="488" y="840"/>
			<point x="391" y="840" type="curve" smooth="yes"/>
			<point x="294" y="840"/>
			<point x="222" y="783"/>
			<point x="208" y="694" type="curve"/>
			<point x="303" y="694" type="line"/>
			<point x="309" y="733"/>
			<point x="339" y="758"/>
			<point x="378" y="758" type="curve" smooth="yes"/>
			<point x="417" y="758"/>
			<point x="438" y="733"/>
			<point x="433" y="694" type="curve" smooth="yes"/>
			<point x="429" y="665"/>
			<point x="407" y="635"/>
			<point x="381" y="619" type="curve" smooth="yes"/>
			<point x="188" y="502" type="line"/>
		</contour>
	</outline>
</glyph>
<glyph name="uni00B3" format="2">
	<advance width="600"/>
	<unicode hex="00B3"/>
	<outline>
		<contour>
			<point x="303" y="395" type="curve" smooth="yes"/>
			<point x="399" y="395"/>
			<point x="473" y="451"/>
			<point x="487" y="542" type="curve" smooth="yes"/>
			<point x="499" y="622"/>
			<point x="451" y="674"/>
			<point x="368" y="674" type="curve"/>
			<point x="363" y="639" type="line"/>
			<point x="491" y="741" type="line"/>
			<point x="505" y="830" type="line"/>
			<point x="241" y="830" type="line"/>
			<point x="228" y="747" type="line"/>
			<point x="409" y="747" type="line"/>
			<point x="318" y="675" type="line"/>
			<point x="308" y="609" type="line"/>
			<point x="338" y="609" type="line" smooth="yes"/>
			<point x="378" y="609"/>
			<point x="399" y="584"/>
			<point x="392" y="542" type="curve" smooth="yes"/>
			<point x="385" y="498"/>
			<point x="357" y="477"/>
			<point x="316" y="477" type="curve" smooth="yes"/>
			<point x="274" y="477"/>
			<point x="250" y="498"/>
			<point x="257" y="540" type="curve"/>
			<point x="162" y="540" type="line"/>
			<point x="148" y="451"/>
			<point x="205" y="395"/>
		</contour>
	</outline>
</glyph>
<glyph name="acute" format="2">
	<advance width="600"/>
	<unicode hex="00B4"/>
	<outline>
		<contour>
			<point x="238" y="645" type="line"/>
			<point x="378" y="645" type="line"/>
			<point x="530" y="785" type="line"/>
			<point x="380" y="785" type="line"/>
		</contour>
	</outline>
</glyph>
<glyph name="uni00B5" format="2">
	<advance width="600"/>
	<unicode hex="00B5"/>
	<outline>
		<contour>
			<point x="-8" y="-180" type="line"/>
			<point x="131" y="-180" type="line"/>
			<point x="137" y="-13" type="line" smooth="yes"/>
			<point x="138" y="23"/>
			<point x="127" y="83"/>
			<point x="125" y="83" type="curve"/>
			<point x="134" y="83" type="line"/>
			<point x="134" y="83"/>
			<point x="145" y="-10"/>
			<point x="270" y="-10" type="curve" smooth="yes"/>
			<point x="408" y="-10"/>
			<point x="504" y="75"/>
			<point x="526" y="214" type="curve" smooth="yes"/>
			<point x="580" y="550" type="line"/>
			<point x="430" y="550" type="line"/>
			<point x="377" y="215" type="line" smooth="yes"/>
			<point x="367" y="154"/>
			<point x="332" y="120"/>
			<point x="276" y="120" type="curve" smooth="yes"/>
			<point x="218" y="120"/>
			<point x="195" y="154"/>
			<point x="205" y="215" type="curve" smooth="yes"/>
			<point x="258" y="550" type="line"/>
			<point x="108" y="550" type="line"/>
		</contour>
	</outline>
</glyph>
<glyph name="paragraph" format="2">
	<advance width="600"/>
	<unicode hex="00B6"/>
	<outline>
		<contour>
			<point x="245" y="310" type="curve"/>
			<point x="167" y="-180" type="line"/>
			<point x="277" y="-180" type="line"/>
			<point x="422" y="730" type="line"/>
			<point x="312" y="730" type="line" smooth="yes"/>
			<point x="198" y="730"/>
			<point x="111" y="662"/>
			<point x="95" y="560" type="curve" smooth="yes"/>
			<point x="82" y="480" type="line" smooth="yes"/>
			<point x="66" y="378"/>
			<point x="131" y="310"/>
		</contour>
		<contour>
			<point x="347" y="-180" type="line"/>
			<point x="457" y="-180" type="line"/>
			<point x="602" y="730" type="line"/>
			<point x="492" y="730" type="line"/>
		</contour>
	</outline>
</glyph>
<glyph name="cedilla" format="2">
	<advance width="600"/>
	<unicode hex="00B8"/>
	<outline>
		<contour>
			<point x="110" y="-225" type="line"/>
			<point x="220" y="-225" type="line" smooth="yes"/>
			<point x="304" y="-225"/>
			<point x="367" y="-182"/>
			<point x="375" y="-133" type="curve" smooth="yes"/>
			<point x="389" y="-49"/>
			<point x="247" y="-39"/>
			<point x="247" y="-39" type="curve"/>
			<point x="275" y="16" type="line"/>
			<point x="202" y="16" type="line"/>
			<point x="154" y="-69" type="line"/>
			<point x="227" y="-69"/>
			<point x="268" y="-88"/>
			<point x="262" y="-119" type="curve" smooth="yes"/>
			<point x="259" y="-135"/>
			<point x="234" y="-155"/>
			<point x="201" y="-155" type="curve" smooth="yes"/>
			<point x="121" y="-155" type="line"/>
		</contour>
	</outline>
</glyph>
<glyph name="uni00B9" format="2">
	<advance width="600"/>
	<unicode hex="00B9"/>
	<outline>
		<contour>
			<point x="166" y="405" type="line"/>
			<point x="496" y="405" type="line"/>
			<point x="509" y="490" type="line"/>
			<point x="407" y="490" type="line"/>
			<point x="461" y="830" type="line"/>
			<point x="341" y="830" type="line"/>
			<point x="231" y="756" type="line"/>
			<point x="215" y="658" type="line"/>
			<point x="353" y="747" type="line"/>
			<point x="312" y="490" type="line"/>
			<point x="179" y="490" type="line"/>
		</contour>
	</outline>
</glyph>
<glyph name="ordmasculine" format="2">
	<advance width="600"/>
	<unicode hex="00BA"/>
	<outline>
		<contour>
			<point x="327" y="450" type="curve" smooth="yes"/>
			<point x="408" y="450"/>
			<point x="471" y="502"/>
			<point x="481" y="571" type="curve" smooth="yes"/>
			<point x="489" y="620" type="line" smooth="yes"/>
			<point x="501" y="692"/>
			<point x="454" y="740"/>
			<point x="373" y="740" type="curve" smooth="yes"/>
			<point x="292" y="740"/>
			<point x="231" y="692"/>
			<point x="219" y="620" type="curve" smooth="yes"/>
			<point x="211" y="571" type="line" smooth="yes"/>
			<point x="201" y="502"/>
			<point x="246" y="450"/>
		</contour>
		<contour>
			<point x="338" y="520" type="curve" smooth="yes"/>
			<point x="305" y="520"/>
			<point x="287" y="540"/>
			<point x="291" y="571" type="curve" smooth="yes"/>
			<point x="299" y="620" type="line" smooth="yes"/>
			<point x="304" y="650"/>
			<point x="329" y="670"/>
			<point x="362" y="670" type="curve" smooth="yes"/>
			<point x="395" y="670"/>
			<point x="414" y="650"/>
			<point x="409" y="620" type="curve" smooth="yes"/>
			<point x="401" y="571" type="line" smooth="yes"/>
			<point x="397" y="540"/>
			<point x="371" y="520"/>
		</contour>
	</outline>
</glyph>
<glyph name="guillemotright" format="2">
	<advance width="600"/>
	<unicode hex="00BB"/>
	<outline>
		<contour>
			<point x="232" y="40" type="line"/>
			<point x="383" y="40" type="line"/>
			<point x="585" y="280" type="line"/>
			<point x="452" y="520" type="line"/>
			<point x="303" y="520" type="line"/>
			<point x="436" y="284" type="line"/>
		</contour>
		<contour>
			<point x="-21" y="40" type="line"/>
			<point x="133" y="40" type="line"/>
			<point x="335" y="280" type="line"/>
			<point x="202" y="520" type="line"/>
			<point x="53" y="520" type="line"/>
			<point x="186" y="284" type="line"/>
		</contour>
	</outline>
</glyph>
<glyph name="onequarter" format="2">
	<advance width="600"/>
	<unicode hex="00BC"/>
	<outline>
		<contour>
			<point x="426" y="0" type="line"/>
			<point x="516" y="0" type="line"/>
			<point x="548" y="205" type="line"/>
			<point x="458" y="205" type="line"/>
			<point x="446" y="130" type="line"/>
			<point x="371" y="130" type="line"/>
			<point x="374" y="146" type="line"/>
			<point x="537" y="325" type="line"/>
			<point x="438" y="325" type="line"/>
			<point x="286" y="160" type="line"/>
			<point x="270" y="60" type="line"/>
			<point x="435" y="60" type="line"/>
		</contour>
		<contour>
			<point x="57" y="406" type="line"/>
			<point x="351" y="406" type="line"/>
			<point x="363" y="481" type="line"/>
			<point x="273" y="481" type="line"/>
			<point x="313" y="731" type="line"/>
			<point x="198" y="731" type="line"/>
			<point x="114" y="677" type="line"/>
			<point x="99" y="579" type="line"/>
			<point x="167" y="626" type="line" smooth="yes"/>
			<point x="191" y="642"/>
			<point x="213" y="669"/>
			<point x="213" y="669" type="curve"/>
			<point x="183" y="481" type="line"/>
			<point x="69" y="481" type="line"/>
		</contour>
		<component base="fraction"/>
	</outline>
</glyph>
<glyph name="onehalf" format="2">
	<advance width="600"/>
	<unicode hex="00BD"/>
	<outline>
		<contour>
			<point x="25" y="0" type="line"/>
			<point x="106" y="0" type="line"/>
			<point x="603" y="730" type="line"/>
			<point x="522" y="730" type="line"/>
		</contour>
		<contour>
			<point x="266" y="0" type="line"/>
			<point x="541" y="0" type="line"/>
			<point x="553" y="75" type="line"/>
			<point x="453" y="75" type="line" smooth="yes"/>
			<point x="428" y="75"/>
			<point x="392" y="70"/>
			<point x="392" y="70" type="curve"/>
			<point x="394" y="79" type="line"/>
			<point x="456" y="110" type="line" smooth="yes"/>
			<point x="528" y="145"/>
			<point x="565" y="180"/>
			<point x="572" y="227" type="curve" smooth="yes"/>
			<point x="582" y="289"/>
			<point x="535" y="330"/>
			<point x="456" y="330" type="curve" smooth="yes"/>
			<point x="375" y="330"/>
			<point x="311" y="283"/>
			<point x="300" y="216" type="curve"/>
			<point x="390" y="216" type="line"/>
			<point x="394" y="242"/>
			<point x="416" y="260"/>
			<point x="445" y="260" type="curve" smooth="yes"/>
			<point x="470" y="260"/>
			<point x="485" y="244"/>
			<point x="481" y="219" type="curve" smooth="yes"/>
			<point x="478" y="199"/>
			<point x="464" y="184"/>
			<point x="436" y="169" type="curve" smooth="yes"/>
			<point x="280" y="89" type="line"/>
		</contour>
		<contour>
			<point x="57" y="406" type="line"/>
			<point x="351" y="406" type="line"/>
			<point x="363" y="481" type="line"/>
			<point x="273" y="481" type="line"/>
			<point x="313" y="731" type="line"/>
			<point x="198" y="731" type="line"/>
			<point x="114" y="677" type="line"/>
			<point x="99" y="579" type="line"/>
			<point x="167" y="626" type="line" smooth="yes"/>
			<point x="191" y="642"/>
			<point x="213" y="669"/>
			<point x="213" y="669" type="curve"/>
			<point x="183" y="481" type="line"/>
			<point x="69" y="481" type="line"/>
		</contour>
	</outline>
</glyph>
<glyph name="threequarters" format="2">
	<advance width="600"/>
	<unicode hex="00BE"/>
	<outline>
		<contour>
			<point x="426" y="0" type="line"/>
			<point x="516" y="0" type="line"/>
			<point x="548" y="205" type="line"/>
			<point x="458" y="205" type="line"/>
			<point x="446" y="130" type="line"/>
			<point x="371" y="130" type="line"/>
			<point x="374" y="146" type="line"/>
			<point x="537" y="325" type="line"/>
			<point x="438" y="325" type="line"/>
			<point x="286" y="160" type="line"/>
			<point x="270" y="60" type="line"/>
			<point x="435" y="60" type="line"/>
		</contour>
		<contour>
			<point x="174" y="400" type="curve" smooth="yes"/>
			<point x="256" y="400"/>
			<point x="317" y="444"/>
			<point x="327" y="510" type="curve" smooth="yes"/>
			<point x="336" y="570"/>
			<point x="297" y="610"/>
			<point x="228" y="610" type="curve"/>
			<point x="225" y="590" type="line"/>
			<point x="337" y="668" type="line"/>
			<point x="347" y="730" type="line"/>
			<point x="112" y="730" type="line"/>
			<point x="102" y="665" type="line"/>
			<point x="249" y="665" type="line"/>
			<point x="179" y="616" type="line"/>
			<point x="169" y="550" type="line"/>
			<point x="199" y="550" type="line" smooth="yes"/>
			<point x="226" y="550"/>
			<point x="241" y="534"/>
			<point x="237" y="510" type="curve" smooth="yes"/>
			<point x="233" y="486"/>
			<point x="213" y="470"/>
			<point x="185" y="470" type="curve" smooth="yes"/>
			<point x="156" y="470"/>
			<point x="139" y="484"/>
			<point x="143" y="505" type="curve"/>
			<point x="53" y="505" type="line"/>
			<point x="43" y="442"/>
			<point x="91" y="400"/>
		</contour>
		<component base="fraction"/>
	</outline>
</glyph>
<glyph name="questiondown" format="2">
	<advance width="600"/>
	<unicode hex="00BF"/>
	<outline>
		<contour>
			<point x="259" y="-170" type="curve" smooth="yes"/>
			<point x="414" y="-170" type="line"/>
			<point x="436" y="-30" type="line"/>
			<point x="271" y="-30" type="line" smooth="yes"/>
			<point x="215" y="-30"/>
			<point x="185" y="-4"/>
			<point x="192" y="40" type="curve" smooth="yes"/>
			<point x="199" y="84"/>
			<point x="237" y="110"/>
			<point x="292" y="110" type="curve" smooth="yes"/>
			<point x="392" y="110" type="line"/>
			<point x="421" y="325" type="line"/>
			<point x="296" y="325" type="line"/>
			<point x="284" y="245" type="line"/>
			<point x="159" y="245"/>
			<point x="62" y="163"/>
			<point x="42" y="40" type="curve" smooth="yes"/>
			<point x="22" y="-86"/>
			<point x="109" y="-170"/>
		</contour>
		<contour>
			<point x="363" y="415" type="curve" smooth="yes"/>
			<point x="393" y="415" type="line" smooth="yes"/>
			<point x="438" y="415"/>
			<point x="472" y="443"/>
			<point x="479" y="485" type="curve" smooth="yes"/>
			<point x="485" y="527"/>
			<point x="460" y="555"/>
			<point x="415" y="555" type="curve" smooth="yes"/>
			<point x="386" y="555" type="line" smooth="yes"/>
			<point x="340" y="555"/>
			<point x="306" y="528"/>
			<point x="299" y="486" type="curve" smooth="yes"/>
			<point x="292" y="443"/>
			<point x="318" y="415"/>
		</contour>
	</outline>
</glyph>
<glyph name="AE" format="2">
	<advance width="600"/>
	<unicode hex="00C6"/>
	<outline>
		<contour>
			<point x="-44" y="0" type="line"/>
			<point x="101" y="0" type="line"/>
			<point x="153" y="165" type="line"/>
			<point x="275" y="165" type="line"/>
			<point x="249" y="0" type="line"/>
			<point x="536" y="0" type="line"/>
			<point x="556" y="126" type="line"/>
			<point x="392" y="126" type="line"/>
			<point x="420" y="305" type="line"/>
			<point x="559" y="305" type="line"/>
			<point x="580" y="436" type="line"/>
			<point x="441" y="436" type="line"/>
			<point x="468" y="605" type="line"/>
			<point x="632" y="605" type="line"/>
			<point x="652" y="730" type="line"/>
			<point x="209" y="730" type="line"/>
		</contour>
		<contour>
			<point x="187" y="270" type="line"/>
			<point x="296" y="605" type="line"/>
			<point x="345" y="605" type="line"/>
			<point x="292" y="270" type="line"/>
		</contour>
	</outline>
</glyph>
<glyph name="multiply" format="2">
	<advance width="600"/>
	<unicode hex="00D7"/>
	<outline>
		<contour>
			<point x="154" y="100" type="line"/>
			<point x="293" y="221" type="line"/>
			<point x="394" y="100" type="line"/>
			<point x="513" y="203" type="line"/>
			<point x="411" y="323" type="line"/>
			<point x="551" y="443" type="line"/>
			<point x="464" y="546" type="line"/>
			<point x="325" y="426" type="line"/>
			<point x="224" y="546" type="line"/>
			<point x="105" y="443" type="line"/>
			<point x="206" y="323" type="line"/>
			<point x="67" y="203" type="line"/>
		</contour>
	</outline>
</glyph>
<glyph name="Thorn" format="2">
	<advance width="600"/>
	<unicode hex="00DE"/>
	<outline>
		<contour>
			<point x="26" y="0" type="line"/>
			<point x="176" y="0" type="line"/>
			<point x="202" y="165" type="line"/>
			<point x="322" y="165" type="line" smooth="yes"/>
			<point x="465" y="165"/>
			<point x="565" y="246"/>
			<point x="586" y="380" type="curve" smooth="yes"/>
			<point x="608" y="515"/>
			<point x="534" y="595"/>
			<point x="390" y="595" type="curve" smooth="yes"/>
			<point x="270" y="595" type="line"/>
			<point x="292" y="730" type="line"/>
			<point x="142" y="730" type="line"/>
		</contour>
		<contour>
			<point x="317" y="290" type="curve" smooth="yes"/>
			<point x="222" y="290" type="line"/>
			<point x="250" y="470" type="line"/>
			<point x="345" y="470" type="line" smooth="yes"/>
			<point x="413" y="470"/>
			<point x="445" y="438"/>
			<point x="436" y="380" type="curve" smooth="yes"/>
			<point x="427" y="322"/>
			<point x="385" y="290"/>
		</contour>
	</outline>
</glyph>
<glyph name="germandbls" format="2">
	<advance width="600"/>
	<unicode hex="00DF"/>
	<outline>
		<contour>
			<point x="-128" y="-180" type="line"/>
			<point x="-72" y="-180" type="line" smooth="yes"/>
			<point x="62" y="-180"/>
			<point x="155" y="-102"/>
			<point x="176" y="30" type="curve" smooth="yes"/>
			<point x="253" y="516" type="line" smooth="yes"/>
			<point x="262" y="574"/>
			<point x="304" y="605"/>
			<point x="357" y="605" type="curve" smooth="yes"/>
			<point x="413" y="605"/>
			<point x="443" y="572"/>
			<point x="434" y="517" type="curve" smooth="yes"/>
			<point x="425" y="462"/>
			<point x="385" y="428"/>
			<point x="329" y="428" type="curve" smooth="yes"/>
			<point x="284" y="428" type="line"/>
			<point x="266" y="318" type="line"/>
			<point x="313" y="318" type="line" smooth="yes"/>
			<point x="376" y="318"/>
			<point x="410" y="281"/>
			<point x="400" y="221" type="curve" smooth="yes"/>
			<point x="391" y="161"/>
			<point x="347" y="125"/>
			<point x="283" y="125" type="curve" smooth="yes"/>
			<point x="236" y="125" type="line"/>
			<point x="216" y="0" type="line"/>
			<point x="268" y="0" type="line" smooth="yes"/>
			<point x="417" y="0"/>
			<point x="529" y="84"/>
			<point x="549" y="209" type="curve" smooth="yes"/>
			<point x="567" y="322"/>
			<point x="494" y="397"/>
			<point x="369" y="395" type="curve"/>
			<point x="366" y="380" type="line"/>
			<point x="491" y="380"/>
			<point x="573" y="440"/>
			<point x="589" y="545" type="curve" smooth="yes"/>
			<point x="607" y="659"/>
			<point x="526" y="730"/>
			<point x="378" y="730" type="curve" smooth="yes"/>
			<point x="242" y="730"/>
			<point x="138" y="644"/>
			<point x="118" y="516" type="curve" smooth="yes"/>
			<point x="42" y="35" type="line" smooth="yes"/>
			<point x="33" y="-17"/>
			<point x="7" y="-40"/>
			<point x="-45" y="-40" type="curve" smooth="yes"/>
			<point x="-105" y="-40" type="line"/>
		</contour>
	</outline>
</glyph>
<glyph name="ae" format="2">
	<advance width="600"/>
	<unicode hex="00E6"/>
	<outline>
		<contour>
			<point x="126" y="-10" type="curve" smooth="yes"/>
			<point x="237" y="-10"/>
			<point x="262" y="65"/>
			<point x="262" y="65" type="curve"/>
			<point x="270" y="65" type="line"/>
			<point x="270" y="65"/>
			<point x="269" y="-10"/>
			<point x="374" y="-10" type="curve" smooth="yes"/>
			<point x="461" y="-10"/>
			<point x="529" y="50"/>
			<point x="543" y="140" type="curve"/>
			<point x="428" y="140" type="line"/>
			<point x="423" y="106"/>
			<point x="403" y="87"/>
			<point x="374" y="87" type="curve" smooth="yes"/>
			<point x="344" y="87"/>
			<point x="330" y="107"/>
			<point x="335" y="140" type="curve" smooth="yes"/>
			<point x="353" y="250" type="line"/>
			<point x="561" y="250" type="line"/>
			<point x="586" y="410" type="line" smooth="yes"/>
			<point x="600" y="500"/>
			<point x="552" y="560"/>
			<point x="465" y="560" type="curve" smooth="yes"/>
			<point x="360" y="560"/>
			<point x="337" y="485"/>
			<point x="337" y="485" type="curve"/>
			<point x="329" y="485" type="line"/>
			<point x="329" y="485"/>
			<point x="330" y="560"/>
			<point x="226" y="560" type="curve" smooth="yes"/>
			<point x="138" y="560"/>
			<point x="70" y="496"/>
			<point x="54" y="400" type="curve"/>
			<point x="169" y="400" type="line"/>
			<point x="176" y="440"/>
			<point x="197" y="463"/>
			<point x="228" y="463" type="curve" smooth="yes"/>
			<point x="256" y="463"/>
			<point x="269" y="443"/>
			<point x="264" y="410" type="curve" smooth="yes"/>
			<point x="251" y="330" type="line"/>
			<point x="208" y="330" type="line" smooth="yes"/>
			<point x="109" y="330"/>
			<point x="34" y="274"/>
			<point x="21" y="190" type="curve" smooth="yes"/>
			<point x="13" y="140" type="line" smooth="yes"/>
			<point x="-1" y="50"/>
			<point x="44" y="-10"/>
		</contour>
		<contour>
			<point x="169" y="87" type="curve" smooth="yes"/>
			<point x="138" y="87"/>
			<point x="123" y="107"/>
			<point x="128" y="140" type="curve" smooth="yes"/>
			<point x="136" y="190" type="line" smooth="yes"/>
			<point x="142" y="228"/>
			<point x="164" y="250"/>
			<point x="196" y="250" type="curve" smooth="yes"/>
			<point x="239" y="250" type="line"/>
			<point x="221" y="140" type="line" smooth="yes"/>
			<point x="216" y="107"/>
			<point x="196" y="87"/>
		</contour>
		<contour>
			<point x="365" y="330" type="line"/>
			<point x="378" y="410" type="line" smooth="yes"/>
			<point x="383" y="443"/>
			<point x="404" y="463"/>
			<point x="433" y="463" type="curve" smooth="yes"/>
			<point x="462" y="463"/>
			<point x="476" y="444"/>
			<point x="471" y="410" type="curve" smooth="yes"/>
			<point x="458" y="330" type="line"/>
		</contour>
	</outline>
</glyph>
<glyph name="eth" format="2">
	<advance width="600"/>
	<unicode hex="00F0"/>
	<outline>
		<contour>
			<point x="254" y="-10" type="curve" smooth="yes"/>
			<point x="416" y="-10"/>
			<point x="528" y="83"/>
			<point x="553" y="237" type="curve" smooth="yes"/>
			<point x="569" y="336"/>
			<point x="545" y="439"/>
			<point x="484" y="537" type="curve" smooth="yes"/>
			<point x="365" y="730" type="line"/>
			<point x="204" y="730" type="line"/>
			<point x="350" y="489" type="line" smooth="yes"/>
			<point x="413" y="386"/>
			<point x="404" y="365"/>
			<point x="404" y="365" type="curve"/>
			<point x="398" y="365" type="line"/>
			<point x="398" y="365"/>
			<point x="364" y="446"/>
			<point x="269" y="446" type="curve" smooth="yes"/>
			<point x="149" y="446"/>
			<point x="51" y="355"/>
			<point x="31" y="226" type="curve" smooth="yes"/>
			<point x="9" y="84"/>
			<point x="97" y="-10"/>
		</contour>
		<contour>
			<point x="274" y="115" type="curve" smooth="yes"/>
			<point x="207" y="115"/>
			<point x="171" y="158"/>
			<point x="181" y="225" type="curve" smooth="yes"/>
			<point x="192" y="292"/>
			<point x="242" y="335"/>
			<point x="309" y="335" type="curve" smooth="yes"/>
			<point x="375" y="335"/>
			<point x="411" y="291"/>
			<point x="401" y="225" type="curve" smooth="yes"/>
			<point x="390" y="158"/>
			<point x="341" y="115"/>
		</contour>
		<contour>
			<point x="140" y="492" type="line"/>
			<point x="549" y="632" type="line"/>
			<point x="565" y="737" type="line"/>
			<point x="156" y="597" type="line"/>
		</contour>
	</outline>
</glyph>
<glyph name="divide" format="2">
	<advance width="600"/>
	<unicode hex="00F7"/>
	<outline>
		<contour>
			<point x="97" y="260" type="line"/>
			<point x="497" y="260" type="line"/>
			<point x="519" y="400" type="line"/>
			<point x="119" y="400" type="line"/>
		</contour>
		<contour>
			<point x="251" y="60" type="curve" smooth="yes"/>
			<point x="280" y="60" type="line" smooth="yes"/>
			<point x="326" y="60"/>
			<point x="360" y="87"/>
			<point x="367" y="130" type="curve" smooth="yes"/>
			<point x="373" y="172"/>
			<point x="348" y="200"/>
			<point x="303" y="200" type="curve" smooth="yes"/>
			<point x="273" y="200" type="line" smooth="yes"/>
			<point x="228" y="200"/>
			<point x="193" y="172"/>
			<point x="186" y="130" type="curve" smooth="yes"/>
			<point x="180" y="88"/>
			<point x="206" y="60"/>
		</contour>
		<contour>
			<point x="314" y="460" type="curve" smooth="yes"/>
			<point x="343" y="460" type="line" smooth="yes"/>
			<point x="389" y="460"/>
			<point x="423" y="487"/>
			<point x="430" y="529" type="curve" smooth="yes"/>
			<point x="437" y="572"/>
			<point x="411" y="600"/>
			<point x="366" y="600" type="curve" smooth="yes"/>
			<point x="336" y="600" type="line" smooth="yes"/>
			<point x="291" y="600"/>
			<point x="257" y="572"/>
			<point x="250" y="530" type="curve" smooth="yes"/>
			<point x="243" y="488"/>
			<point x="269" y="460"/>
		</contour>
	</outline>
</glyph>
<glyph name="thorn" format="2">
	<advance width="600"/>
	<unicode hex="00FE"/>
	<outline>
		<contour>
			<point x="-6" y="-170" type="line"/>
			<point x="144" y="-170" type="line"/>
			<point x="175" y="50" type="line"/>
			<point x="30" y="50" type="line"/>
		</contour>
		<component base="b"/>
	</outline>
</glyph>
<glyph name="Dcroat" format="2">
	<advance width="600"/>
	<unicode hex="0110"/>
	<outline>
		<contour>
			<point x="22" y="290" type="line"/>
			<point x="302" y="290" type="line"/>
			<point x="323" y="425" type="line"/>
			<point x="43" y="425" type="line"/>
		</contour>
		<component base="D"/>
	</outline>
</glyph>
<glyph name="dcroat" format="2">
	<advance width="600"/>
	<unicode hex="0111"/>
	<outline>
		<contour>
			<point x="197" y="-10" type="curve" smooth="yes"/>
			<point x="289" y="-10"/>
			<point x="352" y="45"/>
			<point x="367" y="140" type="curve"/>
			<point x="327" y="105" type="line"/>
			<point x="362" y="105" type="line"/>
			<point x="345" y="0" type="line"/>
			<point x="490" y="0" type="line"/>
			<point x="606" y="730" type="line"/>
			<point x="456" y="730" type="line"/>
			<point x="422" y="520" type="line"/>
			<point x="406" y="385" type="line"/>
			<point x="371" y="385" type="line"/>
			<point x="400" y="350" type="line"/>
			<point x="415" y="445"/>
			<point x="369" y="500"/>
			<point x="278" y="500" type="curve" smooth="yes"/>
			<point x="168" y="500"/>
			<point x="82" y="416"/>
			<point x="61" y="285" type="curve" smooth="yes"/>
			<point x="48" y="205" type="line" smooth="yes"/>
			<point x="28" y="73"/>
			<point x="86" y="-10"/>
		</contour>
		<contour>
			<point x="272" y="120" type="curve" smooth="yes"/>
			<point x="216" y="120"/>
			<point x="190" y="152"/>
			<point x="199" y="210" type="curve" smooth="yes"/>
			<point x="210" y="280" type="line" smooth="yes"/>
			<point x="219" y="337"/>
			<point x="256" y="370"/>
			<point x="312" y="370" type="curve" smooth="yes"/>
			<point x="367" y="370"/>
			<point x="393" y="337"/>
			<point x="384" y="280" type="curve" smooth="yes"/>
			<point x="373" y="210" type="line" smooth="yes"/>
			<point x="364" y="152"/>
			<point x="327" y="120"/>
		</contour>
		<contour>
			<point x="284" y="555" type="line"/>
			<point x="644" y="555" type="line"/>
			<point x="658" y="645" type="line"/>
			<point x="298" y="645" type="line"/>
		</contour>
	</outline>
</glyph>
<glyph name="uni0123" format="2">
	<advance width="600"/>
	<unicode hex="0123"/>
	<outline>
		<contour>
			<point x="136" y="640" type="line"/>
			<point x="286" y="640" type="line"/>
			<point x="381" y="785" type="line"/>
			<point x="251" y="785" type="line"/>
		</contour>
		<component base="g"/>
	</outline>
</glyph>
<glyph name="dotlessi" format="2">
	<advance width="600"/>
	<unicode hex="0131"/>
	<outline>
		<contour>
			<point x="22" y="0" type="line"/>
			<point x="521" y="0" type="line"/>
			<point x="543" y="136" type="line"/>
			<point x="388" y="136" type="line"/>
			<point x="453" y="550" type="line"/>
			<point x="133" y="550" type="line"/>
			<point x="112" y="415" type="line"/>
			<point x="292" y="415" type="line"/>
			<point x="248" y="136" type="line"/>
			<point x="44" y="136" type="line"/>
		</contour>
	</outline>
</glyph>
<glyph name="IJ" format="2">
	<advance width="600"/>
	<unicode hex="0132"/>
	<outline>
		<contour>
			<point x="211" y="0" type="line"/>
			<point x="261" y="0" type="line" smooth="yes"/>
			<point x="421" y="0"/>
			<point x="524" y="81"/>
			<point x="546" y="224" type="curve" smooth="yes"/>
			<point x="625" y="720" type="line"/>
			<point x="335" y="720" type="line"/>
			<point x="313" y="580" type="line"/>
			<point x="453" y="580" type="line"/>
			<point x="396" y="224" type="line" smooth="yes"/>
			<point x="387" y="164"/>
			<point x="346" y="130"/>
			<point x="282" y="130" type="curve" smooth="yes"/>
			<point x="232" y="130" type="line"/>
		</contour>
		<contour>
			<point x="1" y="0" type="line"/>
			<point x="151" y="0" type="line"/>
			<point x="265" y="720" type="line"/>
			<point x="115" y="720" type="line"/>
		</contour>
	</outline>
</glyph>
<glyph name="ij" format="2">
	<advance width="600"/>
	<unicode hex="0133"/>
	<outline>
		<contour>
			<point x="150" y="-165" type="line"/>
			<point x="229" y="-165" type="line"/>
			<point x="365" y="-165"/>
			<point x="474" y="-84"/>
			<point x="492" y="30" type="curve" smooth="yes"/>
			<point x="574" y="550" type="line"/>
			<point x="424" y="550" type="line"/>
			<point x="342" y="30" type="line" smooth="yes"/>
			<point x="335" y="-11"/>
			<point x="301" y="-35"/>
			<point x="249" y="-35" type="curve"/>
			<point x="170" y="-35" type="line"/>
		</contour>
		<contour>
			<point x="37" y="0" type="line"/>
			<point x="177" y="0" type="line"/>
			<point x="264" y="550" type="line"/>
			<point x="124" y="550" type="line"/>
		</contour>
		<contour>
			<point x="187" y="625" type="curve" smooth="yes"/>
			<point x="216" y="625" type="line" smooth="yes"/>
			<point x="262" y="625"/>
			<point x="296" y="652"/>
			<point x="303" y="694" type="curve" smooth="yes"/>
			<point x="310" y="737"/>
			<point x="284" y="765"/>
			<point x="239" y="765" type="curve" smooth="yes"/>
			<point x="209" y="765" type="line" smooth="yes"/>
			<point x="164" y="765"/>
			<point x="130" y="737"/>
			<point x="123" y="695" type="curve" smooth="yes"/>
			<point x="116" y="653"/>
			<point x="142" y="625"/>
		</contour>
		<contour>
			<point x="492" y="625" type="curve" smooth="yes"/>
			<point x="521" y="625" type="line" smooth="yes"/>
			<point x="567" y="625"/>
			<point x="601" y="652"/>
			<point x="608" y="694" type="curve" smooth="yes"/>
			<point x="615" y="737"/>
			<point x="589" y="765"/>
			<point x="544" y="765" type="curve" smooth="yes"/>
			<point x="514" y="765" type="line" smooth="yes"/>
			<point x="469" y="765"/>
			<point x="435" y="737"/>
			<point x="428" y="695" type="curve" smooth="yes"/>
			<point x="421" y="653"/>
			<point x="447" y="625"/>
		</contour>
	</outline>
</glyph>
<glyph name="Lslash" format="2">
	<advance width="600"/>
	<unicode hex="0141"/>
	<outline>
		<contour>
			<point x="12" y="230" type="line"/>
			<point x="423" y="420" type="line"/>
			<point x="445" y="560" type="line"/>
			<point x="35" y="370" type="line"/>
		</contour>
		<component base="L" xOffset="10"/>
	</outline>
</glyph>
<glyph name="lslash" format="2">
	<advance width="600"/>
	<unicode hex="0142"/>
	<guideline x="-88" y="710" angle="0"/>
	<outline>
		<contour>
			<point x="92" y="230" type="line"/>
			<point x="503" y="420" type="line"/>
			<point x="525" y="560" type="line"/>
			<point x="115" y="370" type="line"/>
		</contour>
		<component base="l"/>
	</outline>
</glyph>
<glyph name="Eng" format="2">
	<advance width="600"/>
	<unicode hex="014A"/>
	<outline>
		<contour>
			<point x="177" y="-180" type="line"/>
			<point x="227" y="-180" type="line" smooth="yes"/>
			<point x="368" y="-180"/>
			<point x="481" y="-96"/>
			<point x="500" y="25" type="curve" smooth="yes"/>
			<point x="612" y="730" type="line"/>
			<point x="612" y="730"/>
			<point x="511" y="730"/>
			<point x="480" y="730" type="curve"/>
			<point x="447" y="526" type="line" smooth="yes"/>
			<point x="432" y="431"/>
			<point x="421" y="261"/>
			<point x="421" y="261" type="curve"/>
			<point x="307" y="730" type="line"/>
			<point x="132" y="730" type="line"/>
			<point x="16" y="0" type="line"/>
			<point x="16" y="0"/>
			<point x="117" y="0"/>
			<point x="148" y="0" type="curve"/>
			<point x="199" y="320" type="line" smooth="yes"/>
			<point x="214" y="415"/>
			<point x="224" y="565"/>
			<point x="223" y="565" type="curve"/>
			<point x="352" y="41" type="line"/>
			<point x="345" y="-7"/>
			<point x="311" y="-35"/>
			<point x="260" y="-35" type="curve" smooth="yes"/>
			<point x="200" y="-35" type="line"/>
		</contour>
	</outline>
</glyph>
<glyph name="eng" format="2">
	<advance width="600"/>
	<unicode hex="014B"/>
	<outline>
		<contour>
			<point x="173" y="-180" type="line"/>
			<point x="223" y="-180" type="line" smooth="yes"/>
			<point x="364" y="-180"/>
			<point x="477" y="-96"/>
			<point x="496" y="25" type="curve" smooth="yes"/>
			<point x="548" y="355" type="line" smooth="yes"/>
			<point x="568" y="479"/>
			<point x="511" y="560"/>
			<point x="403" y="560" type="curve" smooth="yes"/>
			<point x="312" y="560"/>
			<point x="247" y="503"/>
			<point x="232" y="410" type="curve"/>
			<point x="282" y="445" type="line"/>
			<point x="237" y="445" type="line"/>
			<point x="254" y="550" type="line"/>
			<point x="109" y="550" type="line"/>
			<point x="22" y="0" type="line"/>
			<point x="172" y="0" type="line"/>
			<point x="226" y="340" type="line" smooth="yes"/>
			<point x="235" y="397"/>
			<point x="271" y="430"/>
			<point x="324" y="430" type="curve" smooth="yes"/>
			<point x="378" y="430"/>
			<point x="405" y="397"/>
			<point x="396" y="340" type="curve" smooth="yes"/>
			<point x="348" y="41" type="line" smooth="yes"/>
			<point x="341" y="-7"/>
			<point x="307" y="-35"/>
			<point x="256" y="-35" type="curve" smooth="yes"/>
			<point x="196" y="-35" type="line"/>
		</contour>
	</outline>
</glyph>
<glyph name="OE" format="2">
	<advance width="600"/>
	<unicode hex="0152"/>
	<outline>
		<contour>
			<point x="130" y="-4" type="curve" smooth="yes"/>
			<point x="229" y="-4"/>
			<point x="255" y="86"/>
			<point x="255" y="86" type="curve"/>
			<point x="260" y="86" type="line"/>
			<point x="246" y="0" type="line"/>
			<point x="536" y="0" type="line"/>
			<point x="556" y="126" type="line"/>
			<point x="395" y="126" type="line"/>
			<point x="424" y="311" type="line"/>
			<point x="560" y="311" type="line"/>
			<point x="580" y="437" type="line"/>
			<point x="444" y="437" type="line"/>
			<point x="471" y="605" type="line"/>
			<point x="632" y="605" type="line"/>
			<point x="652" y="730" type="line"/>
			<point x="362" y="730" type="line"/>
			<point x="349" y="650" type="line"/>
			<point x="344" y="650" type="line"/>
			<point x="344" y="650"/>
			<point x="347" y="740"/>
			<point x="248" y="740" type="curve" smooth="yes"/>
			<point x="157" y="740"/>
			<point x="91" y="666"/>
			<point x="72" y="541" type="curve" smooth="yes"/>
			<point x="17" y="195" type="line" smooth="yes"/>
			<point x="-3" y="70"/>
			<point x="39" y="-4"/>
		</contour>
		<contour>
			<point x="202" y="121" type="curve" smooth="yes"/>
			<point x="167" y="121"/>
			<point x="150" y="149"/>
			<point x="157" y="195" type="curve" smooth="yes"/>
			<point x="212" y="541" type="line" smooth="yes"/>
			<point x="219" y="587"/>
			<point x="245" y="615"/>
			<point x="280" y="615" type="curve" smooth="yes"/>
			<point x="316" y="615"/>
			<point x="333" y="588"/>
			<point x="326" y="541" type="curve" smooth="yes"/>
			<point x="271" y="195" type="line" smooth="yes"/>
			<point x="263" y="148"/>
			<point x="238" y="121"/>
		</contour>
	</outline>
</glyph>
<glyph name="oe" format="2">
	<advance width="600"/>
	<unicode hex="0153"/>
	<outline>
		<contour>
			<point x="134" y="-10" type="curve" smooth="yes"/>
			<point x="236" y="-10"/>
			<point x="262" y="65"/>
			<point x="262" y="65" type="curve"/>
			<point x="270" y="65" type="line"/>
			<point x="270" y="65"/>
			<point x="269" y="-10"/>
			<point x="374" y="-10" type="curve" smooth="yes"/>
			<point x="461" y="-10"/>
			<point x="529" y="50"/>
			<point x="543" y="140" type="curve"/>
			<point x="428" y="140" type="line"/>
			<point x="423" y="106"/>
			<point x="403" y="87"/>
			<point x="374" y="87" type="curve" smooth="yes"/>
			<point x="344" y="87"/>
			<point x="330" y="107"/>
			<point x="335" y="140" type="curve" smooth="yes"/>
			<point x="353" y="250" type="line"/>
			<point x="561" y="250" type="line"/>
			<point x="586" y="410" type="line" smooth="yes"/>
			<point x="600" y="500"/>
			<point x="552" y="560"/>
			<point x="465" y="560" type="curve" smooth="yes"/>
			<point x="360" y="560"/>
			<point x="337" y="485"/>
			<point x="337" y="485" type="curve"/>
			<point x="329" y="485" type="line"/>
			<point x="329" y="485"/>
			<point x="327" y="560"/>
			<point x="225" y="560" type="curve" smooth="yes"/>
			<point x="138" y="560"/>
			<point x="70" y="500"/>
			<point x="56" y="410" type="curve" smooth="yes"/>
			<point x="13" y="140" type="line" smooth="yes"/>
			<point x="-1" y="50"/>
			<point x="47" y="-10"/>
		</contour>
		<contour>
			<point x="167" y="87" type="curve" smooth="yes"/>
			<point x="137" y="87"/>
			<point x="123" y="107"/>
			<point x="128" y="140" type="curve" smooth="yes"/>
			<point x="171" y="410" type="line" smooth="yes"/>
			<point x="176" y="443"/>
			<point x="197" y="463"/>
			<point x="226" y="463" type="curve" smooth="yes"/>
			<point x="255" y="463"/>
			<point x="269" y="444"/>
			<point x="264" y="410" type="curve" smooth="yes"/>
			<point x="221" y="140" type="line" smooth="yes"/>
			<point x="216" y="106"/>
			<point x="196" y="87"/>
		</contour>
		<contour>
			<point x="365" y="330" type="line"/>
			<point x="378" y="410" type="line" smooth="yes"/>
			<point x="383" y="443"/>
			<point x="404" y="463"/>
			<point x="433" y="463" type="curve" smooth="yes"/>
			<point x="462" y="463"/>
			<point x="476" y="444"/>
			<point x="471" y="410" type="curve" smooth="yes"/>
			<point x="458" y="330" type="line"/>
		</contour>
	</outline>
</glyph>
<glyph name="longs" format="2">
	<advance width="600"/>
	<unicode hex="017F"/>
	<outline>
		<contour>
			<point x="174" y="525" type="curve" smooth="yes"/>
			<point x="91" y="0" type="line"/>
			<point x="241" y="0" type="line"/>
			<point x="324" y="525" type="line" smooth="yes"/>
			<point x="331" y="570"/>
			<point x="366" y="600"/>
			<point x="411" y="600" type="curve" smooth="yes"/>
			<point x="586" y="600" type="line"/>
			<point x="607" y="730" type="line"/>
			<point x="422" y="730" type="line" smooth="yes"/>
			<point x="291" y="730"/>
			<point x="194" y="650"/>
		</contour>
	</outline>
</glyph>
<glyph name="uni018F" format="2">
	<advance width="600"/>
	<unicode hex="018F"/>
	<outline>
		<contour>
			<point x="255" y="-10" type="curve" smooth="yes"/>
			<point x="402" y="-10"/>
			<point x="508" y="78"/>
			<point x="529" y="210" type="curve" smooth="yes"/>
			<point x="578" y="520" type="line" smooth="yes"/>
			<point x="599" y="653"/>
			<point x="521" y="740"/>
			<point x="374" y="740" type="curve" smooth="yes"/>
			<point x="229" y="740"/>
			<point x="122" y="654"/>
			<point x="100" y="520" type="curve"/>
			<point x="250" y="520" type="line"/>
			<point x="259" y="578"/>
			<point x="293" y="610"/>
			<point x="354" y="610" type="curve" smooth="yes"/>
			<point x="413" y="610"/>
			<point x="438" y="578"/>
			<point x="428" y="520" type="curve"/>
			<point x="412" y="416" type="line"/>
			<point x="82" y="416" type="line"/>
			<point x="49" y="210" type="line" smooth="yes"/>
			<point x="28" y="78"/>
			<point x="110" y="-10"/>
		</contour>
		<contour>
			<point x="274" y="105" type="curve" smooth="yes"/>
			<point x="212" y="105"/>
			<point x="188" y="138"/>
			<point x="199" y="210" type="curve" smooth="yes"/>
			<point x="216" y="316" type="line"/>
			<point x="204" y="306" type="line"/>
			<point x="394" y="306" type="line"/>
			<point x="379" y="210" type="line" smooth="yes"/>
			<point x="368" y="142"/>
			<point x="339" y="105"/>
		</contour>
	</outline>
</glyph>
<glyph name="Ohorn" format="2">
	<advance width="600"/>
	<unicode hex="01A0"/>
	<outline>
		<contour>
			<point x="254" y="-10" type="curve" smooth="yes"/>
			<point x="402" y="-10"/>
			<point x="508" y="78"/>
			<point x="529" y="210" type="curve" smooth="yes"/>
			<point x="578" y="520" type="line" smooth="yes"/>
			<point x="599" y="652"/>
			<point x="521" y="740"/>
			<point x="373" y="740" type="curve" smooth="yes"/>
			<point x="226" y="740"/>
			<point x="119" y="652"/>
			<point x="98" y="520" type="curve" smooth="yes"/>
			<point x="49" y="210" type="line" smooth="yes"/>
			<point x="28" y="78"/>
			<point x="107" y="-10"/>
		</contour>
		<contour>
			<point x="275" y="120" type="curve" smooth="yes"/>
			<point x="215" y="120"/>
			<point x="190" y="152"/>
			<point x="199" y="210" type="curve" smooth="yes"/>
			<point x="248" y="520" type="line" smooth="yes"/>
			<point x="258" y="578"/>
			<point x="292" y="610"/>
			<point x="353" y="610" type="curve" smooth="yes"/>
			<point x="414" y="610"/>
			<point x="438" y="578"/>
			<point x="428" y="520" type="curve" smooth="yes"/>
			<point x="379" y="210" type="line" smooth="yes"/>
			<point x="370" y="152"/>
			<point x="335" y="120"/>
		</contour>
		<contour>
			<point x="459" y="590" type="line"/>
			<point x="494" y="590" type="line" smooth="yes"/>
			<point x="584" y="590"/>
			<point x="654" y="648"/>
			<point x="667" y="735" type="curve" smooth="yes"/>
			<point x="684" y="840" type="line"/>
			<point x="564" y="840" type="line"/>
			<point x="546" y="729" type="line" smooth="yes"/>
			<point x="543" y="706"/>
			<point x="525" y="690"/>
			<point x="503" y="690" type="curve" smooth="yes"/>
			<point x="475" y="690" type="line"/>
		</contour>
	</outline>
</glyph>
<glyph name="ohorn" format="2">
	<advance width="600"/>
	<unicode hex="01A1"/>
	<outline>
		<contour>
			<point x="254" y="-10" type="curve" smooth="yes"/>
			<point x="402" y="-10"/>
			<point x="508" y="78"/>
			<point x="529" y="210" type="curve" smooth="yes"/>
			<point x="550" y="340" type="line" smooth="yes"/>
			<point x="571" y="472"/>
			<point x="492" y="560"/>
			<point x="345" y="560" type="curve" smooth="yes"/>
			<point x="197" y="560"/>
			<point x="91" y="472"/>
			<point x="70" y="340" type="curve" smooth="yes"/>
			<point x="49" y="210" type="line" smooth="yes"/>
			<point x="28" y="78"/>
			<point x="107" y="-10"/>
		</contour>
		<contour>
			<point x="275" y="120" type="curve" smooth="yes"/>
			<point x="217" y="120"/>
			<point x="190" y="152"/>
			<point x="199" y="210" type="curve" smooth="yes"/>
			<point x="220" y="340" type="line" smooth="yes"/>
			<point x="229" y="398"/>
			<point x="266" y="430"/>
			<point x="324" y="430" type="curve" smooth="yes"/>
			<point x="382" y="430"/>
			<point x="409" y="398"/>
			<point x="400" y="340" type="curve" smooth="yes"/>
			<point x="379" y="210" type="line" smooth="yes"/>
			<point x="370" y="152"/>
			<point x="333" y="120"/>
		</contour>
		<contour>
			<point x="423" y="420" type="line"/>
			<point x="463" y="420" type="line" smooth="yes"/>
			<point x="547" y="420"/>
			<point x="612" y="478"/>
			<point x="625" y="565" type="curve" smooth="yes"/>
			<point x="641" y="660" type="line"/>
			<point x="531" y="660" type="line"/>
			<point x="515" y="559" type="line" smooth="yes"/>
			<point x="511" y="536"/>
			<point x="493" y="520"/>
			<point x="471" y="520" type="curve" smooth="yes"/>
			<point x="438" y="520" type="line"/>
		</contour>
	</outline>
</glyph>
<glyph name="uni0237" format="2">
	<advance width="600"/>
	<unicode hex="0237"/>
	<outline>
		<contour>
			<point x="7" y="-180" type="line"/>
			<point x="178" y="-180" type="line" smooth="yes"/>
			<point x="316" y="-180"/>
			<point x="416" y="-96"/>
			<point x="437" y="40" type="curve" smooth="yes"/>
			<point x="518" y="550" type="line"/>
			<point x="153" y="550" type="line"/>
			<point x="131" y="410" type="line"/>
			<point x="346" y="410" type="line"/>
			<point x="288" y="45" type="line" smooth="yes"/>
			<point x="280" y="-9"/>
			<point x="244" y="-40"/>
			<point x="190" y="-40" type="curve" smooth="yes"/>
			<point x="30" y="-40" type="line"/>
		</contour>
	</outline>
</glyph>
<glyph name="uni0259" format="2">
	<advance width="600"/>
	<unicode hex="0259"/>
	<outline>
		<contour>
			<point x="253" y="-10" type="curve" smooth="yes"/>
			<point x="400" y="-10"/>
			<point x="508" y="78"/>
			<point x="529" y="210" type="curve" smooth="yes"/>
			<point x="550" y="340" type="line" smooth="yes"/>
			<point x="571" y="472"/>
			<point x="491" y="560"/>
			<point x="344" y="560" type="curve" smooth="yes"/>
			<point x="225" y="560"/>
			<point x="123" y="496"/>
			<point x="84" y="400" type="curve"/>
			<point x="231" y="400" type="line"/>
			<point x="245" y="428"/>
			<point x="277" y="445"/>
			<point x="323" y="445" type="curve" smooth="yes"/>
			<point x="391" y="445"/>
			<point x="418" y="409"/>
			<point x="407" y="340" type="curve" smooth="yes"/>
			<point x="402" y="310" type="line"/>
			<point x="65" y="310" type="line"/>
			<point x="49" y="210" type="line" smooth="yes"/>
			<point x="28" y="78"/>
			<point x="108" y="-10"/>
		</contour>
		<contour>
			<point x="272" y="105" type="curve" smooth="yes"/>
			<point x="206" y="105"/>
			<point x="182" y="142"/>
			<point x="192" y="210" type="curve" smooth="yes"/>
			<point x="196" y="235" type="line"/>
			<point x="185" y="225" type="line"/>
			<point x="389" y="225" type="line"/>
			<point x="386" y="210" type="line" smooth="yes"/>
			<point x="375" y="142"/>
			<point x="337" y="105"/>
		</contour>
	</outline>
</glyph>
<glyph name="uni02B9" format="2">
	<advance width="600"/>
	<unicode hex="02B9"/>
	<outline>
		<contour>
			<point x="161" y="409" type="line"/>
			<point x="291" y="409" type="line"/>
			<point x="470" y="720" type="line"/>
			<point x="290" y="720" type="line"/>
		</contour>
	</outline>
</glyph>
<glyph name="uni02BA" format="2">
	<advance width="600"/>
	<unicode hex="02BA"/>
	<outline>
		<contour>
			<point x="336" y="409" type="line"/>
			<point x="466" y="409" type="line"/>
			<point x="645" y="720" type="line"/>
			<point x="465" y="720" type="line"/>
		</contour>
		<contour>
			<point x="61" y="409" type="line"/>
			<point x="191" y="409" type="line"/>
			<point x="370" y="720" type="line"/>
			<point x="190" y="720" type="line"/>
		</contour>
	</outline>
</glyph>
<glyph name="uni02BC" format="2">
	<advance width="600"/>
	<unicode hex="02BC"/>
	<outline>
		<contour>
			<point x="170" y="465" type="line"/>
			<point x="300" y="465" type="line"/>
			<point x="479" y="776" type="line"/>
			<point x="299" y="776" type="line"/>
		</contour>
	</outline>
</glyph>
<glyph name="circumflex" format="2">
	<advance width="600"/>
	<unicode hex="02C6"/>
	<outline>
		<contour>
			<point x="153" y="645" type="line"/>
			<point x="289" y="645" type="line"/>
			<point x="363" y="715" type="line"/>
			<point x="372" y="715" type="line"/>
			<point x="428" y="645" type="line"/>
			<point x="563" y="645" type="line"/>
			<point x="450" y="785" type="line"/>
			<point x="309" y="785" type="line"/>
		</contour>
	</outline>
</glyph>
<glyph name="caron" format="2">
	<advance width="600"/>
	<unicode hex="02C7"/>
	<outline>
		<contour>
			<point x="288" y="645" type="line"/>
			<point x="429" y="645" type="line"/>
			<point x="585" y="785" type="line"/>
			<point x="451" y="785" type="line"/>
			<point x="373" y="715" type="line"/>
			<point x="364" y="715" type="line"/>
			<point x="312" y="785" type="line"/>
			<point x="175" y="785" type="line"/>
		</contour>
	</outline>
</glyph>
<glyph name="breve" format="2">
	<advance width="600"/>
	<unicode hex="02D8"/>
	<outline>
		<contour>
			<point x="357" y="635" type="curve" smooth="yes"/>
			<point x="468" y="635"/>
			<point x="551" y="695"/>
			<point x="565" y="785" type="curve"/>
			<point x="450" y="785" type="line"/>
			<point x="444" y="748"/>
			<point x="414" y="725"/>
			<point x="371" y="725" type="curve" smooth="yes"/>
			<point x="328" y="725"/>
			<point x="305" y="748"/>
			<point x="311" y="785" type="curve"/>
			<point x="196" y="785" type="line"/>
			<point x="182" y="695"/>
			<point x="246" y="635"/>
		</contour>
	</outline>
</glyph>
<glyph name="dotaccent" format="2">
	<advance width="600"/>
	<unicode hex="02D9"/>
	<outline>
		<contour>
			<point x="332" y="635" type="curve" smooth="yes"/>
			<point x="361" y="635" type="line" smooth="yes"/>
			<point x="404" y="635"/>
			<point x="441" y="664"/>
			<point x="448" y="705" type="curve" smooth="yes"/>
			<point x="454" y="746"/>
			<point x="427" y="775"/>
			<point x="384" y="775" type="curve" smooth="yes"/>
			<point x="354" y="775" type="line" smooth="yes"/>
			<point x="310" y="775"/>
			<point x="274" y="746"/>
			<point x="268" y="705" type="curve" smooth="yes"/>
			<point x="261" y="664"/>
			<point x="288" y="635"/>
		</contour>
	</outline>
</glyph>
<glyph name="ring" format="2">
	<advance width="600"/>
	<unicode hex="02DA"/>
	<outline>
		<contour>
			<point x="350" y="595" type="curve" smooth="yes"/>
			<point x="428" y="595"/>
			<point x="487" y="637"/>
			<point x="497" y="700" type="curve" smooth="yes"/>
			<point x="507" y="763"/>
			<point x="462" y="805"/>
			<point x="384" y="805" type="curve" smooth="yes"/>
			<point x="306" y="805"/>
			<point x="247" y="763"/>
			<point x="237" y="700" type="curve" smooth="yes"/>
			<point x="227" y="637"/>
			<point x="272" y="595"/>
		</contour>
		<contour>
			<point x="358" y="649" type="curve" smooth="yes"/>
			<point x="322" y="649"/>
			<point x="302" y="669"/>
			<point x="307" y="700" type="curve" smooth="yes"/>
			<point x="312" y="731"/>
			<point x="338" y="751"/>
			<point x="374" y="751" type="curve" smooth="yes"/>
			<point x="411" y="751"/>
			<point x="432" y="731"/>
			<point x="427" y="700" type="curve" smooth="yes"/>
			<point x="422" y="669"/>
			<point x="395" y="649"/>
		</contour>
	</outline>
</glyph>
<glyph name="ogonek" format="2">
	<advance width="600"/>
	<unicode hex="02DB"/>
	<outline>
		<contour>
			<point x="216" y="-225" type="curve" smooth="yes"/>
			<point x="324" y="-225" type="line"/>
			<point x="341" y="-120" type="line"/>
			<point x="272" y="-120" type="line" smooth="yes"/>
			<point x="243" y="-120"/>
			<point x="227" y="-103"/>
			<point x="231" y="-83" type="curve" smooth="yes"/>
			<point x="234" y="-66"/>
			<point x="253" y="-42"/>
			<point x="283" y="-18" type="curve" smooth="yes"/>
			<point x="319" y="11" type="line"/>
			<point x="233" y="11" type="line"/>
			<point x="161" y="-19"/>
			<point x="110" y="-68"/>
			<point x="102" y="-115" type="curve" smooth="yes"/>
			<point x="91" y="-180"/>
			<point x="135" y="-225"/>
		</contour>
	</outline>
</glyph>
<glyph name="tilde" format="2">
	<advance width="600"/>
	<unicode hex="02DC"/>
	<outline>
		<contour>
			<point x="427" y="635" type="curve" smooth="yes"/>
			<point x="493" y="635"/>
			<point x="544" y="681"/>
			<point x="555" y="750" type="curve" smooth="yes"/>
			<point x="560" y="785" type="line"/>
			<point x="475" y="785" type="line"/>
			<point x="469" y="748" type="line" smooth="yes"/>
			<point x="467" y="731"/>
			<point x="453" y="720"/>
			<point x="435" y="720" type="curve" smooth="yes"/>
			<point x="395" y="720"/>
			<point x="396" y="790"/>
			<point x="311" y="790" type="curve" smooth="yes"/>
			<point x="245" y="790"/>
			<point x="194" y="744"/>
			<point x="183" y="675" type="curve" smooth="yes"/>
			<point x="177" y="640" type="line"/>
			<point x="262" y="640" type="line"/>
			<point x="267" y="672" type="line" smooth="yes"/>
			<point x="271" y="692"/>
			<point x="285" y="705"/>
			<point x="303" y="705" type="curve" smooth="yes"/>
			<point x="343" y="705"/>
			<point x="342" y="635"/>
		</contour>
	</outline>
</glyph>
<glyph name="hungarumlaut" format="2">
	<advance width="600"/>
	<unicode hex="02DD"/>
	<outline>
		<contour>
			<point x="388" y="645" type="line"/>
			<point x="518" y="645" type="line"/>
			<point x="655" y="785" type="line"/>
			<point x="515" y="785" type="line"/>
		</contour>
		<contour>
			<point x="183" y="645" type="line"/>
			<point x="313" y="645" type="line"/>
			<point x="450" y="785" type="line"/>
			<point x="310" y="785" type="line"/>
		</contour>
	</outline>
</glyph>
<glyph name="hookabovecomb" format="2">
	<advance width="0"/>
	<unicode hex="0309"/>
	<outline>
		<contour>
			<point x="-241" y="699" type="curve" smooth="yes"/>
			<point x="-299" y="641" type="line"/>
			<point x="-189" y="641" type="line"/>
			<point x="-148" y="683" type="line" smooth="yes"/>
			<point x="-131" y="700"/>
			<point x="-120" y="722"/>
			<point x="-116" y="744" type="curve" smooth="yes"/>
			<point x="-108" y="796"/>
			<point x="-144" y="830"/>
			<point x="-208" y="830" type="curve" smooth="yes"/>
			<point x="-313" y="830" type="line"/>
			<point x="-326" y="745" type="line"/>
			<point x="-246" y="745" type="line" smooth="yes"/>
			<point x="-227" y="745"/>
			<point x="-220" y="741"/>
			<point x="-222" y="728" type="curve" smooth="yes"/>
			<point x="-223" y="720"/>
			<point x="-228" y="712"/>
		</contour>
	</outline>
</glyph>
<glyph name="uni031B" format="2">
	<advance width="0"/>
	<unicode hex="031B"/>
	<outline>
		<contour>
			<point x="-173" y="450" type="line"/>
			<point x="-133" y="450" type="line" smooth="yes"/>
			<point x="-46" y="450"/>
			<point x="21" y="504"/>
			<point x="34" y="585" type="curve" smooth="yes"/>
			<point x="46" y="660" type="line"/>
			<point x="-74" y="660" type="line"/>
			<point x="-86" y="585" type="line" smooth="yes"/>
			<point x="-90" y="563"/>
			<point x="-105" y="550"/>
			<point x="-127" y="550" type="curve" smooth="yes"/>
			<point x="-157" y="550" type="line"/>
		</contour>
	</outline>
</glyph>
<glyph name="dotbelowcomb" format="2">
	<advance width="0"/>
	<unicode hex="0323"/>
	<outline>
		<contour>
			<point x="-404" y="-220" type="curve" smooth="yes"/>
			<point x="-375" y="-220" type="line" smooth="yes"/>
			<point x="-331" y="-220"/>
			<point x="-294" y="-191"/>
			<point x="-288" y="-151" type="curve" smooth="yes"/>
			<point x="-281" y="-109"/>
			<point x="-308" y="-80"/>
			<point x="-352" y="-80" type="curve" smooth="yes"/>
			<point x="-382" y="-80" type="line" smooth="yes"/>
			<point x="-425" y="-80"/>
			<point x="-461" y="-109"/>
			<point x="-468" y="-150" type="curve" smooth="yes"/>
			<point x="-474" y="-191"/>
			<point x="-447" y="-220"/>
		</contour>
	</outline>
</glyph>
<glyph name="uni0326" format="2">
	<advance width="0"/>
	<unicode hex="0326"/>
	<outline>
		<contour>
			<point x="-482" y="-240" type="line"/>
			<point x="-352" y="-240" type="line"/>
			<point x="-214" y="-95" type="line"/>
			<point x="-364" y="-95" type="line"/>
		</contour>
	</outline>
</glyph>
<glyph name="uni0336" format="2">
	<advance width="0"/>
	<unicode hex="0336"/>
	<guideline x="-286" y="300" angle="0"/>
	<outline>
		<contour>
			<point x="-633" y="260" type="line"/>
			<point x="27" y="260" type="line"/>
			<point x="45" y="371" type="line"/>
			<point x="-615" y="371" type="line"/>
		</contour>
	</outline>
</glyph>
<glyph name="uni0338" format="2">
	<advance width="0"/>
	<unicode hex="0338"/>
	<outline>
		<contour>
			<point x="-538" y="-60" type="line"/>
			<point x="-448" y="-60" type="line"/>
			<point x="-36" y="780" type="line"/>
			<point x="-126" y="780" type="line"/>
		</contour>
	</outline>
</glyph>
<glyph name="uni0374" format="2">
	<advance width="600"/>
	<unicode hex="0374"/>
	<outline>
		<contour>
			<point x="161" y="409" type="line"/>
			<point x="291" y="409" type="line"/>
			<point x="470" y="720" type="line"/>
			<point x="290" y="720" type="line"/>
		</contour>
	</outline>
</glyph>
<glyph name="uni0394" format="2">
	<advance width="600"/>
	<unicode hex="0394"/>
	<outline>
		<contour>
			<point x="-19" y="0" type="line"/>
			<point x="133" y="0" type="line"/>
			<point x="303" y="462" type="line" smooth="yes"/>
			<point x="323" y="516"/>
			<point x="347" y="590"/>
			<point x="347" y="590" type="curve"/>
			<point x="347" y="590"/>
			<point x="349" y="516"/>
			<point x="352" y="461" type="curve" smooth="yes"/>
			<point x="377" y="0" type="line"/>
			<point x="531" y="0" type="line"/>
			<point x="466" y="730" type="line"/>
			<point x="276" y="730" type="line"/>
		</contour>
		<contour>
			<point x="116" y="0" type="line"/>
			<point x="406" y="0" type="line"/>
			<point x="427" y="130" type="line"/>
			<point x="137" y="130" type="line"/>
		</contour>
	</outline>
</glyph>
<glyph name="uni03A9" format="2">
	<advance width="600"/>
	<unicode hex="03A9"/>
	<outline>
		<contour>
			<point x="6" y="0" type="line"/>
			<point x="216" y="0" type="line"/>
			<point x="252" y="230" type="line"/>
			<point x="215" y="230"/>
			<point x="195" y="258"/>
			<point x="202" y="300" type="curve" smooth="yes"/>
			<point x="236" y="516" type="line" smooth="yes"/>
			<point x="245" y="573"/>
			<point x="291" y="610"/>
			<point x="353" y="610" type="curve" smooth="yes"/>
			<point x="415" y="610"/>
			<point x="449" y="573"/>
			<point x="440" y="516" type="curve" smooth="yes"/>
			<point x="406" y="300" type="line" smooth="yes"/>
			<point x="399" y="258"/>
			<point x="369" y="230"/>
			<point x="332" y="230" type="curve"/>
			<point x="296" y="0" type="line"/>
			<point x="507" y="0" type="line"/>
			<point x="529" y="140" type="line"/>
			<point x="383" y="140" type="line"/>
			<point x="384" y="146" type="line"/>
			<point x="384" y="146"/>
			<point x="533" y="160"/>
			<point x="556" y="305" type="curve" smooth="yes"/>
			<point x="590" y="516" type="line" smooth="yes"/>
			<point x="611" y="651"/>
			<point x="525" y="740"/>
			<point x="373" y="740" type="curve" smooth="yes"/>
			<point x="221" y="740"/>
			<point x="107" y="651"/>
			<point x="86" y="516" type="curve" smooth="yes"/>
			<point x="52" y="305" type="line" smooth="yes"/>
			<point x="29" y="160"/>
			<point x="174" y="145"/>
			<point x="174" y="145" type="curve"/>
			<point x="173" y="140" type="line"/>
			<point x="28" y="140" type="line"/>
		</contour>
	</outline>
</glyph>
<glyph name="lambda" format="2">
	<advance width="600"/>
	<unicode hex="03BB"/>
	<outline>
		<contour>
			<point x="-19" y="0" type="line"/>
			<point x="143" y="0" type="line"/>
			<point x="286" y="297" type="line" smooth="yes"/>
			<point x="307" y="341"/>
			<point x="327" y="403"/>
			<point x="327" y="403" type="curve"/>
			<point x="327" y="403"/>
			<point x="324" y="340"/>
			<point x="330" y="297" type="curve" smooth="yes"/>
			<point x="374" y="0" type="line"/>
			<point x="531" y="0" type="line"/>
			<point x="390" y="730" type="line"/>
			<point x="233" y="730" type="line"/>
			<point x="278" y="545" type="line"/>
		</contour>
	</outline>
</glyph>
<glyph name="pi" format="2">
	<advance width="600"/>
	<unicode hex="03C0"/>
	<outline>
		<contour>
			<point x="505" y="-5" type="curve" smooth="yes"/>
			<point x="545" y="-5" type="line"/>
			<point x="567" y="130" type="line"/>
			<point x="537" y="130" type="line" smooth="yes"/>
			<point x="501" y="130"/>
			<point x="481" y="158"/>
			<point x="488" y="200" type="curve" smooth="yes"/>
			<point x="521" y="410" type="line"/>
			<point x="596" y="410" type="line"/>
			<point x="618" y="550" type="line"/>
			<point x="52" y="550" type="line"/>
			<point x="30" y="410" type="line"/>
			<point x="100" y="410" type="line"/>
			<point x="35" y="0" type="line"/>
			<point x="180" y="0" type="line"/>
			<point x="245" y="410" type="line"/>
			<point x="376" y="410" type="line"/>
			<point x="341" y="191" type="line" smooth="yes"/>
			<point x="322" y="71"/>
			<point x="385" y="-5"/>
		</contour>
	</outline>
</glyph>
<glyph name="uni0402" format="2">
	<advance width="600"/>
	<unicode hex="0402"/>
	<outline>
		<contour>
			<point x="212" y="-180" type="line"/>
			<point x="262" y="-180" type="line" smooth="yes"/>
			<point x="403" y="-180"/>
			<point x="516" y="-96"/>
			<point x="535" y="25" type="curve" smooth="yes"/>
			<point x="576" y="290" type="line" smooth="yes"/>
			<point x="595" y="414"/>
			<point x="540" y="495"/>
			<point x="436" y="495" type="curve" smooth="yes"/>
			<point x="385" y="495"/>
			<point x="336" y="475"/>
			<point x="289" y="434" type="curve" smooth="yes"/>
			<point x="273" y="420" type="line"/>
			<point x="299" y="590" type="line"/>
			<point x="409" y="590" type="line"/>
			<point x="432" y="730" type="line"/>
			<point x="72" y="730" type="line"/>
			<point x="49" y="590" type="line"/>
			<point x="149" y="590" type="line"/>
			<point x="56" y="0" type="line"/>
			<point x="206" y="0" type="line"/>
			<point x="252" y="290" type="line"/>
			<point x="290" y="323" type="line" smooth="yes"/>
			<point x="324" y="352"/>
			<point x="351" y="365"/>
			<point x="378" y="365" type="curve" smooth="yes"/>
			<point x="417" y="365"/>
			<point x="433" y="337"/>
			<point x="425" y="285" type="curve" smooth="yes"/>
			<point x="387" y="41" type="line" smooth="yes"/>
			<point x="380" y="-7"/>
			<point x="346" y="-35"/>
			<point x="295" y="-35" type="curve" smooth="yes"/>
			<point x="235" y="-35" type="line"/>
		</contour>
	</outline>
</glyph>
<glyph name="uni0404" format="2">
	<advance width="600"/>
	<unicode hex="0404"/>
	<outline>
		<contour>
			<point x="258" y="-10" type="curve" smooth="yes"/>
			<point x="405" y="-10"/>
			<point x="516" y="77"/>
			<point x="537" y="210" type="curve"/>
			<point x="387" y="210" type="line"/>
			<point x="378" y="152"/>
			<point x="339" y="120"/>
			<point x="279" y="120" type="curve" smooth="yes"/>
			<point x="219" y="120"/>
			<point x="190" y="152"/>
			<point x="199" y="210" type="curve" smooth="yes"/>
			<point x="248" y="520" type="line" smooth="yes"/>
			<point x="258" y="578"/>
			<point x="297" y="610"/>
			<point x="357" y="610" type="curve" smooth="yes"/>
			<point x="417" y="610"/>
			<point x="446" y="578"/>
			<point x="436" y="520" type="curve"/>
			<point x="586" y="520" type="line"/>
			<point x="607" y="653"/>
			<point x="524" y="740"/>
			<point x="377" y="740" type="curve" smooth="yes"/>
			<point x="230" y="740"/>
			<point x="119" y="653"/>
			<point x="98" y="520" type="curve" smooth="yes"/>
			<point x="49" y="210" type="line" smooth="yes"/>
			<point x="28" y="78"/>
			<point x="111" y="-10"/>
		</contour>
		<contour>
			<point x="192" y="300" type="line"/>
			<point x="419" y="300" type="line"/>
			<point x="440" y="435" type="line"/>
			<point x="213" y="435" type="line"/>
		</contour>
	</outline>
</glyph>
<glyph name="uni0409" format="2">
	<advance width="600"/>
	<unicode hex="0409"/>
	<outline>
		<contour>
			<point x="-55" y="-5" type="line"/>
			<point x="-25" y="-5" type="line" smooth="yes"/>
			<point x="76" y="-5"/>
			<point x="157" y="79"/>
			<point x="178" y="205" type="curve" smooth="yes"/>
			<point x="249" y="620" type="line"/>
			<point x="329" y="620" type="line"/>
			<point x="231" y="0" type="line"/>
			<point x="356" y="0" type="line" smooth="yes"/>
			<point x="473" y="0"/>
			<point x="557" y="69"/>
			<point x="575" y="185" type="curve" smooth="yes"/>
			<point x="587" y="259" type="line" smooth="yes"/>
			<point x="606" y="376"/>
			<point x="543" y="445"/>
			<point x="426" y="445" type="curve" smooth="yes"/>
			<point x="421" y="445" type="line"/>
			<point x="467" y="730" type="line"/>
			<point x="149" y="730" type="line"/>
			<point x="58" y="205" type="line" smooth="yes"/>
			<point x="49" y="147"/>
			<point x="19" y="110"/>
			<point x="-17" y="110" type="curve" smooth="yes"/>
			<point x="-37" y="110" type="line"/>
		</contour>
		<contour>
			<point x="373" y="110" type="curve" smooth="yes"/>
			<point x="368" y="110" type="line"/>
			<point x="404" y="335" type="line"/>
			<point x="409" y="335" type="line" smooth="yes"/>
			<point x="453" y="335"/>
			<point x="475" y="307"/>
			<point x="467" y="257" type="curve" smooth="yes"/>
			<point x="455" y="186" type="line" smooth="yes"/>
			<point x="448" y="137"/>
			<point x="417" y="110"/>
		</contour>
	</outline>
</glyph>
<glyph name="uni040A" format="2">
	<advance width="600"/>
	<unicode hex="040A"/>
	<outline>
		<contour>
			<point x="-4" y="0" type="line"/>
			<point x="116" y="0" type="line"/>
			<point x="171" y="345" type="line"/>
			<point x="286" y="345" type="line"/>
			<point x="231" y="0" type="line"/>
			<point x="356" y="0" type="line" smooth="yes"/>
			<point x="474" y="0"/>
			<point x="557" y="70"/>
			<point x="575" y="185" type="curve" smooth="yes"/>
			<point x="589" y="269" type="line" smooth="yes"/>
			<point x="607" y="385"/>
			<point x="546" y="455"/>
			<point x="428" y="455" type="curve" smooth="yes"/>
			<point x="423" y="455" type="line"/>
			<point x="467" y="730" type="line"/>
			<point x="347" y="730" type="line"/>
			<point x="303" y="455" type="line"/>
			<point x="188" y="455" type="line"/>
			<point x="232" y="730" type="line"/>
			<point x="112" y="730" type="line"/>
		</contour>
		<contour>
			<point x="373" y="110" type="curve" smooth="yes"/>
			<point x="368" y="110" type="line"/>
			<point x="406" y="345" type="line"/>
			<point x="411" y="345" type="line" smooth="yes"/>
			<point x="455" y="345"/>
			<point x="476" y="317"/>
			<point x="468" y="267" type="curve" smooth="yes"/>
			<point x="455" y="186" type="line" smooth="yes"/>
			<point x="448" y="138"/>
			<point x="418" y="110"/>
		</contour>
	</outline>
</glyph>
<glyph name="uni040B" format="2">
	<advance width="600"/>
	<unicode hex="040B"/>
	<outline>
		<contour>
			<point x="56" y="0" type="line"/>
			<point x="206" y="0" type="line"/>
			<point x="252" y="290" type="line"/>
			<point x="290" y="323" type="line" smooth="yes"/>
			<point x="324" y="352"/>
			<point x="351" y="365"/>
			<point x="378" y="365" type="curve" smooth="yes"/>
			<point x="417" y="365"/>
			<point x="433" y="337"/>
			<point x="425" y="285" type="curve" smooth="yes"/>
			<point x="381" y="0" type="line"/>
			<point x="531" y="0" type="line"/>
			<point x="576" y="290" type="line" smooth="yes"/>
			<point x="595" y="414"/>
			<point x="540" y="495"/>
			<point x="436" y="495" type="curve" smooth="yes"/>
			<point x="385" y="495"/>
			<point x="336" y="475"/>
			<point x="289" y="434" type="curve" smooth="yes"/>
			<point x="273" y="420" type="line"/>
			<point x="299" y="590" type="line"/>
			<point x="409" y="590" type="line"/>
			<point x="432" y="730" type="line"/>
			<point x="72" y="730" type="line"/>
			<point x="49" y="590" type="line"/>
			<point x="149" y="590" type="line"/>
		</contour>
	</outline>
</glyph>
<glyph name="uni040F" format="2">
	<advance width="600"/>
	<unicode hex="040F"/>
	<outline>
		<contour>
			<point x="161" y="-125" type="line"/>
			<point x="311" y="-125" type="line"/>
			<point x="331" y="0" type="line"/>
			<point x="490" y="0" type="line"/>
			<point x="606" y="730" type="line"/>
			<point x="456" y="730" type="line"/>
			<point x="362" y="140" type="line"/>
			<point x="194" y="140" type="line"/>
			<point x="288" y="730" type="line"/>
			<point x="138" y="730" type="line"/>
			<point x="22" y="0" type="line"/>
			<point x="181" y="0" type="line"/>
		</contour>
	</outline>
</glyph>
<glyph name="uni0411" format="2">
	<advance width="600"/>
	<unicode hex="0411"/>
	<outline>
		<contour>
			<point x="22" y="0" type="line"/>
			<point x="266" y="0" type="line" smooth="yes"/>
			<point x="416" y="0"/>
			<point x="530" y="89"/>
			<point x="551" y="223" type="curve" smooth="yes"/>
			<point x="572" y="356"/>
			<point x="486" y="444"/>
			<point x="335" y="444" type="curve" smooth="yes"/>
			<point x="237" y="444" type="line"/>
			<point x="260" y="590" type="line"/>
			<point x="577" y="590" type="line"/>
			<point x="600" y="730" type="line"/>
			<point x="138" y="730" type="line"/>
		</contour>
		<contour>
			<point x="286" y="125" type="curve" smooth="yes"/>
			<point x="187" y="125" type="line"/>
			<point x="218" y="319" type="line"/>
			<point x="317" y="319" type="line" smooth="yes"/>
			<point x="378" y="319"/>
			<point x="410" y="281"/>
			<point x="401" y="221" type="curve" smooth="yes"/>
			<point x="392" y="162"/>
			<point x="347" y="125"/>
		</contour>
	</outline>
</glyph>
<glyph name="uni0413" format="2">
	<advance width="600"/>
	<unicode hex="0413"/>
	<outline>
		<contour>
			<point x="51" y="0" type="line"/>
			<point x="201" y="0" type="line"/>
			<point x="294" y="590" type="line"/>
			<point x="589" y="590" type="line"/>
			<point x="612" y="730" type="line"/>
			<point x="167" y="730" type="line"/>
		</contour>
	</outline>
</glyph>
<glyph name="uni0414" format="2">
	<advance width="600"/>
	<unicode hex="0414"/>
	<outline>
		<contour>
			<point x="-44" y="-140" type="line"/>
			<point x="96" y="-140" type="line"/>
			<point x="118" y="0" type="line"/>
			<point x="394" y="0" type="line"/>
			<point x="372" y="-140" type="line"/>
			<point x="512" y="-140" type="line"/>
			<point x="554" y="128" type="line"/>
			<point x="494" y="128" type="line"/>
			<point x="590" y="730" type="line"/>
			<point x="185" y="730" type="line"/>
			<point x="117" y="340" type="line" smooth="yes"/>
			<point x="94" y="209"/>
			<point x="29" y="128"/>
			<point x="29" y="128" type="curve"/>
			<point x="-2" y="128" type="line"/>
		</contour>
		<contour>
			<point x="176" y="128" type="line"/>
			<point x="176" y="128"/>
			<point x="235" y="214"/>
			<point x="257" y="341" type="curve" smooth="yes"/>
			<point x="302" y="602" type="line"/>
			<point x="429" y="602" type="line"/>
			<point x="354" y="128" type="line"/>
		</contour>
	</outline>
</glyph>
<glyph name="uni0416" format="2">
	<advance width="600"/>
	<unicode hex="0416"/>
	<outline>
		<contour>
			<point x="-34" y="0" type="line"/>
			<point x="86" y="0" type="line"/>
			<point x="224" y="343" type="line"/>
			<point x="257" y="343" type="line"/>
			<point x="208" y="0" type="line"/>
			<point x="310" y="0" type="line"/>
			<point x="359" y="343" type="line"/>
			<point x="398" y="343" type="line"/>
			<point x="430" y="0" type="line"/>
			<point x="546" y="0" type="line"/>
			<point x="507" y="368" type="line"/>
			<point x="652" y="730" type="line"/>
			<point x="536" y="730" type="line"/>
			<point x="403" y="397" type="line"/>
			<point x="368" y="397" type="line"/>
			<point x="421" y="730" type="line"/>
			<point x="319" y="730" type="line"/>
			<point x="266" y="397" type="line"/>
			<point x="229" y="397" type="line"/>
			<point x="202" y="730" type="line"/>
			<point x="88" y="730" type="line"/>
			<point x="118" y="373" type="line"/>
		</contour>
	</outline>
</glyph>
<glyph name="uni0417" format="2">
	<advance width="600"/>
	<unicode hex="0417"/>
	<outline>
		<contour>
			<point x="254" y="-10" type="curve" smooth="yes"/>
			<point x="420" y="-10"/>
			<point x="527" y="71"/>
			<point x="550" y="214" type="curve" smooth="yes"/>
			<point x="568" y="324"/>
			<point x="492" y="402"/>
			<point x="369" y="400" type="curve"/>
			<point x="367" y="385" type="line"/>
			<point x="490" y="385"/>
			<point x="576" y="458"/>
			<point x="592" y="564" type="curve" smooth="yes"/>
			<point x="608" y="671"/>
			<point x="525" y="740"/>
			<point x="380" y="740" type="curve" smooth="yes"/>
			<point x="228" y="740"/>
			<point x="121" y="665"/>
			<point x="87" y="535" type="curve"/>
			<point x="237" y="535" type="line"/>
			<point x="253" y="582"/>
			<point x="298" y="610"/>
			<point x="353" y="610" type="curve" smooth="yes"/>
			<point x="418" y="610"/>
			<point x="454" y="581"/>
			<point x="446" y="530" type="curve" smooth="yes"/>
			<point x="438" y="480"/>
			<point x="392" y="440"/>
			<point x="326" y="440" type="curve" smooth="yes"/>
			<point x="221" y="440" type="line"/>
			<point x="199" y="305" type="line"/>
			<point x="304" y="305" type="line" smooth="yes"/>
			<point x="373" y="305"/>
			<point x="409" y="269"/>
			<point x="400" y="213" type="curve" smooth="yes"/>
			<point x="391" y="160"/>
			<point x="340" y="120"/>
			<point x="275" y="120" type="curve" smooth="yes"/>
			<point x="212" y="120"/>
			<point x="174" y="148"/>
			<point x="177" y="195" type="curve"/>
			<point x="27" y="195" type="line"/>
			<point x="14" y="69"/>
			<point x="102" y="-10"/>
		</contour>
	</outline>
</glyph>
<glyph name="uni0418" format="2">
	<advance width="600"/>
	<unicode hex="0418"/>
	<outline>
		<contour>
			<point x="16" y="0" type="line"/>
			<point x="191" y="0" type="line"/>
			<point x="469" y="565" type="line"/>
			<point x="469" y="565"/>
			<point x="427" y="395"/>
			<point x="412" y="300" type="curve" smooth="yes"/>
			<point x="364" y="0" type="line"/>
			<point x="496" y="0" type="line"/>
			<point x="612" y="730" type="line"/>
			<point x="437" y="730" type="line"/>
			<point x="160" y="165" type="line"/>
			<point x="160" y="165"/>
			<point x="198" y="315"/>
			<point x="213" y="410" type="curve" smooth="yes"/>
			<point x="264" y="730" type="line"/>
			<point x="132" y="730" type="line"/>
		</contour>
	</outline>
</glyph>
<glyph name="uni041B" format="2">
	<advance width="600"/>
	<unicode hex="041B"/>
	<outline>
		<contour>
			<point x="-30" y="-5" type="line"/>
			<point x="10" y="-5" type="line" smooth="yes"/>
			<point x="130" y="-5"/>
			<point x="223" y="86"/>
			<point x="247" y="230" type="curve" smooth="yes"/>
			<point x="308" y="590" type="line"/>
			<point x="433" y="590" type="line"/>
			<point x="340" y="0" type="line"/>
			<point x="490" y="0" type="line"/>
			<point x="606" y="730" type="line"/>
			<point x="184" y="730" type="line"/>
			<point x="98" y="230" type="line" smooth="yes"/>
			<point x="88" y="171"/>
			<point x="57" y="130"/>
			<point x="22" y="130" type="curve" smooth="yes"/>
			<point x="-8" y="130" type="line"/>
		</contour>
	</outline>
</glyph>
<glyph name="uni041F" format="2">
	<advance width="600"/>
	<unicode hex="041F"/>
	<outline>
		<contour>
			<point x="22" y="0" type="line"/>
			<point x="172" y="0" type="line"/>
			<point x="265" y="590" type="line"/>
			<point x="433" y="590" type="line"/>
			<point x="340" y="0" type="line"/>
			<point x="490" y="0" type="line"/>
			<point x="606" y="730" type="line"/>
			<point x="138" y="730" type="line"/>
		</contour>
	</outline>
</glyph>
<glyph name="uni0423" format="2">
	<advance width="600"/>
	<unicode hex="0423"/>
	<outline>
		<contour>
			<point x="117" y="0" type="line"/>
			<point x="274" y="0" type="line"/>
			<point x="647" y="730" type="line"/>
			<point x="490" y="730" type="line"/>
			<point x="352" y="433" type="line" smooth="yes"/>
			<point x="331" y="390"/>
			<point x="315" y="327"/>
			<point x="315" y="327" type="curve"/>
			<point x="315" y="327"/>
			<point x="315" y="389"/>
			<point x="308" y="433" type="curve" smooth="yes"/>
			<point x="259" y="730" type="line"/>
			<point x="97" y="730" type="line"/>
			<point x="221" y="185" type="line"/>
		</contour>
	</outline>
</glyph>
<glyph name="uni0424" format="2">
	<advance width="600"/>
	<unicode hex="0424"/>
	<outline>
		<contour>
			<point x="203" y="45" type="curve"/>
			<point x="192" y="-25" type="line"/>
			<point x="312" y="-25" type="line"/>
			<point x="323" y="45" type="line"/>
			<point x="448" y="45"/>
			<point x="547" y="133"/>
			<point x="568" y="264" type="curve" smooth="yes"/>
			<point x="602" y="481" type="line" smooth="yes"/>
			<point x="623" y="612"/>
			<point x="552" y="700"/>
			<point x="427" y="700" type="curve"/>
			<point x="438" y="770" type="line"/>
			<point x="318" y="770" type="line"/>
			<point x="307" y="700" type="line"/>
			<point x="182" y="700"/>
			<point x="83" y="612"/>
			<point x="62" y="481" type="curve" smooth="yes"/>
			<point x="28" y="264" type="line" smooth="yes"/>
			<point x="7" y="133"/>
			<point x="78" y="45"/>
		</contour>
		<contour>
			<point x="295" y="585" type="curve"/>
			<point x="227" y="161" type="line"/>
			<point x="174" y="161"/>
			<point x="145" y="202"/>
			<point x="155" y="264" type="curve" smooth="yes"/>
			<point x="189" y="481" type="line" smooth="yes"/>
			<point x="199" y="543"/>
			<point x="242" y="585"/>
		</contour>
		<contour>
			<point x="335" y="161" type="curve"/>
			<point x="403" y="585" type="line"/>
			<point x="456" y="585"/>
			<point x="485" y="543"/>
			<point x="475" y="481" type="curve" smooth="yes"/>
			<point x="441" y="264" type="line" smooth="yes"/>
			<point x="431" y="202"/>
			<point x="388" y="161"/>
		</contour>
	</outline>
</glyph>
<glyph name="uni0426" format="2">
	<advance width="600"/>
	<unicode hex="0426"/>
	<outline>
		<contour>
			<point x="372" y="-140" type="line"/>
			<point x="512" y="-140" type="line"/>
			<point x="556" y="140" type="line"/>
			<point x="481" y="140" type="line"/>
			<point x="575" y="730" type="line"/>
			<point x="425" y="730" type="line"/>
			<point x="331" y="140" type="line"/>
			<point x="194" y="140" type="line"/>
			<point x="288" y="730" type="line"/>
			<point x="138" y="730" type="line"/>
			<point x="22" y="0" type="line"/>
			<point x="394" y="0" type="line"/>
		</contour>
	</outline>
</glyph>
<glyph name="uni0427" format="2">
	<advance width="600"/>
	<unicode hex="0427"/>
	<outline>
		<contour>
			<point x="380" y="275" type="curve"/>
			<point x="336" y="0" type="line"/>
			<point x="486" y="0" type="line"/>
			<point x="602" y="730" type="line"/>
			<point x="452" y="730" type="line"/>
			<point x="401" y="410" type="line"/>
			<point x="401" y="410"/>
			<point x="374" y="400"/>
			<point x="324" y="400" type="curve" smooth="yes"/>
			<point x="260" y="400"/>
			<point x="225" y="435"/>
			<point x="234" y="490" type="curve" smooth="yes"/>
			<point x="272" y="730" type="line"/>
			<point x="122" y="730" type="line"/>
			<point x="82" y="481" type="line" smooth="yes"/>
			<point x="61" y="349"/>
			<point x="133" y="265"/>
			<point x="268" y="265" type="curve" smooth="yes"/>
			<point x="341" y="265"/>
			<point x="380" y="275"/>
		</contour>
	</outline>
</glyph>
<glyph name="uni0428" format="2">
	<advance width="600"/>
	<unicode hex="0428"/>
	<outline>
		<contour>
			<point x="-4" y="0" type="line"/>
			<point x="516" y="0" type="line"/>
			<point x="632" y="730" type="line"/>
			<point x="509" y="730" type="line"/>
			<point x="409" y="100" type="line"/>
			<point x="324" y="100" type="line"/>
			<point x="424" y="730" type="line"/>
			<point x="320" y="730" type="line"/>
			<point x="220" y="100" type="line"/>
			<point x="135" y="100" type="line"/>
			<point x="235" y="730" type="line"/>
			<point x="112" y="730" type="line"/>
		</contour>
	</outline>
</glyph>
<glyph name="uni0429" format="2">
	<advance width="600"/>
	<unicode hex="0429"/>
	<outline>
		<contour>
			<point x="391" y="-140" type="line"/>
			<point x="521" y="-140" type="line"/>
			<point x="559" y="100" type="line"/>
			<point x="494" y="100" type="line"/>
			<point x="594" y="730" type="line"/>
			<point x="481" y="730" type="line"/>
			<point x="381" y="100" type="line"/>
			<point x="302" y="100" type="line"/>
			<point x="402" y="730" type="line"/>
			<point x="303" y="730" type="line"/>
			<point x="203" y="100" type="line"/>
			<point x="124" y="100" type="line"/>
			<point x="224" y="730" type="line"/>
			<point x="111" y="730" type="line"/>
			<point x="-5" y="0" type="line"/>
			<point x="413" y="0" type="line"/>
		</contour>
	</outline>
</glyph>
<glyph name="uni042A" format="2">
	<advance width="600"/>
	<unicode hex="042A"/>
	<outline>
		<contour>
			<point x="66" y="0" type="line"/>
			<point x="266" y="0" type="line" smooth="yes"/>
			<point x="424" y="0"/>
			<point x="540" y="88"/>
			<point x="561" y="223" type="curve" smooth="yes"/>
			<point x="583" y="358"/>
			<point x="494" y="445"/>
			<point x="336" y="445" type="curve" smooth="yes"/>
			<point x="286" y="445" type="line"/>
			<point x="332" y="730" type="line"/>
			<point x="67" y="730" type="line"/>
			<point x="48" y="610" type="line"/>
			<point x="163" y="610" type="line"/>
		</contour>
		<contour>
			<point x="287" y="130" type="curve" smooth="yes"/>
			<point x="237" y="130" type="line"/>
			<point x="266" y="315" type="line"/>
			<point x="316" y="315" type="line" smooth="yes"/>
			<point x="383" y="315"/>
			<point x="420" y="279"/>
			<point x="411" y="222" type="curve" smooth="yes"/>
			<point x="402" y="166"/>
			<point x="354" y="130"/>
		</contour>
	</outline>
</glyph>
<glyph name="uni042B" format="2">
	<advance width="600"/>
	<unicode hex="042B"/>
	<outline>
		<contour>
			<point x="-4" y="0" type="line"/>
			<point x="146" y="0" type="line" smooth="yes"/>
			<point x="264" y="0"/>
			<point x="347" y="72"/>
			<point x="366" y="190" type="curve" smooth="yes"/>
			<point x="376" y="254" type="line" smooth="yes"/>
			<point x="395" y="372"/>
			<point x="334" y="445"/>
			<point x="216" y="445" type="curve" smooth="yes"/>
			<point x="191" y="445" type="line"/>
			<point x="237" y="730" type="line"/>
			<point x="112" y="730" type="line"/>
		</contour>
		<contour>
			<point x="164" y="115" type="curve" smooth="yes"/>
			<point x="139" y="115" type="line"/>
			<point x="173" y="330" type="line"/>
			<point x="198" y="330" type="line" smooth="yes"/>
			<point x="243" y="330"/>
			<point x="264" y="302"/>
			<point x="256" y="252" type="curve" smooth="yes"/>
			<point x="246" y="191" type="line" smooth="yes"/>
			<point x="238" y="142"/>
			<point x="208" y="115"/>
		</contour>
		<contour>
			<point x="391" y="0" type="line"/>
			<point x="516" y="0" type="line"/>
			<point x="632" y="730" type="line"/>
			<point x="507" y="730" type="line"/>
		</contour>
	</outline>
</glyph>
<glyph name="uni042C" format="2">
	<advance width="600"/>
	<unicode hex="042C"/>
	<outline>
		<contour>
			<point x="22" y="0" type="line"/>
			<point x="266" y="0" type="line" smooth="yes"/>
			<point x="424" y="0"/>
			<point x="540" y="88"/>
			<point x="561" y="223" type="curve" smooth="yes"/>
			<point x="583" y="358"/>
			<point x="494" y="445"/>
			<point x="336" y="445" type="curve" smooth="yes"/>
			<point x="242" y="445" type="line"/>
			<point x="288" y="730" type="line"/>
			<point x="138" y="730" type="line"/>
		</contour>
		<contour>
			<point x="287" y="130" type="curve" smooth="yes"/>
			<point x="193" y="130" type="line"/>
			<point x="222" y="315" type="line"/>
			<point x="316" y="315" type="line" smooth="yes"/>
			<point x="383" y="315"/>
			<point x="420" y="279"/>
			<point x="411" y="222" type="curve" smooth="yes"/>
			<point x="402" y="166"/>
			<point x="354" y="130"/>
		</contour>
	</outline>
</glyph>
<glyph name="uni042D" format="2">
	<advance width="600"/>
	<unicode hex="042D"/>
	<outline>
		<contour>
			<point x="250" y="-10" type="curve" smooth="yes"/>
			<point x="404" y="-10"/>
			<point x="507" y="72"/>
			<point x="529" y="210" type="curve" smooth="yes"/>
			<point x="578" y="520" type="line" smooth="yes"/>
			<point x="599" y="653"/>
			<point x="516" y="740"/>
			<point x="369" y="740" type="curve" smooth="yes"/>
			<point x="222" y="740"/>
			<point x="111" y="653"/>
			<point x="90" y="520" type="curve"/>
			<point x="240" y="520" type="line"/>
			<point x="249" y="578"/>
			<point x="288" y="610"/>
			<point x="349" y="610" type="curve" smooth="yes"/>
			<point x="408" y="610"/>
			<point x="438" y="578"/>
			<point x="428" y="520" type="curve" smooth="yes"/>
			<point x="379" y="210" type="line" smooth="yes"/>
			<point x="370" y="152"/>
			<point x="331" y="120"/>
			<point x="271" y="120" type="curve" smooth="yes"/>
			<point x="211" y="120"/>
			<point x="182" y="152"/>
			<point x="191" y="210" type="curve"/>
			<point x="41" y="210" type="line"/>
			<point x="20" y="77"/>
			<point x="103" y="-10"/>
		</contour>
		<contour>
			<point x="189" y="300" type="line"/>
			<point x="416" y="300" type="line"/>
			<point x="437" y="435" type="line"/>
			<point x="210" y="435" type="line"/>
		</contour>
	</outline>
</glyph>
<glyph name="uni042E" format="2">
	<advance width="600"/>
	<unicode hex="042E"/>
	<outline>
		<contour>
			<point x="346" y="-10" type="curve" smooth="yes"/>
			<point x="455" y="-10"/>
			<point x="536" y="60"/>
			<point x="553" y="170" type="curve" smooth="yes"/>
			<point x="615" y="561" type="line" smooth="yes"/>
			<point x="632" y="671"/>
			<point x="574" y="740"/>
			<point x="465" y="740" type="curve" smooth="yes"/>
			<point x="369" y="740"/>
			<point x="296" y="670"/>
			<point x="279" y="561" type="curve" smooth="yes"/>
			<point x="258" y="427" type="line"/>
			<point x="187" y="427" type="line"/>
			<point x="235" y="730" type="line"/>
			<point x="112" y="730" type="line"/>
			<point x="-4" y="0" type="line"/>
			<point x="119" y="0" type="line"/>
			<point x="170" y="322" type="line"/>
			<point x="241" y="322" type="line"/>
			<point x="217" y="170" type="line" smooth="yes"/>
			<point x="200" y="60"/>
			<point x="250" y="-10"/>
		</contour>
		<contour>
			<point x="364" y="100" type="curve" smooth="yes"/>
			<point x="331" y="100"/>
			<point x="314" y="123"/>
			<point x="319" y="160" type="curve" smooth="yes"/>
			<point x="384" y="571" type="line" smooth="yes"/>
			<point x="390" y="607"/>
			<point x="415" y="630"/>
			<point x="448" y="630" type="curve" smooth="yes"/>
			<point x="481" y="630"/>
			<point x="499" y="607"/>
			<point x="493" y="571" type="curve" smooth="yes"/>
			<point x="428" y="160" type="line" smooth="yes"/>
			<point x="423" y="123"/>
			<point x="397" y="100"/>
		</contour>
	</outline>
</glyph>
<glyph name="uni042F" format="2">
	<advance width="600"/>
	<unicode hex="042F"/>
	<outline>
		<contour>
			<point x="175" y="300" type="curve"/>
			<point x="-8" y="0" type="line"/>
			<point x="155" y="0" type="line"/>
			<point x="316" y="276" type="line"/>
			<point x="385" y="276" type="line"/>
			<point x="341" y="0" type="line"/>
			<point x="490" y="0" type="line"/>
			<point x="606" y="730" type="line"/>
			<point x="372" y="730" type="line" smooth="yes"/>
			<point x="216" y="730"/>
			<point x="103" y="644"/>
			<point x="81" y="508" type="curve" smooth="yes"/>
			<point x="66" y="413"/>
			<point x="101" y="332"/>
		</contour>
		<contour>
			<point x="320" y="406" type="line"/>
			<point x="254" y="406"/>
			<point x="221" y="441"/>
			<point x="230" y="501" type="curve" smooth="yes"/>
			<point x="240" y="563"/>
			<point x="285" y="600"/>
			<point x="351" y="600" type="curve" smooth="yes"/>
			<point x="436" y="600" type="line"/>
			<point x="405" y="406" type="line"/>
		</contour>
	</outline>
</glyph>
<glyph name="uni0431" format="2">
	<advance width="600"/>
	<unicode hex="0431"/>
	<outline>
		<contour>
			<point x="254" y="-10" type="curve" smooth="yes"/>
			<point x="400" y="-13"/>
			<point x="508" y="75"/>
			<point x="529" y="210" type="curve" smooth="yes"/>
			<point x="540" y="279" type="line" smooth="yes"/>
			<point x="562" y="414"/>
			<point x="506" y="494"/>
			<point x="390" y="494" type="curve" smooth="yes"/>
			<point x="296" y="494"/>
			<point x="238" y="446"/>
			<point x="227" y="371" type="curve"/>
			<point x="241" y="385" type="line"/>
			<point x="227" y="385" type="line"/>
			<point x="238" y="455" type="line" smooth="yes"/>
			<point x="252" y="540"/>
			<point x="306" y="585"/>
			<point x="394" y="585" type="curve" smooth="yes"/>
			<point x="559" y="585" type="line"/>
			<point x="582" y="730" type="line"/>
			<point x="417" y="730" type="line" smooth="yes"/>
			<point x="234" y="730"/>
			<point x="116" y="631"/>
			<point x="88" y="455" type="curve" smooth="yes"/>
			<point x="49" y="210" type="line" smooth="yes"/>
			<point x="28" y="75"/>
			<point x="107" y="-7"/>
		</contour>
		<contour>
			<point x="275" y="120" type="curve" smooth="yes"/>
			<point x="217" y="120"/>
			<point x="190" y="152"/>
			<point x="199" y="210" type="curve" smooth="yes"/>
			<point x="210" y="279" type="line" smooth="yes"/>
			<point x="219" y="337"/>
			<point x="256" y="369"/>
			<point x="314" y="369" type="curve" smooth="yes"/>
			<point x="373" y="369"/>
			<point x="399" y="337"/>
			<point x="390" y="279" type="curve" smooth="yes"/>
			<point x="379" y="210" type="line" smooth="yes"/>
			<point x="370" y="152"/>
			<point x="333" y="120"/>
		</contour>
	</outline>
</glyph>
<glyph name="uni0432" format="2">
	<advance width="600"/>
	<unicode hex="0432"/>
	<outline>
		<contour>
			<point x="21" y="0" type="line"/>
			<point x="283" y="0" type="line" smooth="yes"/>
			<point x="419" y="0"/>
			<point x="514" y="60"/>
			<point x="529" y="157" type="curve" smooth="yes"/>
			<point x="541" y="236"/>
			<point x="480" y="288"/>
			<point x="372" y="288" type="curve"/>
			<point x="370" y="278" type="line"/>
			<point x="469" y="278"/>
			<point x="542" y="326"/>
			<point x="553" y="400" type="curve" smooth="yes"/>
			<point x="568" y="492"/>
			<point x="491" y="550"/>
			<point x="357" y="550" type="curve" smooth="yes"/>
			<point x="108" y="550" type="line"/>
		</contour>
		<contour>
			<point x="293" y="106" type="curve" smooth="yes"/>
			<point x="185" y="106" type="line"/>
			<point x="205" y="235" type="line"/>
			<point x="313" y="235" type="line" smooth="yes"/>
			<point x="362" y="235"/>
			<point x="391" y="209"/>
			<point x="385" y="169" type="curve" smooth="yes"/>
			<point x="379" y="131"/>
			<point x="342" y="106"/>
		</contour>
		<contour>
			<point x="322" y="323" type="curve" smooth="yes"/>
			<point x="219" y="323" type="line"/>
			<point x="238" y="445" type="line"/>
			<point x="341" y="445" type="line" smooth="yes"/>
			<point x="386" y="445"/>
			<point x="412" y="420"/>
			<point x="406" y="383" type="curve" smooth="yes"/>
			<point x="400" y="347"/>
			<point x="367" y="323"/>
		</contour>
	</outline>
</glyph>
